<svg width="50" height="50" viewBox="0 0 50 50" fill="none" xmlns="http://www.w3.org/2000/svg">
    <path d="M38.916 38.9167H36.9368L19.041 28.9792V13.0625L36.9368 3.125H38.916V38.9167Z" stroke="#282828"
        stroke-width="3" stroke-miterlimit="10" stroke-linejoin="round" />
    <path
        d="M11.0833 13.0625H19.0417V28.9792H11.0833C8.97265 28.9792 6.94842 28.1407 5.45594 26.6482C3.96346 25.1557 3.125 23.1315 3.125 21.0208C3.125 18.9102 3.96346 16.8859 5.45594 15.3934C6.94842 13.901 8.97265 13.0625 11.0833 13.0625Z"
        stroke="#282828" stroke-width="3" stroke-miterlimit="10" stroke-linejoin="round" />
    <path d="M11.084 28.9785H19.0423L23.0007 46.8743H15.0632L11.084 28.9785Z" stroke="#282828" stroke-width="3"
        stroke-miterlimit="10" stroke-linejoin="round" />
    <path
        d="M38.916 17.041H42.8952C43.9505 17.041 44.9626 17.4602 45.7089 18.2065C46.4551 18.9527 46.8743 19.9648 46.8743 21.0202C46.8743 21.5427 46.7714 22.0602 46.5715 22.5429C46.3715 23.0257 46.0784 23.4644 45.7089 23.8339C45.3394 24.2034 44.9007 24.4965 44.4179 24.6965C43.9352 24.8964 43.4177 24.9993 42.8952 24.9993H38.916V17.041Z"
        stroke="#282828" stroke-width="3" stroke-miterlimit="10" stroke-linejoin="round" />
</svg>