<svg width="14" height="26" viewBox="0 0 14 26" fill="none" xmlns="http://www.w3.org/2000/svg">
<rect width="14" height="26" fill="white"/>
<path d="M3.9751 17H2.26123L6.06982 6.39453H7.93018L11.7534 17H10.0396L9.07275 14.2021H4.94189L3.9751 17ZM5.40332 12.8545H8.604L7.03662 8.32812H6.96338L5.40332 12.8545Z" fill="#606067"/>
<path d="M3.9751 17V18C4.4015 18 4.781 17.7296 4.92026 17.3266L3.9751 17ZM2.26123 17L1.32008 16.662C1.21006 16.9684 1.25604 17.3091 1.44331 17.5753C1.63059 17.8416 1.93572 18 2.26123 18V17ZM6.06982 6.39453V5.39453C5.64785 5.39453 5.27129 5.65941 5.12867 6.05655L6.06982 6.39453ZM7.93018 6.39453L8.87091 6.0554C8.72796 5.65885 8.3517 5.39453 7.93018 5.39453V6.39453ZM11.7534 17V18C12.0791 18 12.3845 17.8414 12.5717 17.5748C12.7589 17.3083 12.8046 16.9673 12.6942 16.6609L11.7534 17ZM10.0396 17L9.09439 17.3266C9.23365 17.7296 9.61315 18 10.0396 18V17ZM9.07275 14.2021L10.0179 13.8755C9.87865 13.4725 9.49916 13.2021 9.07275 13.2021V14.2021ZM4.94189 14.2021V13.2021C4.51549 13.2021 4.136 13.4725 3.99673 13.8755L4.94189 14.2021ZM5.40332 12.8545L4.4579 12.5286C4.35257 12.8342 4.40145 13.1719 4.58912 13.4351C4.77678 13.6983 5.08008 13.8545 5.40332 13.8545V12.8545ZM8.604 12.8545V13.8545C8.92749 13.8545 9.231 13.698 9.41863 13.4345C9.60625 13.171 9.6548 12.833 9.54895 12.5273L8.604 12.8545ZM7.03662 8.32812L7.98157 8.00091C7.84212 7.59821 7.46278 7.32812 7.03662 7.32812V8.32812ZM6.96338 8.32812V7.32812C6.53668 7.32812 6.157 7.59887 6.01796 8.00228L6.96338 8.32812ZM3.9751 16H2.26123V18H3.9751V16ZM3.20238 17.338L7.01098 6.73251L5.12867 6.05655L1.32008 16.662L3.20238 17.338ZM6.06982 7.39453H7.93018V5.39453H6.06982V7.39453ZM6.98944 6.73366L10.8127 17.3391L12.6942 16.6609L8.87091 6.0554L6.98944 6.73366ZM11.7534 16H10.0396V18H11.7534V16ZM10.9847 16.6734L10.0179 13.8755L8.12759 14.5287L9.09439 17.3266L10.9847 16.6734ZM9.07275 13.2021H4.94189V15.2021H9.07275V13.2021ZM3.99673 13.8755L3.02994 16.6734L4.92026 17.3266L5.88706 14.5287L3.99673 13.8755ZM5.40332 13.8545H8.604V11.8545H5.40332V13.8545ZM9.54895 12.5273L7.98157 8.00091L6.09167 8.65534L7.65905 13.1817L9.54895 12.5273ZM7.03662 7.32812H6.96338V9.32812H7.03662V7.32812ZM6.01796 8.00228L4.4579 12.5286L6.34874 13.1803L7.9088 8.65397L6.01796 8.00228Z" fill="#606067"/>
<path d="M3.9751 17H2.26123L6.06982 6.39453H7.93018L11.7534 17H10.0396L9.07275 14.2021H4.94189L3.9751 17ZM5.40332 12.8545H8.604L7.03662 8.32812H6.96338L5.40332 12.8545Z" fill="white"/>
</svg>
