<svg width="161" height="118" viewBox="0 0 161 118" fill="none" xmlns="http://www.w3.org/2000/svg">
<g clip-path="url(#clip0_732_1088)">
<path d="M56.203 19.7096L44.5606 11.0334C42.716 9.65427 40.3491 9.01139 38.0099 9.31867L7.8509 12.9941L5.38348 13.3182C2.40334 13.7097 0.309364 16.3692 0.692975 19.2756L9.58202 86.6217C9.6769 87.3405 10.3641 87.8543 11.1011 87.7575L115.182 74.0858C115.919 73.989 116.449 73.3152 116.354 72.5965L109.528 20.8759C108.971 16.6569 104.992 13.6823 100.666 14.2506L57.1818 19.9626C56.8293 20.0089 56.4603 19.9302 56.171 19.7138L56.203 19.7096Z" fill="#FF5D47"/>
<path d="M42.579 48.9311C48.7636 48.1187 47.5262 38.7434 41.3416 39.5557C35.157 40.3681 36.3944 49.7435 42.579 48.9311Z" fill="white"/>
<path d="M67.7157 45.6293C73.9003 44.8169 72.6629 35.4416 66.4783 36.254C60.2937 37.0664 61.5312 46.4417 67.7157 45.6293Z" fill="white"/>
<path d="M39.9615 58.144C50.9358 68.1797 69.5857 65.7299 77.4009 53.0671C78.3172 51.6115 78.3023 49.7694 76.8193 48.6607C75.5534 47.7142 73.1812 47.7715 72.3011 49.2542C69.3733 53.9944 64.9049 57.1884 59.2051 57.9689C53.5053 58.7494 48.0802 56.9186 43.9303 53.1399C42.6675 51.9705 40.385 52.461 39.412 53.7334C38.2673 55.1873 38.735 57.0016 39.9936 58.1398L39.9615 58.144Z" fill="white"/>
</g>
<g clip-path="url(#clip1_732_1088)">
<path d="M83.1719 48.557L74.5858 36.8607C73.2267 35.0032 71.1522 33.6972 68.8253 33.3078L38.9092 28.0139L36.4547 27.6032C33.4903 27.1071 30.7076 29.0385 30.2214 31.9296L18.9568 98.9211C18.8366 99.6361 19.3429 100.328 20.0761 100.451L123.608 117.776C124.342 117.899 125.047 117.41 125.167 116.695L133.818 65.2463C134.523 61.0496 131.592 57.0434 127.289 56.3233L84.0335 49.0848C83.6829 49.0261 83.3532 48.8431 83.14 48.5517L83.1719 48.557Z" fill="#7230FF"/>
<path d="M86.9697 76.6362C93.1217 77.6657 94.6899 68.3397 88.5378 67.3102C82.3858 66.2807 80.8177 75.6067 86.9697 76.6362Z" fill="white"/>
<path d="M88.4662 89.873C87.6393 94.1826 80.9986 90.9258 72.8987 89.3792C64.7987 87.8325 58.3068 88.5816 59.1337 84.272C59.9605 79.9624 67.1972 77.7226 75.2971 79.2692C83.3971 80.8159 89.2931 85.5634 88.4662 89.873Z" fill="white"/>
<path d="M64.1273 70.7242L71.392 65.6509M65.0038 64.3987L70.4528 71.6007" stroke="white" stroke-width="3" stroke-linecap="round"/>
</g>
<path d="M137.519 44.4519C135.786 41.4573 131.463 41.4574 129.73 44.4519L111.223 76.4285C109.487 79.4285 111.652 83.1826 115.118 83.1826H152.13C155.597 83.1826 157.761 79.4285 156.025 76.4285L137.519 44.4519Z" fill="#FFBB56" stroke="#F8F8FA" stroke-width="3"/>
<path d="M136.045 57.707H131.99L132.342 69.4961H135.693L136.045 57.707ZM131.896 72.7773C131.873 73.9609 132.846 74.9102 134.006 74.9102C135.131 74.9102 136.127 73.9609 136.139 72.7773C136.127 71.6289 135.131 70.6914 134.006 70.6914C132.846 70.6914 131.873 71.6289 131.896 72.7773Z" fill="white"/>
<defs>
<clipPath id="clip0_732_1088">
<rect width="107.689" height="74.5499" fill="white" transform="matrix(0.991483 -0.130238 0.130856 0.991401 0 14.0254)"/>
</clipPath>
<clipPath id="clip1_732_1088">
<rect width="107.687" height="74.5518" fill="white" transform="matrix(0.986286 0.165048 -0.165822 0.986156 31.0996 26.707)"/>
</clipPath>
</defs>
</svg>
