<svg width="63" height="54" viewBox="0 0 63 54" fill="none" xmlns="http://www.w3.org/2000/svg">
<g clip-path="url(#clip0_102_346)">
<path d="M25.572 8.989L20.2748 5.03187C19.4355 4.40287 18.3586 4.10965 17.2942 4.2498L3.57211 5.92613L2.44945 6.07396C1.0935 6.2525 0.140758 7.46548 0.315299 8.79104L4.35976 39.5069C4.40292 39.8347 4.7156 40.069 5.05094 40.0249L52.4069 33.7894C52.7422 33.7452 52.9836 33.4379 52.9404 33.1101L49.8344 9.5209C49.581 7.59671 47.7707 6.24003 45.8024 6.4992L26.0173 9.10437C25.857 9.12549 25.6891 9.08959 25.5574 8.99092L25.572 8.989Z" fill="#FF5D47"/>
<path d="M19.3727 22.3165C22.1867 21.9459 21.6236 17.6699 18.8097 18.0405C15.9957 18.411 16.5588 22.687 19.3727 22.3165Z" fill="white"/>
<path d="M30.8097 20.8106C33.6237 20.4401 33.0606 16.1641 30.2467 16.5346C27.4327 16.9051 27.9958 21.1811 30.8097 20.8106Z" fill="white"/>
<path d="M18.1825 26.5181C23.1757 31.0953 31.6612 29.9779 35.2171 24.2026C35.634 23.5387 35.6272 22.6985 34.9525 22.1928C34.3765 21.7612 33.2972 21.7873 32.8967 22.4635C31.5646 24.6255 29.5315 26.0822 26.9381 26.4382C24.3448 26.7942 21.8764 25.9592 19.9882 24.2358C19.4136 23.7024 18.3751 23.9261 17.9324 24.5064C17.4116 25.1695 17.6244 25.997 18.197 26.5162L18.1825 26.5181Z" fill="white"/>
</g>
<g clip-path="url(#clip1_102_346)">
<path d="M37.8429 22.1462L33.9363 16.8116C33.3179 15.9645 32.3741 15.3688 31.3153 15.1912L17.7037 12.7767L16.5869 12.5894C15.2381 12.3631 13.972 13.244 13.7508 14.5626L8.62551 45.1167C8.57081 45.4428 8.80118 45.7584 9.13475 45.8144L56.2413 53.7163C56.5749 53.7722 56.8956 53.5491 56.9503 53.223L60.8865 29.758C61.2076 27.8439 59.8738 26.0167 57.9159 25.6883L38.235 22.3869C38.0754 22.3601 37.9254 22.2767 37.8284 22.1438L37.8429 22.1462Z" fill="#7230FF"/>
<path d="M30.0997 33.0754C32.8988 33.5449 33.6123 29.2914 30.8132 28.8219C28.0141 28.3523 27.3006 32.6058 30.0997 33.0754Z" fill="white"/>
<path d="M25.6448 36.7443C29.0792 42.5828 37.52 43.9987 42.611 39.5175C43.204 39.0047 43.4434 38.1994 42.9463 37.5183C42.5219 36.9369 41.4822 36.6459 40.9014 37.1753C38.9947 38.8525 36.6242 39.6502 34.0402 39.2314C31.4562 38.8125 29.3405 37.2914 28.0396 35.0907C27.6464 34.4125 26.5879 34.3224 25.9946 34.7476C25.3025 35.2292 25.2637 36.0828 25.6593 36.7468L25.6448 36.7443Z" fill="white"/>
<path d="M38.0342 32.9502C39.3747 32.262 41.0664 32.4877 42.7711 33.7815" stroke="white" stroke-width="2" stroke-linecap="round"/>
</g>
<defs>
<clipPath id="clip0_102_346">
<rect width="49" height="34" fill="white" transform="translate(0 6.39648) rotate(-7.50118)"/>
</clipPath>
<clipPath id="clip1_102_346">
<rect width="49" height="34" fill="white" transform="translate(14.1504 12.1807) rotate(9.52248)"/>
</clipPath>
</defs>
</svg>
