<svg width="63" height="54" viewBox="0 0 63 54" fill="none" xmlns="http://www.w3.org/2000/svg">
    <g clip-path="url(#clip0_170_287)">
        <path
            d="M25.572 8.989L20.2748 5.03187C19.4355 4.40287 18.3586 4.10965 17.2942 4.2498L3.57211 5.92613L2.44945 6.07396C1.0935 6.2525 0.140758 7.46548 0.315299 8.79104L4.35976 39.5069C4.40292 39.8347 4.7156 40.069 5.05094 40.0249L52.4069 33.7894C52.7422 33.7452 52.9836 33.4379 52.9404 33.1101L49.8344 9.5209C49.581 7.59671 47.7707 6.24003 45.8024 6.4992L26.0173 9.10437C25.8569 9.12549 25.6891 9.08959 25.5574 8.99092L25.572 8.989Z"
            fill="#FF5D47" />
        <path
            d="M19.3727 22.3165C22.1867 21.9459 21.6236 17.6699 18.8097 18.0405C15.9957 18.411 16.5588 22.687 19.3727 22.3165Z"
            fill="white" />
        <path
            d="M30.8097 20.8106C33.6237 20.4401 33.0606 16.1641 30.2467 16.5346C27.4327 16.9051 27.9958 21.1811 30.8097 20.8106Z"
            fill="white" />
        <path
            d="M18.1825 26.5181C23.1757 31.0953 31.6612 29.9779 35.2171 24.2026C35.634 23.5387 35.6272 22.6985 34.9525 22.1928C34.3765 21.7612 33.2972 21.7873 32.8967 22.4635C31.5646 24.6255 29.5315 26.0822 26.9381 26.4382C24.3448 26.7942 21.8764 25.9592 19.9882 24.2358C19.4136 23.7024 18.3751 23.9261 17.9324 24.5064C17.4116 25.1695 17.6244 25.997 18.197 26.5162L18.1825 26.5181Z"
            fill="white" />
    </g>
    <g clip-path="url(#clip1_170_287)">
        <path
            d="M37.8424 22.1462L33.9358 16.8116C33.3175 15.9645 32.3736 15.3688 31.3148 15.1912L17.7032 12.7767L16.5864 12.5894C15.2376 12.3631 13.9715 13.244 13.7503 14.5626L8.62502 45.1167C8.57032 45.4428 8.80069 45.7584 9.13427 45.8144L56.2408 53.7163C56.5744 53.7722 56.8951 53.5491 56.9498 53.223L60.886 29.758C61.2071 27.844 59.8733 26.0167 57.9154 25.6883L38.2345 22.3869C38.0749 22.3601 37.9249 22.2767 37.8279 22.1438L37.8424 22.1462Z"
            fill="#7230FF" />
        <path
            d="M28.0128 33.0754C30.8119 33.5449 31.5254 29.2914 28.7263 28.8219C25.9272 28.3523 25.2137 32.6058 28.0128 33.0754Z"
            fill="white" />
        <path
            d="M39.3897 34.9836C42.1889 35.4531 42.9024 31.1996 40.1033 30.7301C37.3041 30.2605 36.5906 34.514 39.3897 34.9836Z"
            fill="white" />
        <path
            d="M25.6443 36.7443C29.0787 42.5828 37.5196 43.9987 42.6105 39.5175C43.2035 39.0047 43.4429 38.1994 42.9458 37.5183C42.5215 36.9369 41.4817 36.6459 40.9009 37.1753C38.9942 38.8525 36.6237 39.6502 34.0397 39.2314C31.4558 38.8125 29.34 37.2914 28.0391 35.0907C27.6459 34.4125 26.5874 34.3224 25.9941 34.7476C25.302 35.2292 25.2632 36.0828 25.6588 36.7468L25.6443 36.7443Z"
            fill="white" />
    </g>
    <defs>
        <clipPath id="clip0_170_287">
            <rect width="49" height="34" fill="white" transform="translate(0 6.39648) rotate(-7.50118)" />
        </clipPath>
        <clipPath id="clip1_170_287">
            <rect width="49" height="34" fill="white" transform="translate(14.1499 12.1807) rotate(9.52248)" />
        </clipPath>
    </defs>
</svg>