<svg width="176" height="18" viewBox="0 0 176 18" fill="none" xmlns="http://www.w3.org/2000/svg">
    <path
        d="M1.11328 15L1.09375 12.8711L6.17188 8.20312C7.49023 6.94336 8.20312 6.16211 8.20312 5.03906C8.20312 3.7793 7.25586 2.99805 5.95703 3.00781C4.62891 2.99805 3.75977 3.83789 3.76953 5.19531H0.976562C0.966797 2.43164 3.01758 0.664062 5.99609 0.664062C9.02344 0.664062 11.0352 2.39258 11.0352 4.84375C11.0352 6.45508 10.2539 7.77344 7.34375 10.4102L5.19531 12.5V12.5781H11.2305V15H1.11328ZM18.8086 15.1953C15.2637 15.1953 13.125 12.5586 13.125 7.92969C13.125 3.31055 15.2832 0.664062 18.8086 0.664062C22.334 0.664062 24.4922 3.31055 24.4922 7.92969C24.4922 12.5781 22.3438 15.1953 18.8086 15.1953ZM16.1328 7.92969C16.1133 11.1914 17.168 12.7734 18.8086 12.7734C20.4492 12.7734 21.4941 11.1914 21.4844 7.92969C21.4941 4.69727 20.4395 3.07617 18.8086 3.06641C17.1777 3.07617 16.1328 4.69727 16.1328 7.92969ZM26.5234 15L26.5039 12.8711L31.582 8.20312C32.9004 6.94336 33.6133 6.16211 33.6133 5.03906C33.6133 3.7793 32.666 2.99805 31.3672 3.00781C30.0391 2.99805 29.1699 3.83789 29.1797 5.19531H26.3867C26.377 2.43164 28.4277 0.664062 31.4062 0.664062C34.4336 0.664062 36.4453 2.39258 36.4453 4.84375C36.4453 6.45508 35.6641 7.77344 32.7539 10.4102L30.6055 12.5V12.5781H36.6406V15H26.5234ZM43.9648 15.1953C40.8594 15.1953 38.6328 13.4863 38.5742 11.0156H41.543C41.5918 12.0703 42.6172 12.7637 43.9844 12.7734C45.3906 12.7637 46.3965 11.9824 46.3867 10.8398C46.3965 9.6875 45.3711 8.87695 43.7109 8.86719H42.4023V6.69922H43.7109C45.1074 6.69922 46.084 5.9375 46.0742 4.82422C46.084 3.74023 45.2539 2.99805 44.0039 3.00781C42.7539 2.99805 41.7285 3.70117 41.6797 4.78516H38.8672C38.916 2.35352 41.1035 0.664062 44.0039 0.664062C46.9531 0.664062 48.916 2.41211 48.9062 4.64844C48.916 6.23047 47.8125 7.35352 46.2305 7.63672V7.75391C48.3105 8.00781 49.4531 9.26758 49.4336 11.0352C49.4531 13.457 47.1582 15.1953 43.9648 15.1953ZM57.6367 0.195312L53.0664 17.1289H50.5859L55.1367 0.195312H57.6367ZM64.4141 15.1953C60.8691 15.1953 58.7305 12.5586 58.7305 7.92969C58.7305 3.31055 60.8887 0.664062 64.4141 0.664062C67.9395 0.664062 70.0977 3.31055 70.0977 7.92969C70.0977 12.5781 67.9492 15.1953 64.4141 15.1953ZM61.7383 7.92969C61.7188 11.1914 62.7734 12.7734 64.4141 12.7734C66.0547 12.7734 67.0996 11.1914 67.0898 7.92969C67.0996 4.69727 66.0449 3.07617 64.4141 3.06641C62.7832 3.07617 61.7383 4.69727 61.7383 7.92969ZM78.2227 0.859375V15H75.2734V3.65234H75.1953L71.9531 5.68359V3.08594L75.4492 0.859375H78.2227ZM87.6367 0.195312L83.0664 17.1289H80.5859L85.1367 0.195312H87.6367ZM94.4141 15.1953C90.8691 15.1953 88.7305 12.5586 88.7305 7.92969C88.7305 3.31055 90.8887 0.664062 94.4141 0.664062C97.9395 0.664062 100.098 3.31055 100.098 7.92969C100.098 12.5781 97.9492 15.1953 94.4141 15.1953ZM91.7383 7.92969C91.7188 11.1914 92.7734 12.7734 94.4141 12.7734C96.0547 12.7734 97.0996 11.1914 97.0898 7.92969C97.0996 4.69727 96.0449 3.07617 94.4141 3.06641C92.7832 3.07617 91.7383 4.69727 91.7383 7.92969ZM108.223 0.859375V15H105.273V3.65234H105.195L101.953 5.68359V3.08594L105.449 0.859375H108.223ZM120.723 15L120.703 12.8711L125.781 8.20312C127.1 6.94336 127.812 6.16211 127.812 5.03906C127.812 3.7793 126.865 2.99805 125.566 3.00781C124.238 2.99805 123.369 3.83789 123.379 5.19531H120.586C120.576 2.43164 122.627 0.664062 125.605 0.664062C128.633 0.664062 130.645 2.39258 130.645 4.84375C130.645 6.45508 129.863 7.77344 126.953 10.4102L124.805 12.5V12.5781H130.84V15H120.723ZM138.164 15.1953C135.059 15.1953 132.832 13.4863 132.773 11.0156H135.742C135.791 12.0703 136.816 12.7637 138.184 12.7734C139.59 12.7637 140.596 11.9824 140.586 10.8398C140.596 9.6875 139.57 8.87695 137.91 8.86719H136.602V6.69922H137.91C139.307 6.69922 140.283 5.9375 140.273 4.82422C140.283 3.74023 139.453 2.99805 138.203 3.00781C136.953 2.99805 135.928 3.70117 135.879 4.78516H133.066C133.115 2.35352 135.303 0.664062 138.203 0.664062C141.152 0.664062 143.115 2.41211 143.105 4.64844C143.115 6.23047 142.012 7.35352 140.43 7.63672V7.75391C142.51 8.00781 143.652 9.26758 143.633 11.0352C143.652 13.457 141.357 15.1953 138.164 15.1953ZM147.422 13.2812C146.504 13.2812 145.762 12.5488 145.781 11.6406C145.762 10.7422 146.504 10.0098 147.422 10.0195C148.291 10.0098 149.043 10.7422 149.043 11.6406C149.043 12.5488 148.291 13.2812 147.422 13.2812ZM145.781 4.19922C145.762 3.30078 146.504 2.56836 147.422 2.57812C148.291 2.56836 149.043 3.30078 149.043 4.19922C149.043 5.10742 148.291 5.83984 147.422 5.83984C146.504 5.83984 145.762 5.10742 145.781 4.19922ZM156.836 15.1953C153.291 15.1953 151.152 12.5586 151.152 7.92969C151.152 3.31055 153.311 0.664062 156.836 0.664062C160.361 0.664062 162.52 3.31055 162.52 7.92969C162.52 12.5781 160.371 15.1953 156.836 15.1953ZM154.16 7.92969C154.141 11.1914 155.195 12.7734 156.836 12.7734C158.477 12.7734 159.521 11.1914 159.512 7.92969C159.521 4.69727 158.467 3.07617 156.836 3.06641C155.205 3.07617 154.16 4.69727 154.16 7.92969ZM170.039 15.1953C166.494 15.1953 164.355 12.5586 164.355 7.92969C164.355 3.31055 166.514 0.664062 170.039 0.664062C173.564 0.664062 175.723 3.31055 175.723 7.92969C175.723 12.5781 173.574 15.1953 170.039 15.1953ZM167.363 7.92969C167.344 11.1914 168.398 12.7734 170.039 12.7734C171.68 12.7734 172.725 11.1914 172.715 7.92969C172.725 4.69727 171.67 3.07617 170.039 3.06641C168.408 3.07617 167.363 4.69727 167.363 7.92969Z"
        fill="#282828" />
</svg>