<svg width="212" height="53" viewBox="0 0 212 53" fill="none" xmlns="http://www.w3.org/2000/svg">
<path d="M87.32 39.8951H80.728V19.1911C80.728 15.5111 81.88 14.1351 85.72 14.1351H96.376C98.232 14.1351 98.968 15.6711 98.968 16.9831C98.968 18.2951 98.264 19.7351 96.376 19.7351H88.248C87.512 19.7351 87.32 19.8951 87.32 20.6631V24.6951H95.544C97.4 24.6951 98.136 26.2311 98.136 27.5431C98.136 28.8551 97.432 30.2951 95.544 30.2951H87.32V39.8951ZM115.21 31.2871V17.1751C115.21 14.9991 116.746 14.0071 118.506 14.0071C120.298 14.0071 121.802 14.9991 121.802 17.1751V31.0311C121.802 38.1671 116.106 40.4391 111.498 40.4391C106.89 40.4391 101.194 38.1671 101.194 31.0311V17.1751C101.194 14.9991 102.73 14.0071 104.49 14.0071C106.282 14.0071 107.786 14.9991 107.786 17.1751V31.2871C107.786 33.6871 109.802 34.8711 111.498 34.8711C113.194 34.8711 115.21 33.6871 115.21 31.2871ZM132.462 15.9271L140.27 29.8151V17.0471C140.27 15.0951 141.646 14.0071 143.182 14.0071C144.718 14.0071 146.094 15.0951 146.094 17.0471V37.2071C146.094 39.1591 144.398 40.1511 142.958 40.2791C141.422 40.4071 139.566 39.7991 138.766 38.4231L130.958 24.5991V39.8951H125.134V17.2711C125.134 15.2871 126.862 14.2311 128.334 14.0711C129.87 13.9111 131.662 14.5511 132.462 15.9271ZM149.061 37.1431C149.061 35.1591 150.341 33.9111 152.485 33.9111C154.629 33.9111 155.909 35.1911 155.909 37.1431C155.909 39.0951 154.629 40.3751 152.485 40.3751C150.341 40.3751 149.061 39.1271 149.061 37.1431ZM169.156 19.7671H161.092C159.204 19.7671 158.5 18.2951 158.5 17.0151C158.5 15.7671 159.236 14.2311 161.092 14.2311H173.092C174.884 14.2311 176.228 14.7431 176.868 15.8631C177.476 16.9511 177.668 18.6151 176.004 20.8871L166.212 34.3591H175.044C176.932 34.3591 177.668 35.8311 177.668 37.0791C177.668 38.3591 176.9 39.8951 175.044 39.8951H162.244C160.452 39.8951 159.14 39.4151 158.468 38.2631C157.924 37.3351 157.572 35.6711 159.332 33.2391L169.156 19.7671ZM180.007 39.8951V17.2071C180.007 14.9991 181.543 14.0071 183.335 14.0071C185.127 14.0071 186.663 14.9991 186.663 17.2071V39.8951H180.007ZM200.569 32.2791H196.601V39.8951H190.009V19.1911C190.009 15.5111 191.161 14.1351 195.001 14.1351H200.569C206.105 14.1351 210.169 16.8871 210.169 22.9351V23.4791C210.169 29.5271 206.105 32.2791 200.569 32.2791ZM196.601 20.6311V26.7111H200.249C202.393 26.7111 203.609 25.1111 203.609 23.3191V23.0951C203.609 21.3031 202.393 19.7031 200.249 19.7031H197.529C196.793 19.7031 196.601 19.8631 196.601 20.6311Z" fill="white"/>
<g clip-path="url(#clip0_797_949)">
<path d="M26.2072 7.65635L21.1453 3.40233C20.3434 2.72628 19.2851 2.37188 18.2145 2.45083L4.41887 3.33852L3.28958 3.4218C1.92564 3.52239 0.904987 4.67882 1.00332 6.0122L3.28198 36.9093C3.3063 37.239 3.60504 37.4909 3.94236 37.466L51.5777 33.9529C51.915 33.928 52.1736 33.6351 52.1493 33.3053L50.3993 9.57693C50.2566 7.64139 48.527 6.18325 46.5471 6.32927L26.6452 7.79703C26.4839 7.80893 26.3183 7.76347 26.1926 7.65743L26.2072 7.65635Z" fill="#7230FF"/>
<path d="M19.2548 20.6066C22.0854 20.3978 21.7682 16.0966 18.9376 16.3053C16.1071 16.5141 16.4243 20.8153 19.2548 20.6066Z" fill="white"/>
<path d="M30.7595 19.7589C33.59 19.5502 33.2728 15.2489 30.4422 15.4577C27.6117 15.6664 27.9289 19.9677 30.7595 19.7589Z" fill="white"/>
<path d="M17.8256 24.7333C22.5484 29.589 31.0841 28.9595 34.9649 23.3972C35.4191 22.7583 35.4605 21.9192 34.8158 21.3757C34.2655 20.9117 33.1864 20.876 32.7479 21.5282C31.2941 23.6103 29.1809 24.9482 26.5714 25.1551C23.9619 25.3619 21.5454 24.3869 19.759 22.5582C19.216 21.9928 18.1664 22.1567 17.6911 22.7107C17.1332 23.3429 17.2982 24.1812 17.8402 24.7323L17.8256 24.7333Z" fill="white"/>
</g>
<g clip-path="url(#clip1_797_949)">
<path d="M36.7316 19.173L32.2959 14.2696C31.5935 13.4907 30.5932 12.9955 29.5218 12.928L15.7338 11.9297L14.6036 11.8585C13.2387 11.7725 12.0701 12.7792 11.9861 14.1136L10.038 45.0332C10.0173 45.3632 10.2789 45.6534 10.6165 45.6747L58.2867 48.678C58.6243 48.6993 58.9203 48.4443 58.9411 48.1143L60.4371 24.3685C60.5592 22.4316 59.0442 20.7516 57.0628 20.6268L37.1464 19.372C36.985 19.3618 36.8271 19.2942 36.7169 19.1721L36.7316 19.173Z" fill="#FF5D47"/>
<path d="M30.1245 31.1413C32.9571 31.3198 33.2283 27.0154 30.3957 26.837C27.5631 26.6585 27.2919 30.9629 30.1245 31.1413Z" fill="white"/>
<path d="M39.5942 31.782C42.4269 31.9604 42.698 27.6561 39.8654 27.4776C37.0328 27.2991 36.7616 31.6035 39.5942 31.782Z" fill="white"/>
<path d="M26.1036 34.9509C30.1216 40.4041 38.6634 40.9423 43.2652 35.9601C43.8022 35.3889 43.9574 34.5632 43.3927 33.937C42.9106 33.4025 41.8465 33.2202 41.3233 33.8066C39.5997 35.6715 37.324 36.7093 34.7106 36.5591C32.0973 36.4088 29.836 35.114 28.3151 33.0591C27.8541 32.4251 26.7919 32.4446 26.2457 32.9287C25.6069 33.4791 25.6563 34.3321 26.1182 34.9518L26.1036 34.9509Z" fill="white"/>
</g>
<defs>
<clipPath id="clip0_797_949">
<rect width="49" height="34" fill="white" transform="translate(0.825684 3.60352) rotate(-4.21792)"/>
</clipPath>
<clipPath id="clip1_797_949">
<rect width="49" height="34" fill="white" transform="translate(12.1379 11.7031) rotate(3.60503)"/>
</clipPath>
</defs>
</svg>
