<svg width="734" height="576" viewBox="0 0 734 576" fill="none" xmlns="http://www.w3.org/2000/svg">
<mask id="path-1-inside-1_190_573" fill="white">
<path fill-rule="evenodd" clip-rule="evenodd" d="M14.0132 0C6.28125 0 0 6.26802 0 14V46.4374V59.715V560C0 568.837 7.16345 576 16 576H718C726.837 576 734 568.837 734 560V46.4374C734 37.6008 726.751 30.4373 717.915 30.4373H179.162L168.49 9.1563C166.62 6.3696 164.619 4.7412 161.175 2.7867C156.976 0.40397 152.087 0 147.018 0H14.0132Z"/>
</mask>
<path fill-rule="evenodd" clip-rule="evenodd" d="M14.0132 0C6.28125 0 0 6.26802 0 14V46.4374V59.715V560C0 568.837 7.16345 576 16 576H718C726.837 576 734 568.837 734 560V46.4374C734 37.6008 726.751 30.4373 717.915 30.4373H179.162L168.49 9.1563C166.62 6.3696 164.619 4.7412 161.175 2.7867C156.976 0.40397 152.087 0 147.018 0H14.0132Z" fill="#F8F8FA"/>
<path d="M179.162 30.4373L177.375 31.3339L177.928 32.4373H179.162V30.4373ZM168.49 9.1563L170.277 8.25971L170.221 8.14689L170.151 8.04209L168.49 9.1563ZM161.175 2.7867L160.188 4.52615L160.188 4.52615L161.175 2.7867ZM2 14C2 7.37505 7.38336 2 14.0132 2V-2C5.17914 -2 -2 5.16099 -2 14H2ZM2 46.4374V14H-2V46.4374H2ZM2 59.715V46.4374H-2V59.715H2ZM2 560V59.715H-2V560H2ZM16 574C8.26802 574 2 567.732 2 560H-2C-2 569.941 6.05888 578 16 578V574ZM718 574H16V578H718V574ZM732 560C732 567.732 725.732 574 718 574V578C727.941 578 736 569.941 736 560H732ZM732 46.4374V560H736V46.4374H732ZM717.915 32.4373C725.661 32.4373 732 38.7192 732 46.4374H736C736 36.4824 727.842 28.4373 717.915 28.4373V32.4373ZM179.162 32.4373H717.915V28.4373H179.162V32.4373ZM166.702 10.0529L177.375 31.3339L180.95 29.5408L170.277 8.25971L166.702 10.0529ZM160.188 4.52615C163.462 6.38379 165.186 7.82229 166.829 10.2705L170.151 8.04209C168.054 4.91691 165.777 3.09862 162.162 1.04725L160.188 4.52615ZM147.018 2C152.039 2 156.472 2.41752 160.188 4.52615L162.162 1.04725C157.48 -1.60958 152.135 -2 147.018 -2V2ZM14.0132 2H147.018V-2H14.0132V2Z" fill="#DEDFE6" mask="url(#path-1-inside-1_190_573)"/>
</svg>
