<svg width="100" height="26" viewBox="0 0 100 26" fill="none" xmlns="http://www.w3.org/2000/svg">
<path d="M12.75 6.21875V13.6875H10.7656V12.0469H9.04688V10.4688H10.7656V9.48438H9.04688V7.92188H10.7656V6.21875H12.75ZM0.765625 11.9062C1.24219 11.9062 1.75 11.9062 2.28125 11.8984V8.59375H1.125V7H8.70312V8.59375H7.53125V11.7734C8.00781 11.7422 8.47656 11.7109 8.92188 11.6719L9 13.0938C6.375 13.4688 3.32031 13.5234 0.9375 13.5312L0.765625 11.9062ZM3.29688 15.7656V14.2344H12.75V17.9531H5.28125V18.8125H13.1562V20.3438H3.3125V16.5156H10.7812V15.7656H3.29688ZM4.20312 11.8828C4.67188 11.875 5.14844 11.8672 5.625 11.8516V8.59375H4.20312V11.8828ZM26.5938 6.21875V20.4688H24.6094V15.0469H22.1562V13.4375H24.6094V12.125H22.1562V10.4844H24.6094V6.21875H26.5938ZM14.5312 16.25C16.8203 15.2266 17.9297 12.8047 17.9375 10.6719V10.125H14.9844V8.53125H17.9375V6.53125H19.9375V8.53125H22.8125V10.125H19.9219V10.6719C19.9141 12.7266 21.0547 15.0625 23.375 16.0781L22.2812 17.5938C20.6797 16.9141 19.5625 15.5469 18.9375 13.9219C18.3281 15.6328 17.2031 17.0781 15.5781 17.7812L14.5312 16.25ZM41.4375 17.1562V18.7812H28.4219V17.1562H33.9062V14.5312H29.7969V7.125H31.7969V9.32812H38V7.125H39.9844V14.5312H35.8906V17.1562H41.4375ZM31.7969 12.9375H38V10.9219H31.7969V12.9375ZM54.2031 6.21875V20.4375H52.1875V6.21875H54.2031ZM42.2969 16.4062C45.9688 14.6719 47.5859 12.4219 47.9062 9.26562H43.0625V7.70312H49.9375C49.9297 12.0156 48.4219 15.6016 43.3438 18L42.2969 16.4062Z" fill="#7230FF"/>
<path d="M86.2941 6.55198L83.5882 3.86933C83.1597 3.44312 82.5714 3.1924 81.958 3.1924L74.0588 3.11719H73.4118C72.6303 3.11719 72 3.74398 72 4.52119V22.5309C72 22.7231 72.1597 22.8819 72.3529 22.8819H99.6471C99.8403 22.8819 100 22.7231 100 22.5309V8.69978C100 7.57156 99.0756 6.65227 97.9412 6.65227H86.5378C86.4454 6.65227 86.3529 6.61884 86.2857 6.55198H86.2941Z" fill="#7230FF"/>
<path d="M83.1181 13.8231C84.7652 13.8231 84.7652 11.3525 83.1181 11.3525C81.471 11.3525 81.471 13.8231 83.1181 13.8231Z" fill="white"/>
<path d="M88.0585 13.8231C89.7056 13.8231 89.7056 11.3525 88.0585 11.3525C86.4115 11.3525 86.4115 13.8231 88.0585 13.8231Z" fill="white"/>
<path d="M80.4736 15.942C83.0618 18.6116 88.1508 18.6116 90.6953 15.9051C90.9926 15.5945 91.0538 15.1656 90.6953 14.8624C90.3892 14.6036 89.7509 14.5444 89.4624 14.8624C88.5093 15.8755 87.1977 16.4819 85.6412 16.4893C84.0848 16.4967 82.6945 15.9051 81.7152 14.8994C81.4179 14.5888 80.7883 14.6331 80.4823 14.8994C80.1238 15.2025 80.185 15.6388 80.4823 15.942H80.4736Z" fill="white"/>
</svg>
