<svg width="334" height="278" viewBox="0 0 334 278" fill="none" xmlns="http://www.w3.org/2000/svg">
<g clip-path="url(#clip0_100_316)">
<path d="M154.457 19.8467L142.762 11.1103C140.909 9.7216 138.531 9.07426 136.182 9.38367L105.886 13.0846L103.408 13.411C100.414 13.8052 98.3108 16.4831 98.6961 19.4097L107.625 87.2231C107.721 87.9468 108.411 88.4642 109.151 88.3667L213.702 74.6001C214.443 74.5027 214.975 73.8242 214.88 73.1005L208.023 21.021C207.463 16.7729 203.467 13.7776 199.121 14.3498L155.44 20.1014C155.086 20.148 154.715 20.0688 154.425 19.851L154.457 19.8467Z" fill="#FF5D47"/>
<path d="M140.771 49.2712C146.983 48.4532 145.74 39.0128 139.528 39.8308C133.315 40.6488 134.558 50.0892 140.771 49.2712Z" fill="white"/>
<path d="M166.021 45.946C172.234 45.128 170.991 35.6876 164.778 36.5056C158.566 37.3236 159.809 46.764 166.021 45.946Z" fill="white"/>
<path d="M138.142 58.5474C149.166 68.6528 167.9 66.186 175.751 53.4353C176.671 51.9696 176.656 50.1148 175.166 48.9983C173.895 48.0453 171.512 48.103 170.628 49.596C167.687 54.3691 163.198 57.5852 157.473 58.3711C151.747 59.157 146.297 57.3135 142.129 53.5086C140.86 52.3311 138.568 52.825 137.59 54.1062C136.44 55.5702 136.91 57.3971 138.174 58.5432L138.142 58.5474Z" fill="white"/>
</g>
<g clip-path="url(#clip1_100_316)">
<path d="M181.546 48.8942L172.921 37.1166C171.556 35.2463 169.472 33.9313 167.134 33.5392L137.083 28.2085L134.618 27.7949C131.64 27.2954 128.844 29.2402 128.356 32.1513L117.041 99.6076C116.92 100.328 117.428 101.024 118.165 101.148L222.165 118.594C222.902 118.717 223.61 118.224 223.731 117.504L232.421 65.6993C233.13 61.4735 230.185 57.4394 225.862 56.7143L182.411 49.4256C182.059 49.3665 181.728 49.1822 181.514 48.8888L181.546 48.8942Z" fill="#7230FF"/>
<path d="M164.451 73.0236C170.631 74.0603 172.206 64.6696 166.026 63.6329C159.846 62.5963 158.271 71.987 164.451 73.0236Z" fill="white"/>
<path d="M154.615 81.1224C162.198 94.0124 180.833 97.1384 192.073 87.2448C193.382 86.1127 193.911 84.3348 192.813 82.8312C191.876 81.5476 189.581 80.9051 188.298 82.0739C184.089 85.7768 178.855 87.5379 173.151 86.6131C167.446 85.6884 162.775 82.3302 159.903 77.4715C159.034 75.9742 156.698 75.7753 155.388 76.7142C153.86 77.7773 153.774 79.6618 154.647 81.1278L154.615 81.1224Z" fill="white"/>
<path d="M181.968 72.7462C184.927 71.2267 188.662 71.725 192.426 74.5815" stroke="white" stroke-width="4" stroke-linecap="round"/>
</g>
<path d="M78.6094 165.828V176.562H75.6328V174.922H70.7578V172.648H75.6328V170.773H70.9922C69.668 173.973 66.6211 176.023 61.8984 177.055L60.8906 174.617C65.7773 173.656 68.0273 171.629 68.4258 169.062H62.0859V166.648H71.7422C71.7422 167.293 71.6953 167.914 71.6016 168.5H75.6328V165.828H78.6094ZM64.4297 179.68V177.336H78.6094V183.172H67.4531V184.578H79.0781V186.945H64.4531V180.969H75.6094V179.68H64.4297ZM99.8203 165.828V187.156H96.9844V165.828H99.8203ZM80.9297 180.922C84.0703 178.988 85.2422 175.168 85.2422 171.547V170.398H81.75V168.008H91.3594V170.398H88.125V171.547C88.1133 175.086 89.2266 178.672 92.3438 180.453L90.5859 182.656C88.6758 181.531 87.4336 179.633 86.707 177.336C85.9805 179.82 84.6914 181.93 82.7344 183.125L80.9297 180.922ZM89.8359 175.555V173.141H92.6484V166.18H95.4609V186.172H92.6484V175.555H89.8359ZM118.945 165.828V174.008H121.969V176.469H118.945V187.109H115.945V165.828H118.945ZM101.883 181.133C106.934 178.602 109.652 175.203 110.215 170.445H103.102V168.008H113.25C113.227 174.383 110.742 179.902 103.57 183.43L101.883 181.133ZM134.812 166.695C137.93 166.707 140.168 168.453 140.18 171.031C140.168 173.117 138.645 174.711 136.359 175.203V176.762C138.035 176.656 139.699 176.504 141.258 176.281L141.492 178.461C137.098 179.234 132.211 179.34 128.648 179.328L128.344 176.961C129.82 176.961 131.543 176.949 133.359 176.902V175.227C131.004 174.758 129.434 173.152 129.445 171.031C129.434 168.453 131.672 166.707 134.812 166.695ZM131.156 186.758V180.688H134.156V184.367H146.18V186.758H131.156ZM132.234 171.031C132.211 172.332 133.301 173.082 134.812 173.094C136.348 173.082 137.367 172.332 137.367 171.031C137.367 169.695 136.336 168.969 134.812 168.945C133.301 168.969 132.211 169.695 132.234 171.031ZM142.453 182.117V165.852H145.453V172.555H148.172V175.039H145.453V182.117H142.453ZM168.656 182.328V184.789H149.133V182.328H154.125V179.07H151.383V171.898H163.453V169.602H151.359V167.211H166.406V174.289H154.383V176.656H166.898V179.07H163.875V182.328H168.656ZM157.031 182.328H160.945V179.07H157.031V182.328ZM182.578 174.5V176.891H178.43V180.395C180.188 180.324 181.945 180.207 183.609 180.031L183.844 182.211C179.18 182.926 174.328 182.961 170.32 182.961L169.969 180.523C171.668 180.535 173.52 180.535 175.43 180.488V176.891H171.375V167.727H182.461V170.094H174.352V174.5H182.578ZM184.828 187.203V165.828H187.805V187.203H184.828ZM198.656 179.445C198.645 181.191 199.359 182.984 201.105 184.191C202.863 182.902 203.578 181.027 203.602 179.445V178.578H206.531V179.445C206.543 181.672 207.703 183.781 210.609 184.672L209.086 186.875C207.059 186.172 205.746 184.848 205.008 183.195C204.305 184.836 203.051 186.289 201.117 187.062C199.16 186.336 197.906 184.941 197.203 183.277C196.441 184.871 195.129 186.16 193.195 186.875L191.742 184.672C194.555 183.734 195.738 181.566 195.75 179.445V178.578H198.656V179.445ZM190.875 172.016C190.875 169.074 193.312 166.906 196.57 166.93C199.266 166.906 201.457 168.477 202.043 170.773H205.617V165.828H208.594V177.781H205.617V173.211H202.055C201.492 175.566 199.289 177.16 196.57 177.148C193.312 177.16 190.875 175.016 190.875 172.016ZM193.758 172.016C193.734 173.645 194.93 174.676 196.57 174.664C198.164 174.676 199.348 173.645 199.359 172.016C199.348 170.387 198.164 169.402 196.57 169.414C194.93 169.402 193.734 170.387 193.758 172.016ZM217.242 167.328C220.125 167.328 222.281 169.695 222.703 173.539H226.406V165.828H229.359V187.203H226.406V175.93H222.738C222.422 180.031 220.219 182.539 217.242 182.539C214.008 182.539 211.688 179.609 211.711 174.922C211.688 170.27 214.008 167.328 217.242 167.328ZM214.57 174.922C214.559 178.098 215.648 179.832 217.242 179.82C218.848 179.832 219.914 178.098 219.914 174.922C219.914 171.758 218.848 170.023 217.242 170.023C215.648 170.023 214.559 171.758 214.57 174.922ZM251.625 182.211V184.672H232.102V182.211H236.461V176.984C234.809 175.988 233.812 174.477 233.812 172.602C233.812 169.145 237.188 166.871 241.828 166.859C246.445 166.871 249.855 169.145 249.867 172.602C249.855 174.441 248.895 175.93 247.289 176.926V182.211H251.625ZM236.766 172.602C236.766 174.688 238.77 175.977 241.828 175.977C244.84 175.977 246.902 174.688 246.914 172.602C246.902 170.457 244.84 169.215 241.828 169.227C238.77 169.215 236.766 170.457 236.766 172.602ZM239.414 182.211H244.266V178.062C243.504 178.215 242.684 178.297 241.828 178.297C240.973 178.297 240.164 178.215 239.414 178.074V182.211ZM261.141 185.211C260.039 185.211 259.148 184.332 259.172 183.242C259.148 182.164 260.039 181.285 261.141 181.297C262.184 181.285 263.086 182.164 263.086 183.242C263.086 184.332 262.184 185.211 261.141 185.211ZM259.172 174.312C259.148 173.234 260.039 172.355 261.141 172.367C262.184 172.355 263.086 173.234 263.086 174.312C263.086 175.402 262.184 176.281 261.141 176.281C260.039 176.281 259.148 175.402 259.172 174.312ZM271.992 178.531C271.98 182.949 270.621 186.617 268.383 189.781H265.078C266.695 187.426 268.383 182.738 268.383 178.531C268.383 174.336 266.695 169.637 265.078 167.305H268.383C270.621 170.457 271.98 174.125 271.992 178.531Z" fill="#282828"/>
<path d="M54.9834 226.744V238.363H53.3135V232.492H50.624V231.139H53.3135V226.744H54.9834ZM41.8701 234.531H43.7861V229.451H42.3096V228.098H50.7119V229.451H49.2178V234.329C49.9561 234.276 50.6768 234.215 51.3623 234.127L51.4678 235.34C48.3389 235.876 44.7266 235.938 42.0811 235.938L41.8701 234.531ZM44.7178 242.16V237.344H46.4053V240.807H55.3877V242.16H44.7178ZM45.4033 234.505C46.1152 234.487 46.8535 234.461 47.583 234.435V229.451H45.4033V234.505ZM63.2451 229.258C63.2451 231.218 64.7744 233.028 67.2002 233.74L66.3564 235.041C64.5195 234.479 63.1309 233.283 62.4102 231.736C61.707 233.397 60.3008 234.698 58.4111 235.322L57.5674 234.004C60.0195 233.257 61.5488 231.323 61.5576 229.258V229.082H58.0244V227.729H66.708V229.082H63.2451V229.258ZM60.1689 242.301V236.008H61.8037V237.766H68.8174V236.008H70.4697V242.301H60.1689ZM61.8037 240.947H68.8174V239.084H61.8037V240.947ZM68.7998 235.27V226.744H70.4697V235.27H68.7998ZM80.1377 227.008C83.6885 226.999 85.7539 227.957 85.7627 229.715C85.7539 231.481 83.6885 232.439 80.1377 232.439C76.5869 232.439 74.5039 231.481 74.5127 229.715C74.5039 227.957 76.5869 226.999 80.1377 227.008ZM72.9658 234.742V233.406H87.3271V234.742H72.9658ZM74.6885 237.203V235.955H85.5166V239.646H76.3408V241.053H85.9561V242.336H74.7061V238.434H83.8643V237.203H74.6885ZM76.2529 229.715C76.2441 230.69 77.6328 231.191 80.1377 231.191C82.6602 231.191 84.0488 230.69 84.04 229.715C84.0488 228.783 82.6602 228.238 80.1377 228.238C77.6328 228.238 76.2441 228.783 76.2529 229.715ZM101.231 227.729V234.654H93.7432V227.729H101.231ZM95.3779 233.318H99.5791V229.082H95.3779V233.318ZM95.6592 242.301V236.553H106.083V237.924H97.3291V240.947H106.399V242.301H95.6592ZM104.308 235.727V226.762H105.978V235.727H104.308ZM121.218 228.256V229.803C121.209 231.745 121.209 233.925 120.62 237.15L118.933 236.975C119.539 233.925 119.539 231.692 119.548 229.803V229.609H109.985V228.256H121.218ZM108.474 240.367V238.979H113.94V233.424H115.593V238.979H122.835V240.367H108.474ZM141.468 226.744V242.529H139.798V226.744H141.468ZM128.97 233.441C128.97 230.075 130.666 227.931 133.048 227.922C135.386 227.931 137.108 230.075 137.108 233.441C137.108 236.843 135.386 238.987 133.048 238.979C130.666 238.987 128.97 236.843 128.97 233.441ZM130.587 233.441C130.578 235.946 131.58 237.484 133.048 237.484C134.489 237.484 135.491 235.946 135.491 233.441C135.491 230.972 134.489 229.425 133.048 229.416C131.58 229.425 130.578 230.972 130.587 233.441ZM158.343 234.426V235.779H143.981V234.426H147.427V232.308C146.205 231.815 145.52 231.024 145.528 229.979C145.52 228.106 147.69 227.017 151.153 227.025C154.607 227.017 156.77 228.106 156.778 229.979C156.77 231.024 156.084 231.815 154.862 232.316V234.426H158.343ZM145.687 239.646C145.687 237.845 147.726 236.852 151.153 236.852C154.537 236.852 156.576 237.845 156.585 239.646C156.576 241.466 154.537 242.459 151.153 242.459C147.726 242.459 145.687 241.466 145.687 239.646ZM147.251 229.979C147.242 231.033 148.701 231.622 151.153 231.631C153.588 231.622 155.064 231.033 155.056 229.979C155.064 228.924 153.588 228.317 151.153 228.309C148.701 228.317 147.242 228.924 147.251 229.979ZM147.374 239.646C147.365 240.631 148.745 241.193 151.153 241.176C153.526 241.193 154.915 240.631 154.915 239.646C154.915 238.68 153.526 238.135 151.153 238.135C148.745 238.135 147.365 238.68 147.374 239.646ZM149.114 234.426H153.21V232.747C152.595 232.844 151.9 232.896 151.153 232.896C150.415 232.896 149.729 232.844 149.114 232.756V234.426ZM167.325 229.346V230.699H159.503V229.346H162.597V227.201H164.249V229.346H167.325ZM160.013 235.27C160.004 233.151 161.445 231.648 163.423 231.648C165.418 231.648 166.842 233.151 166.851 235.27C166.842 237.423 165.418 238.935 163.423 238.926C161.445 238.935 160.004 237.423 160.013 235.27ZM161.489 235.27C161.48 236.605 162.289 237.502 163.423 237.502C164.557 237.502 165.374 236.605 165.374 235.27C165.374 233.96 164.557 233.046 163.423 233.037C162.289 233.046 161.48 233.96 161.489 235.27ZM168.046 241.756V227.096H169.628V233.301H171.438V226.744H173.021V242.494H171.438V234.672H169.628V241.756H168.046ZM189.456 235.621V236.975H183.058V242.477H181.423V236.975H175.095V235.621H189.456ZM175.903 233.107C178.839 232.703 181.282 230.954 181.335 229.012H176.431V227.676H188.103V229.012H183.233C183.26 230.954 185.686 232.703 188.665 233.107L188.05 234.426C185.466 234.021 183.233 232.747 182.275 230.954C181.309 232.747 179.085 234.021 176.536 234.426L175.903 233.107ZM203.782 226.744V242.529H202.112V235.357H198.808V233.951H202.112V231.473H198.808V230.102H202.112V226.744H203.782ZM190.563 237.871C193.007 236.702 194.633 233.67 194.642 230.752V228.062H196.329V230.752C196.329 233.652 197.946 236.544 200.354 237.66L199.335 238.996C197.542 238.1 196.18 236.289 195.494 234.092C194.791 236.351 193.411 238.258 191.618 239.189L190.563 237.871ZM211.886 230.752C211.886 233.635 213.503 236.509 215.911 237.59L214.892 238.926C213.107 238.029 211.754 236.254 211.06 234.101C210.365 236.368 208.994 238.284 207.175 239.225L206.12 237.871C208.563 236.702 210.189 233.67 210.198 230.752V228.062H211.886V230.752ZM214.171 233.336V231.982H217.687V226.744H219.339V242.529H217.687V233.336H214.171ZM238.534 226.744V230.453H240.819V231.842H238.534V235.639H236.864V226.744H238.534ZM226.089 234.531C229.859 233.538 232.074 231.561 232.382 229.1H226.827V227.729H234.192C234.184 231.763 231.45 234.602 226.757 235.867L226.089 234.531ZM228.444 242.283V236.307H238.534V242.283H228.444ZM230.114 240.947H236.882V237.695H230.114V240.947ZM247.183 230.752C247.165 233.538 248.791 236.395 251.138 237.537L250.101 238.873C248.387 237.977 247.06 236.219 246.365 234.118C245.662 236.351 244.282 238.24 242.489 239.172L241.452 237.818C243.869 236.658 245.504 233.635 245.513 230.752V228.062H247.183V230.752ZM252.315 242.494V226.744H253.985V233.02H256.517V234.443H253.985V242.494H252.315ZM265.06 229.346V230.699H257.237V229.346H260.331V227.201H261.983V229.346H265.06ZM257.747 235.27C257.738 233.151 259.18 231.648 261.157 231.648C263.152 231.648 264.576 233.151 264.585 235.27C264.576 237.423 263.152 238.935 261.157 238.926C259.18 238.935 257.738 237.423 257.747 235.27ZM259.224 235.27C259.215 236.605 260.023 237.502 261.157 237.502C262.291 237.502 263.108 236.605 263.108 235.27C263.108 233.96 262.291 233.046 261.157 233.037C260.023 233.046 259.215 233.96 259.224 235.27ZM265.78 241.756V227.096H267.362V233.301H269.173V226.744H270.755V242.494H269.173V234.672H267.362V241.756H265.78ZM287.243 239.137V240.525H272.829V239.137H276.274V235.023C274.982 234.312 274.191 233.187 274.2 231.771C274.191 229.293 276.626 227.667 280.001 227.658C283.385 227.667 285.819 229.293 285.819 231.771C285.819 233.16 285.063 234.276 283.798 234.988V239.137H287.243ZM275.817 231.771C275.817 233.459 277.531 234.558 280.001 234.566C282.453 234.558 284.193 233.459 284.202 231.771C284.193 230.075 282.453 228.994 280.001 228.994C277.531 228.994 275.817 230.075 275.817 231.771ZM277.927 239.137H282.11V235.639C281.469 235.788 280.757 235.867 280.001 235.867C279.263 235.867 278.56 235.788 277.927 235.639V239.137ZM291.286 228.273L291.128 237.326H289.388L289.229 228.273H291.286ZM289.019 239.875C289.01 239.189 289.581 238.627 290.267 238.627C290.943 238.627 291.506 239.189 291.515 239.875C291.506 240.561 290.943 241.114 290.267 241.123C289.581 241.114 289.01 240.561 289.019 239.875ZM13.9824 255.744V267.434H12.3125V263.092H9.85156V261.686H12.3125V260.033H9.85156V258.662H12.3125V255.744H13.9824ZM0.869141 263.795C1.45801 263.795 2.1084 263.786 2.78516 263.786V258.328H1.30859V256.975H9.67578V258.328H8.16406V263.602C8.83203 263.549 9.47363 263.496 10.0977 263.426L10.168 264.656C7.15332 265.131 3.60254 265.192 1.08008 265.201L0.869141 263.795ZM3.7168 271.16V266.484H5.4043V269.807H14.3867V271.16H3.7168ZM4.40234 263.76C5.11426 263.742 5.83496 263.716 6.56445 263.689V258.328H4.40234V263.76ZM22.2441 258.258C22.2441 260.218 23.7734 262.028 26.1992 262.74L25.3555 264.041C23.5186 263.479 22.1299 262.283 21.4092 260.736C20.7061 262.397 19.2998 263.698 17.4102 264.322L16.5664 263.004C19.0186 262.257 20.5479 260.323 20.5566 258.258V258.082H17.0234V256.729H25.707V258.082H22.2441V258.258ZM19.168 271.301V265.008H20.8027V266.766H27.8164V265.008H29.4688V271.301H19.168ZM20.8027 269.947H27.8164V268.084H20.8027V269.947ZM27.7988 264.27V255.744H29.4688V264.27H27.7988ZM42.1953 259.031C42.1953 261.07 43.6982 262.986 46.1328 263.76L45.2715 265.061C43.4609 264.463 42.0986 263.224 41.3779 261.65C40.6748 263.364 39.2686 264.718 37.3965 265.377L36.5352 264.059C38.9873 263.224 40.499 261.185 40.5078 259.031V258.346H36.9746V256.992H45.6582V258.346H42.1953V259.031ZM39.1191 271.16V266.168H40.8066V269.807H49.8945V271.16H39.1191ZM47.75 267.258V255.762H49.4199V267.258H47.75ZM65.3457 255.744V265.676H63.7637V261.281H61.9355V265.131H60.3711V256.043H61.9355V259.91H63.7637V255.744H65.3457ZM51.8281 258.855V257.537H55.0098V255.867H56.6621V257.537H59.791V258.855H51.8281ZM52.4434 262.301C52.4434 260.666 53.8496 259.594 55.8184 259.594C57.8311 259.594 59.2285 260.666 59.2285 262.301C59.2285 263.936 57.8311 265.008 55.8184 265.008C53.8496 265.008 52.4434 263.936 52.4434 262.301ZM53.9375 262.301C53.9375 263.197 54.7021 263.786 55.8184 263.795C56.9521 263.786 57.7256 263.197 57.7168 262.301C57.7256 261.404 56.9521 260.815 55.8184 260.824C54.7021 260.815 53.9375 261.404 53.9375 262.301ZM54.7461 268.699C54.7285 266.915 56.7324 265.904 60.0723 265.904C63.4209 265.904 65.4248 266.915 65.4336 268.699C65.4248 270.466 63.4209 271.468 60.0723 271.459C56.7324 271.468 54.7285 270.466 54.7461 268.699ZM56.3984 268.699C56.3809 269.648 57.7344 270.193 60.0723 270.176C62.4189 270.193 63.7549 269.648 63.7637 268.699C63.7549 267.706 62.4189 267.179 60.0723 267.188C57.7344 267.179 56.3809 267.706 56.3984 268.699ZM72.9043 258.258C72.8955 260.323 74.3545 262.248 76.7012 263.021L75.8047 264.34C74.082 263.733 72.79 262.503 72.1045 260.947C71.4189 262.714 70.083 264.103 68.2461 264.779L67.3496 263.443C69.8105 262.573 71.2344 260.473 71.252 258.117V256.57H72.9043V258.258ZM69.4766 268.541C69.4766 266.695 71.4893 265.614 74.7676 265.623C78.002 265.614 79.9883 266.695 79.9883 268.541C79.9883 270.404 78.002 271.468 74.7676 271.459C71.4893 271.468 69.4766 270.404 69.4766 268.541ZM71.1465 268.541C71.1377 269.578 72.4912 270.141 74.7676 270.158C77.0264 270.141 78.3623 269.578 78.3535 268.541C78.3623 267.539 77.0264 266.941 74.7676 266.941C72.4912 266.941 71.1377 267.539 71.1465 268.541ZM78.1777 265.254V255.744H79.8477V259.699H82.1328V261.105H79.8477V265.254H78.1777ZM95.4219 255.762V260.402H97.6719V261.791H95.4219V266.414H93.752V255.762H95.4219ZM82.9238 264.48C84.1455 264.489 85.5605 264.489 87.0371 264.445V263.294C85.2266 263.109 84.1016 262.301 84.1191 261.088C84.1016 259.682 85.5781 258.847 87.8633 258.855C90.1309 258.847 91.5986 259.682 91.6074 261.088C91.5986 262.292 90.4912 263.101 88.707 263.294V264.375C90.1133 264.305 91.5371 264.19 92.8555 264.006L92.9961 265.166C89.6211 265.746 85.8945 265.799 83.0996 265.799L82.9238 264.48ZM83.3281 258.275V257.027H87.0371V255.621H88.707V257.027H92.416V258.275H83.3281ZM85.0156 269.051C85.0156 267.46 86.9316 266.581 90.2715 266.59C93.585 266.581 95.5098 267.46 95.5273 269.051C95.5098 270.633 93.585 271.485 90.2715 271.494C86.9316 271.485 85.0156 270.633 85.0156 269.051ZM85.7012 261.088C85.7012 261.8 86.5186 262.213 87.8633 262.213C89.1904 262.213 90.0166 261.8 90.0078 261.088C90.0166 260.402 89.1904 259.98 87.8633 259.98C86.5186 259.98 85.7012 260.402 85.7012 261.088ZM86.7031 269.051C86.6855 269.815 87.9248 270.255 90.2715 270.246C92.5918 270.255 93.8223 269.815 93.8223 269.051C93.8223 268.251 92.5918 267.812 90.2715 267.82C87.9248 267.812 86.6855 268.251 86.7031 269.051ZM112.947 263.971V265.307H98.5859V263.971H112.947ZM100.133 259.418C100.124 257.44 102.33 256.263 105.758 256.271C109.168 256.263 111.374 257.44 111.383 259.418C111.374 261.404 109.168 262.608 105.758 262.617C102.33 262.608 100.124 261.404 100.133 259.418ZM100.396 271.16V266.59H102.084V269.807H111.33V271.16H100.396ZM101.855 259.418C101.847 260.587 103.341 261.246 105.758 261.246C108.166 261.246 109.669 260.587 109.66 259.418C109.669 258.293 108.166 257.607 105.758 257.607C103.341 257.607 101.847 258.293 101.855 259.418ZM126.5 257.309V267.539H119.135V257.309H126.5ZM120.77 266.186H124.848V258.627H120.77V266.186ZM129.137 271.494V255.744H130.807V261.914H133.338V263.32H130.807V271.494H129.137ZM147.137 255.744V271.529H145.467V255.744H147.137ZM134.639 262.441C134.639 259.075 136.335 256.931 138.717 256.922C141.055 256.931 142.777 259.075 142.777 262.441C142.777 265.843 141.055 267.987 138.717 267.979C136.335 267.987 134.639 265.843 134.639 262.441ZM136.256 262.441C136.247 264.946 137.249 266.484 138.717 266.484C140.158 266.484 141.16 264.946 141.16 262.441C141.16 259.972 140.158 258.425 138.717 258.416C137.249 258.425 136.247 259.972 136.256 262.441ZM163.273 255.744V271.494H161.674V255.744H163.273ZM149.475 266.291C149.932 266.291 150.459 266.291 151.021 266.282V259.049H149.809V257.678H157.033V259.049H155.82V266.089C156.356 266.045 156.875 265.983 157.35 265.922L157.473 267.135C154.977 267.627 151.707 267.697 149.668 267.697L149.475 266.291ZM152.533 266.256C153.104 266.247 153.693 266.221 154.273 266.194V259.049H152.533V266.256ZM156.611 263.145V261.65H158.58V256.096H160.162V270.686H158.58V263.145H156.611ZM178.25 255.744V271.529H176.58V255.744H178.25ZM165.752 262.441C165.752 259.075 167.448 256.931 169.83 256.922C172.168 256.931 173.891 259.075 173.891 262.441C173.891 265.843 172.168 267.987 169.83 267.979C167.448 267.987 165.752 265.843 165.752 262.441ZM167.369 262.441C167.36 264.946 168.362 266.484 169.83 266.484C171.271 266.484 172.273 264.946 172.273 262.441C172.273 259.972 171.271 258.425 169.83 258.416C168.362 258.425 167.36 259.972 167.369 262.441ZM186.564 260.385C186.556 263.021 188.287 265.746 190.713 266.783L189.799 268.084C187.944 267.267 186.468 265.526 185.738 263.426C185.009 265.676 183.532 267.592 181.695 268.488L180.729 267.17C183.102 266.054 184.859 263.101 184.877 260.385V258.715H181.273V257.326H190.15V258.715H186.564V260.385ZM192.137 271.494V255.744H193.807V271.494H192.137ZM209.873 255.744V271.494H208.273V255.744H209.873ZM196.496 262.547C196.496 259.137 197.832 257.001 199.889 257.01C201.805 257.001 203.097 258.82 203.29 261.773H205.074V256.043H206.674V270.721H205.074V263.127H203.299C203.149 266.203 201.84 268.11 199.889 268.102C197.832 268.11 196.496 265.966 196.496 262.547ZM198.043 262.547C198.043 265.052 198.755 266.528 199.889 266.52C201.049 266.528 201.77 265.052 201.77 262.547C201.77 260.033 201.049 258.565 199.889 258.574C198.755 258.565 198.043 260.033 198.043 262.547ZM217.555 259.752C217.555 262.635 219.172 265.509 221.58 266.59L220.561 267.926C218.776 267.029 217.423 265.254 216.729 263.101C216.034 265.368 214.663 267.284 212.844 268.225L211.789 266.871C214.232 265.702 215.858 262.67 215.867 259.752V257.062H217.555V259.752ZM219.84 262.336V260.982H223.355V255.744H225.008V271.529H223.355V262.336H219.84ZM244.221 255.762V260.438H246.471V261.809H244.221V266.361H242.551V255.762H244.221ZM231.723 264.604C232.944 264.604 234.359 264.604 235.836 264.568V263.505C234.043 263.303 232.9 262.459 232.918 261.193C232.9 259.752 234.403 258.855 236.662 258.873C238.921 258.855 240.397 259.752 240.406 261.193C240.397 262.45 239.281 263.294 237.506 263.505V264.507C238.912 264.437 240.336 264.322 241.654 264.129L241.795 265.324C238.411 265.913 234.676 265.939 231.898 265.939L231.723 264.604ZM232.127 258.346V257.098H235.836V255.621H237.506V257.098H241.215V258.346H232.127ZM233.691 268.4V267.1H244.221V271.494H242.551V268.4H233.691ZM234.5 261.193C234.5 261.932 235.317 262.415 236.662 262.406C237.989 262.415 238.815 261.932 238.807 261.193C238.815 260.438 237.989 259.998 236.662 260.016C235.317 259.998 234.5 260.438 234.5 261.193ZM260.445 255.762V267.205H258.775V255.762H260.445ZM247.701 260.719C247.71 258.442 249.521 256.825 251.902 256.816C254.275 256.825 256.086 258.442 256.086 260.719C256.086 263.03 254.275 264.639 251.902 264.639C249.521 264.639 247.71 263.03 247.701 260.719ZM249.336 260.719C249.327 262.204 250.435 263.18 251.902 263.18C253.344 263.18 254.451 262.204 254.451 260.719C254.451 259.269 253.344 258.275 251.902 258.275C250.435 258.275 249.327 259.269 249.336 260.719ZM250.145 271.16V266.045H251.832V269.807H260.92V271.16H250.145ZM279.605 255.744V262.02H282.049V263.408H279.605V271.477H277.936V255.744H279.605ZM267.354 267.275C271.3 265.307 273.444 262.459 273.787 258.785H268.145V257.396H275.492C275.475 261.949 273.471 266.019 268.285 268.576L267.354 267.275ZM295.619 259.998V261.352H284.809V256.025H286.461V259.998H295.619ZM282.893 264.393V263.021H297.271V264.393H282.893ZM284.598 268.541C284.598 266.704 286.646 265.667 290.064 265.676C293.457 265.667 295.487 266.704 295.496 268.541C295.487 270.387 293.457 271.424 290.064 271.424C286.646 271.424 284.598 270.387 284.598 268.541ZM286.285 268.541C286.276 269.552 287.656 270.132 290.064 270.141C292.438 270.132 293.826 269.552 293.826 268.541C293.826 267.521 292.438 266.985 290.064 266.977C287.656 266.985 286.276 267.521 286.285 268.541ZM306.236 258.346V259.699H298.414V258.346H301.508V256.201H303.16V258.346H306.236ZM298.924 264.27C298.915 262.151 300.356 260.648 302.334 260.648C304.329 260.648 305.753 262.151 305.762 264.27C305.753 266.423 304.329 267.935 302.334 267.926C300.356 267.935 298.915 266.423 298.924 264.27ZM300.4 264.27C300.392 265.605 301.2 266.502 302.334 266.502C303.468 266.502 304.285 265.605 304.285 264.27C304.285 262.96 303.468 262.046 302.334 262.037C301.2 262.046 300.392 262.96 300.4 264.27ZM306.957 270.756V256.096H308.539V262.301H310.35V255.744H311.932V271.494H310.35V263.672H308.539V270.756H306.957ZM328.42 268.137V269.525H314.006V268.137H317.451V264.023C316.159 263.312 315.368 262.187 315.377 260.771C315.368 258.293 317.803 256.667 321.178 256.658C324.562 256.667 326.996 258.293 326.996 260.771C326.996 262.16 326.24 263.276 324.975 263.988V268.137H328.42ZM316.994 260.771C316.994 262.459 318.708 263.558 321.178 263.566C323.63 263.558 325.37 262.459 325.379 260.771C325.37 259.075 323.63 257.994 321.178 257.994C318.708 257.994 316.994 259.075 316.994 260.771ZM319.104 268.137H323.287V264.639C322.646 264.788 321.934 264.867 321.178 264.867C320.439 264.867 319.736 264.788 319.104 264.639V268.137ZM331.355 270.123C330.67 270.114 330.099 269.561 330.107 268.875C330.099 268.189 330.67 267.627 331.355 267.627C332.032 267.627 332.595 268.189 332.604 268.875C332.595 269.561 332.032 270.114 331.355 270.123Z" fill="#282828"/>
<defs>
<clipPath id="clip0_100_316">
<rect width="108.181" height="75.0641" fill="white" transform="translate(98 14.123) rotate(-7.50118)"/>
</clipPath>
<clipPath id="clip1_100_316">
<rect width="108.181" height="75.0641" fill="white" transform="translate(129.238 26.8926) rotate(9.52248)"/>
</clipPath>
</defs>
</svg>
