<svg width="234" height="68" viewBox="0 0 234 68" fill="none" xmlns="http://www.w3.org/2000/svg">
<rect x="1" y="1" width="232" height="66" rx="15" fill="#F8F8FA" stroke="#DEDFE6" stroke-width="2"/>
<path d="M88.125 28.3438V38.5938H86.6406V28.3438H88.125ZM76.5938 35.4375C78.7891 34.625 80.0859 32.6094 80.0938 30.5V29.1094H81.6094V30.5C81.6016 32.5469 82.8984 34.4219 85.0625 35.1719L84.2969 36.3594C82.6797 35.7578 81.4844 34.5703 80.8594 33.0547C80.2422 34.6797 79.0312 35.9766 77.3906 36.6094L76.5938 35.4375ZM78.9688 42.0312V37.625H80.4688V40.8281H88.5469V42.0312H78.9688ZM103.109 35.1562V36.3594H90.3438V35.1562H93.4062V33.2734C92.3203 32.8359 91.7109 32.1328 91.7188 31.2031C91.7109 29.5391 93.6406 28.5703 96.7188 28.5781C99.7891 28.5703 101.711 29.5391 101.719 31.2031C101.711 32.1328 101.102 32.8359 100.016 33.2812V35.1562H103.109ZM91.8594 39.7969C91.8594 38.1953 93.6719 37.3125 96.7188 37.3125C99.7266 37.3125 101.539 38.1953 101.547 39.7969C101.539 41.4141 99.7266 42.2969 96.7188 42.2969C93.6719 42.2969 91.8594 41.4141 91.8594 39.7969ZM93.25 31.2031C93.2422 32.1406 94.5391 32.6641 96.7188 32.6719C98.8828 32.6641 100.195 32.1406 100.188 31.2031C100.195 30.2656 98.8828 29.7266 96.7188 29.7188C94.5391 29.7266 93.2422 30.2656 93.25 31.2031ZM93.3594 39.7969C93.3516 40.6719 94.5781 41.1719 96.7188 41.1562C98.8281 41.1719 100.062 40.6719 100.062 39.7969C100.062 38.9375 98.8281 38.4531 96.7188 38.4531C94.5781 38.4531 93.3516 38.9375 93.3594 39.7969ZM94.9062 35.1562H98.5469V33.6641C98 33.75 97.3828 33.7969 96.7188 33.7969C96.0625 33.7969 95.4531 33.75 94.9062 33.6719V35.1562ZM111.453 29.75C111.438 33.8828 110.172 37.5469 105.062 40.0625L104.25 38.9531C106.781 37.7109 108.289 36.2031 109.117 34.4297L104.547 34.8594L104.328 33.5781L109.578 33.2266C109.789 32.5078 109.906 31.75 109.961 30.9531H105.062V29.75H111.453ZM113.594 42.3125V28.3281H115.078V33.9219H117.25V35.1406H115.078V42.3125H113.594ZM129.344 34.9688V36.1875H119.594V29.5781H129.219V30.7969H121.062V34.9688H129.344ZM118 40.4844V39.25H130.812V40.4844H118Z" fill="#606067"/>
<path d="M34 49.75C42.6985 49.75 49.75 42.6985 49.75 34C49.75 25.3015 42.6985 18.25 34 18.25C25.3015 18.25 18.25 25.3015 18.25 34C18.25 42.6985 25.3015 49.75 34 49.75Z" fill="#DEDFE6" stroke="#DEDFE6" stroke-width="1.91" stroke-miterlimit="10"/>
<path d="M26 34.5L31.3333 40L42 29" stroke="#F8F8FA" stroke-width="3" stroke-miterlimit="10" stroke-linecap="round" stroke-linejoin="round"/>
</svg>
