<svg width="209" height="128" viewBox="0 0 209 128" fill="none" xmlns="http://www.w3.org/2000/svg">
<path d="M91.0273 86.7461C93.625 86.7559 95.4902 88.2109 95.5 90.3594C95.4902 92.0977 94.2207 93.4258 92.3164 93.8359V95.1348C93.7129 95.0469 95.0996 94.9199 96.3984 94.7344L96.5938 96.5508C92.9316 97.1953 88.8594 97.2832 85.8906 97.2734L85.6367 95.3008C86.8672 95.3008 88.3027 95.291 89.8164 95.252V93.8555C87.8535 93.4648 86.5449 92.127 86.5547 90.3594C86.5449 88.2109 88.4102 86.7559 91.0273 86.7461ZM87.9805 103.465V98.4062H90.4805V101.473H100.5V103.465H87.9805ZM88.8789 90.3594C88.8594 91.4434 89.7676 92.0684 91.0273 92.0781C92.3066 92.0684 93.1562 91.4434 93.1562 90.3594C93.1562 89.2461 92.2969 88.6406 91.0273 88.6211C89.7676 88.6406 88.8594 89.2461 88.8789 90.3594ZM97.3945 99.5977V86.043H99.8945V91.6289H102.16V93.6992H99.8945V99.5977H97.3945ZM119.23 99.7734V101.824H102.961V99.7734H107.121V97.0586H104.836V91.082H114.895V89.168H104.816V87.1758H117.355V93.0742H107.336V95.0469H117.766V97.0586H115.246V99.7734H119.23ZM109.543 99.7734H112.805V97.0586H109.543V99.7734ZM124.289 87.8594L124.035 97.7617H121.535L121.281 87.8594H124.289ZM121.164 100.535C121.145 99.6367 121.887 98.9043 122.805 98.9141C123.674 98.9043 124.426 99.6367 124.426 100.535C124.426 101.443 123.674 102.176 122.805 102.176C121.887 102.176 121.145 101.443 121.164 100.535Z" fill="#FF5D47"/>
<path d="M105.267 28.863L98.2122 21.9408C97.0948 20.841 95.5612 20.1941 93.9619 20.1941L73.3676 20H71.6807C69.6432 20 68 21.6173 68 23.6228V70.0943C68 70.5903 68.4163 71 68.9202 71H140.08C140.584 71 141 70.5903 141 70.0943V34.4051C141 31.4939 138.59 29.1218 135.632 29.1218H105.902C105.661 29.1218 105.42 29.0355 105.245 28.863H105.267Z" fill="#FF5D47"/>
<path d="M97 47C101 47 101 41 97 41C93 41 93 47 97 47Z" fill="white"/>
<path d="M111 47C115 47 115 41 111 41C107 41 107 47 111 47Z" fill="white"/>
<path d="M90.5995 53.5423C97.1269 60.836 109.961 60.836 116.378 53.4413C117.128 52.5927 117.283 51.4209 116.378 50.5925C115.607 49.8854 113.997 49.7237 113.269 50.5925C110.865 53.3605 107.558 55.0172 103.632 55.0374C99.707 55.0576 96.2007 53.4413 93.7309 50.6935C92.9811 49.845 91.3934 49.9662 90.6216 50.6935C89.7174 51.5219 89.8718 52.7139 90.6216 53.5423H90.5995Z" fill="white"/>
<path d="M186.061 65.0607C186.646 64.4749 186.646 63.5251 186.061 62.9393L176.515 53.3934C175.929 52.8076 174.979 52.8076 174.393 53.3934C173.808 53.9792 173.808 54.9289 174.393 55.5147L182.879 64L174.393 72.4853C173.808 73.0711 173.808 74.0208 174.393 74.6066C174.979 75.1924 175.929 75.1924 176.515 74.6066L186.061 65.0607ZM183 65.5L185 65.5L185 62.5L183 62.5L183 65.5Z" fill="#282828" fill-opacity="0.6"/>
</svg>
