<svg width="100" height="26" viewBox="0 0 100 26" fill="none" xmlns="http://www.w3.org/2000/svg">
<path d="M12.75 6.21875V14H10.7656V11.0312H8.51562V9.40625H10.7656V6.21875H12.75ZM0.6875 12.6875C2.92969 11.9375 4 10.2188 4.10156 8.48438H1.25V6.85938H8.96875V8.48438H6.14844C6.23438 10.0703 7.25781 11.7109 9.40625 12.4219L8.42188 13.9531C6.85156 13.4375 5.76562 12.4141 5.14844 11.1406C4.51562 12.5625 3.38281 13.7031 1.70312 14.25L0.6875 12.6875ZM3.26562 20.2812V14.5469H5.23438V15.8906H10.7656V14.5469H12.75V20.2812H3.26562ZM5.23438 18.6875H10.7656V17.4219H5.23438V18.6875ZM18.5156 7.21875C20.4375 7.21875 21.875 8.79688 22.1562 11.3594H24.625V6.21875H26.5938V20.4688H24.625V12.9531H22.1797C21.9688 15.6875 20.5 17.3594 18.5156 17.3594C16.3594 17.3594 14.8125 15.4062 14.8281 12.2812C14.8125 9.17969 16.3594 7.21875 18.5156 7.21875ZM16.7344 12.2812C16.7266 14.3984 17.4531 15.5547 18.5156 15.5469C19.5859 15.5547 20.2969 14.3984 20.2969 12.2812C20.2969 10.1719 19.5859 9.01562 18.5156 9.01562C17.4531 9.01562 16.7266 10.1719 16.7344 12.2812ZM39.8906 11.2812V12.8438H30.0625V6.96875H39.75V8.5625H32.1094V11.2812H39.8906ZM28.4062 15.8594V14.2812H41.4219V15.8594H35.8594V20.4219H33.8906V15.8594H28.4062ZM54.2031 6.21875V20.4375H52.1875V6.21875H54.2031ZM42.2969 16.4062C45.9688 14.6719 47.5859 12.4219 47.9062 9.26562H43.0625V7.70312H49.9375C49.9297 12.0156 48.4219 15.6016 43.3438 18L42.2969 16.4062Z" fill="#AEAFB9"/>
<path d="M86.2941 6.55198L83.5882 3.86933C83.1597 3.44312 82.5714 3.1924 81.958 3.1924L74.0588 3.11719H73.4118C72.6303 3.11719 72 3.74398 72 4.52119V22.5309C72 22.7231 72.1597 22.8819 72.3529 22.8819H99.6471C99.8403 22.8819 100 22.7231 100 22.5309V8.69978C100 7.57156 99.0756 6.65227 97.9412 6.65227H86.5378C86.4454 6.65227 86.3529 6.61884 86.2857 6.55198H86.2941Z" fill="#AEAFB9"/>
<path d="M83.1181 13.8241C84.7652 13.8241 84.7652 11.3535 83.1181 11.3535C81.471 11.3535 81.471 13.8241 83.1181 13.8241Z" fill="white"/>
<path d="M88.0585 13.8241C89.7056 13.8241 89.7056 11.3535 88.0585 11.3535C86.4115 11.3535 86.4115 13.8241 88.0585 13.8241Z" fill="white"/>
<path d="M80.4736 15.943C83.0618 18.6126 88.1508 18.6126 90.6953 15.906C90.9926 15.5955 91.0538 15.1665 90.6953 14.8634C90.3892 14.6045 89.7509 14.5454 89.4624 14.8634C88.5093 15.8765 87.1977 16.4828 85.6412 16.4902C84.0848 16.4976 82.6945 15.906 81.7152 14.9003C81.4179 14.5897 80.7883 14.6341 80.4823 14.9003C80.1238 15.2035 80.185 15.6398 80.4823 15.943H80.4736Z" fill="white"/>
</svg>
