<svg width="184" height="28" viewBox="0 0 184 28" fill="none" xmlns="http://www.w3.org/2000/svg">
<rect x="105" y="5" width="18" height="17" fill="#606067"/>
<path d="M2.84375 20H0.3125L4.23438 8.6875H7.25L11.1562 20H8.64062L7.78906 17.3906H3.69531L2.84375 20ZM4.28906 15.5625H7.19531L5.78125 11.2344H5.70312L4.28906 15.5625Z" fill="#606067"/>
<path d="M162.981 11.2656V12.2969C162.981 13.543 162.981 14.8911 162.627 16.9482L161.585 16.8516C161.972 14.9233 161.972 13.5107 161.972 12.2969V12.1035H156.3V11.2656H162.981ZM155.354 18.5488V17.7002H164.131V18.5488H155.354ZM172.843 10.2988V16.0029H171.822V10.2988H172.843ZM165.345 11.6846V10.8682H169.771V13.5752H166.365V14.7354C168.052 14.7354 169.282 14.687 170.748 14.4453L170.877 15.2832C169.303 15.5249 167.993 15.5786 166.172 15.5732H165.366V12.7803H168.761V11.6846H165.345ZM166.516 19.7949V16.4863H172.843V19.7949H166.516ZM167.525 18.9678H171.844V17.3027H167.525V18.9678ZM177.72 13.124C177.714 14.644 178.719 16.3413 180.18 17.0342L179.6 17.8291C178.52 17.3135 177.661 16.2285 177.226 14.9717C176.785 16.3413 175.883 17.5283 174.787 18.0762L174.186 17.2705C175.646 16.5669 176.705 14.7515 176.71 13.124V12.1035H174.54V11.2549H179.814V12.1035H177.72V13.124ZM180.846 19.9131V10.2881H181.866V14.1016H183.413V14.9609H181.866V19.9131H180.846Z" fill="black"/>
<path d="M56.4751 19H54.7612L58.5698 8.39453H60.4302L64.2534 19H62.5396L61.5728 16.2021H57.4419L56.4751 19ZM57.9033 14.8545H61.104L59.5366 10.3281H59.4634L57.9033 14.8545Z" fill="white"/>
<path d="M56.4751 19V20C56.9015 20 57.281 19.7296 57.4203 19.3266L56.4751 19ZM54.7612 19L53.8201 18.662C53.7101 18.9684 53.756 19.3091 53.9433 19.5753C54.1306 19.8416 54.4357 20 54.7612 20V19ZM58.5698 8.39453V7.39453C58.1479 7.39453 57.7713 7.65941 57.6287 8.05655L58.5698 8.39453ZM60.4302 8.39453L61.3709 8.0554C61.228 7.65885 60.8517 7.39453 60.4302 7.39453V8.39453ZM64.2534 19V20C64.5791 20 64.8845 19.8414 65.0717 19.5748C65.2589 19.3083 65.3046 18.9673 65.1942 18.6609L64.2534 19ZM62.5396 19L61.5944 19.3266C61.7337 19.7296 62.1131 20 62.5396 20V19ZM61.5728 16.2021L62.5179 15.8755C62.3787 15.4725 61.9992 15.2021 61.5728 15.2021V16.2021ZM57.4419 16.2021V15.2021C57.0155 15.2021 56.636 15.4725 56.4967 15.8755L57.4419 16.2021ZM57.9033 14.8545L56.9579 14.5286C56.8526 14.8342 56.9015 15.1719 57.0891 15.4351C57.2768 15.6983 57.5801 15.8545 57.9033 15.8545V14.8545ZM61.104 14.8545V15.8545C61.4275 15.8545 61.731 15.698 61.9186 15.4345C62.1062 15.171 62.1548 14.833 62.049 14.5273L61.104 14.8545ZM59.5366 10.3281L60.4816 10.0009C60.3421 9.59821 59.9628 9.32812 59.5366 9.32812V10.3281ZM59.4634 10.3281V9.32812C59.0367 9.32812 58.657 9.59887 58.518 10.0023L59.4634 10.3281ZM56.4751 18H54.7612V20H56.4751V18ZM55.7024 19.338L59.511 8.73251L57.6287 8.05655L53.8201 18.662L55.7024 19.338ZM58.5698 9.39453H60.4302V7.39453H58.5698V9.39453ZM59.4894 8.73366L63.3127 19.3391L65.1942 18.6609L61.3709 8.0554L59.4894 8.73366ZM64.2534 18H62.5396V20H64.2534V18ZM63.4847 18.6734L62.5179 15.8755L60.6276 16.5287L61.5944 19.3266L63.4847 18.6734ZM61.5728 15.2021H57.4419V17.2021H61.5728V15.2021ZM56.4967 15.8755L55.5299 18.6734L57.4203 19.3266L58.3871 16.5287L56.4967 15.8755ZM57.9033 15.8545H61.104V13.8545H57.9033V15.8545ZM62.049 14.5273L60.4816 10.0009L58.5917 10.6553L60.1591 15.1817L62.049 14.5273ZM59.5366 9.32812H59.4634V11.3281H59.5366V9.32812ZM58.518 10.0023L56.9579 14.5286L58.8487 15.1803L60.4088 10.654L58.518 10.0023Z" fill="#606067"/>
<rect x="105" y="5" width="18" height="17" fill="#606067"/>
<path d="M110.844 19H108.312L112.234 7.6875H115.25L119.156 19H116.641L115.789 16.3906H111.695L110.844 19ZM112.289 14.5625H115.195L113.781 10.2344H113.703L112.289 14.5625Z" fill="white"/>
<rect x="52" y="2" width="14" height="26" fill="white"/>
<path d="M55.9751 19H54.2612L58.0698 8.39453H59.9302L63.7534 19H62.0396L61.0728 16.2021H56.9419L55.9751 19ZM57.4033 14.8545H60.604L59.0366 10.3281H58.9634L57.4033 14.8545Z" fill="#606067"/>
<path d="M55.9751 19V20C56.4015 20 56.781 19.7296 56.9203 19.3266L55.9751 19ZM54.2612 19L53.3201 18.662C53.2101 18.9684 53.256 19.3091 53.4433 19.5753C53.6306 19.8416 53.9357 20 54.2612 20V19ZM58.0698 8.39453V7.39453C57.6479 7.39453 57.2713 7.65941 57.1287 8.05655L58.0698 8.39453ZM59.9302 8.39453L60.8709 8.0554C60.728 7.65885 60.3517 7.39453 59.9302 7.39453V8.39453ZM63.7534 19V20C64.0791 20 64.3845 19.8414 64.5717 19.5748C64.7589 19.3083 64.8046 18.9673 64.6942 18.6609L63.7534 19ZM62.0396 19L61.0944 19.3266C61.2337 19.7296 61.6131 20 62.0396 20V19ZM61.0728 16.2021L62.0179 15.8755C61.8787 15.4725 61.4992 15.2021 61.0728 15.2021V16.2021ZM56.9419 16.2021V15.2021C56.5155 15.2021 56.136 15.4725 55.9967 15.8755L56.9419 16.2021ZM57.4033 14.8545L56.4579 14.5286C56.3526 14.8342 56.4015 15.1719 56.5891 15.4351C56.7768 15.6983 57.0801 15.8545 57.4033 15.8545V14.8545ZM60.604 14.8545V15.8545C60.9275 15.8545 61.231 15.698 61.4186 15.4345C61.6062 15.171 61.6548 14.833 61.549 14.5273L60.604 14.8545ZM59.0366 10.3281L59.9816 10.0009C59.8421 9.59821 59.4628 9.32812 59.0366 9.32812V10.3281ZM58.9634 10.3281V9.32812C58.5367 9.32812 58.157 9.59887 58.018 10.0023L58.9634 10.3281ZM55.9751 18H54.2612V20H55.9751V18ZM55.2024 19.338L59.011 8.73251L57.1287 8.05655L53.3201 18.662L55.2024 19.338ZM58.0698 9.39453H59.9302V7.39453H58.0698V9.39453ZM58.9894 8.73366L62.8127 19.3391L64.6942 18.6609L60.8709 8.0554L58.9894 8.73366ZM63.7534 18H62.0396V20H63.7534V18ZM62.9847 18.6734L62.0179 15.8755L60.1276 16.5287L61.0944 19.3266L62.9847 18.6734ZM61.0728 15.2021H56.9419V17.2021H61.0728V15.2021ZM55.9967 15.8755L55.0299 18.6734L56.9203 19.3266L57.8871 16.5287L55.9967 15.8755ZM57.4033 15.8545H60.604V13.8545H57.4033V15.8545ZM61.549 14.5273L59.9816 10.0009L58.0917 10.6553L59.6591 15.1817L61.549 14.5273ZM59.0366 9.32812H58.9634V11.3281H59.0366V9.32812ZM58.018 10.0023L56.4579 14.5286L58.3487 15.1803L59.9088 10.654L58.018 10.0023Z" fill="#606067"/>
<path d="M55.9751 19H54.2612L58.0698 8.39453H59.9302L63.7534 19H62.0396L61.0728 16.2021H56.9419L55.9751 19ZM57.4033 14.8545H60.604L59.0366 10.3281H58.9634L57.4033 14.8545Z" fill="white"/>
</svg>
