<svg width="209" height="128" viewBox="0 0 209 128" fill="none" xmlns="http://www.w3.org/2000/svg">
<path d="M74.0332 86.0234V92.625H76.6504V94.6562H74.0332V103.836H71.5332V86.0234H74.0332ZM60.7129 99.5195V87.6641H69.0527V89.6758H63.1934V97.4688C65.7715 97.4492 67.9004 97.3125 70.2637 96.9023L70.5371 98.9922C67.7734 99.4609 65.3516 99.5293 62.2168 99.5195H60.7129ZM85.4004 86.3555C89.3555 86.3457 91.8555 87.6641 91.8652 89.832C91.8555 91.9902 89.3555 93.2793 85.4004 93.2695C81.4648 93.2793 78.916 91.9902 78.916 89.832C78.916 87.6641 81.4648 86.3457 85.4004 86.3555ZM77.2949 96.2969V94.3047H93.5059V96.2969H77.2949ZM79.1699 103.602V97.5469H91.5723V103.602H79.1699ZM81.5137 89.832C81.4941 90.8281 82.9102 91.3359 85.4004 91.3359C87.8516 91.3359 89.2871 90.8281 89.2871 89.832C89.2871 88.8066 87.8516 88.2891 85.4004 88.2891C82.9102 88.2891 81.4941 88.8066 81.5137 89.832ZM81.6309 101.609H89.1309V99.5195H81.6309V101.609ZM113.291 86.0234V90.8672H115.693V92.918H113.291V98.875H110.791V86.0234H113.291ZM99.873 95.9453V87.4492H107.9V89.4414H102.373V93.9336C105.596 93.9141 107.363 93.8066 109.346 93.3867L109.6 95.3789C107.363 95.8379 105.312 95.9453 101.377 95.9453H99.873ZM101.768 103.484V97.5078H104.248V101.492H113.936V103.484H101.768ZM131.885 86.0234V103.797H129.541V86.0234H131.885ZM116.201 98.3477C119.805 96.2188 121.387 93.6309 121.729 90.1445H117.236V88.1328H124.209C124.209 89.0215 124.15 89.8809 124.043 90.7109H125.811V86.4141H128.174V103.016H125.811V97.1562H123.291V95.1445H125.811V92.7227H123.633C122.803 95.6621 120.986 98.1328 117.666 100.105L116.201 98.3477ZM150.029 99.7734V101.824H133.76V99.7734H140.615V97.0977H135.635V91.1211H145.693V89.168H135.615V87.1758H148.154V93.0742H138.135V95.0664H148.564V97.0977H143.096V99.7734H150.029Z" fill="#FF5D47"/>
<path d="M105.267 28.863L98.2122 21.9408C97.0948 20.841 95.5612 20.1941 93.9619 20.1941L73.3676 20H71.6807C69.6432 20 68 21.6173 68 23.6228V70.0943C68 70.5903 68.4163 71 68.9202 71H140.08C140.584 71 141 70.5903 141 70.0943V34.4051C141 31.4939 138.59 29.1218 135.632 29.1218H105.902C105.661 29.1218 105.42 29.0355 105.245 28.863H105.267Z" fill="#FF5D47"/>
<path d="M97 47C101 47 101 41 97 41C93 41 93 47 97 47Z" fill="white"/>
<path d="M111 47C115 47 115 41 111 41C107 41 107 47 111 47Z" fill="white"/>
<path d="M90.5995 53.5423C97.1269 60.836 109.961 60.836 116.378 53.4413C117.128 52.5927 117.283 51.4209 116.378 50.5925C115.607 49.8854 113.997 49.7237 113.269 50.5925C110.865 53.3605 107.558 55.0172 103.632 55.0374C99.707 55.0576 96.2007 53.4413 93.7309 50.6935C92.9811 49.845 91.3934 49.9662 90.6216 50.6935C89.7174 51.5219 89.8718 52.7139 90.6216 53.5423H90.5995Z" fill="white"/>
<path d="M186.061 65.0607C186.646 64.4749 186.646 63.5251 186.061 62.9393L176.515 53.3934C175.929 52.8076 174.979 52.8076 174.393 53.3934C173.808 53.9792 173.808 54.9289 174.393 55.5147L182.879 64L174.393 72.4853C173.808 73.0711 173.808 74.0208 174.393 74.6066C174.979 75.1924 175.929 75.1924 176.515 74.6066L186.061 65.0607ZM183 65.5L185 65.5L185 62.5L183 62.5L183 65.5Z" fill="#282828" fill-opacity="0.6"/>
</svg>
