<svg width="209" height="128" viewBox="0 0 209 128" fill="none" xmlns="http://www.w3.org/2000/svg">
<path d="M81.8926 86.0234V103.836H79.373V86.0234H81.8926ZM67.5371 93.6016C67.5273 89.7246 69.5098 87.2734 72.2441 87.2734C74.9199 87.2734 76.9121 89.7246 76.9121 93.6016C76.9121 97.5078 74.9199 99.9492 72.2441 99.9492C69.5098 99.9492 67.5273 97.5078 67.5371 93.6016ZM69.9395 93.6016C69.9297 96.248 70.8574 97.6934 72.2441 97.6836C73.5918 97.6934 74.5 96.248 74.5098 93.6016C74.5 90.9648 73.5918 89.5195 72.2441 89.5195C70.8574 89.5195 69.9297 90.9648 69.9395 93.6016ZM99.2754 86.043V99.0117H96.7949V92.6445H93.8848V90.6328H96.7949V86.043H99.2754ZM84.1973 95.0078C87.1367 94.0898 88.4648 91.7754 88.4746 89.5V89.2266H84.9004V87.2344H94.5488V89.2266H91.0137V89.5195C91.0039 91.5801 92.2734 93.7773 95.0957 94.6953L93.8652 96.668C91.9023 96.0234 90.5449 94.7344 89.7734 93.1426C88.9824 94.9102 87.5664 96.3457 85.4668 97.0391L84.1973 95.0078ZM87.4785 103.484V97.8789H89.9785V101.492H99.7051V103.484H87.4785ZM120.291 86.0234V90.8672H122.693V92.918H120.291V98.875H117.791V86.0234H120.291ZM106.873 95.9453V87.4492H114.9V89.4414H109.373V93.9336C112.596 93.9141 114.363 93.8066 116.346 93.3867L116.6 95.3789C114.363 95.8379 112.312 95.9453 108.377 95.9453H106.873ZM108.768 103.484V97.5078H111.248V101.492H120.936V103.484H108.768ZM138.885 86.0234V103.797H136.541V86.0234H138.885ZM123.201 98.3477C126.805 96.2188 128.387 93.6309 128.729 90.1445H124.236V88.1328H131.209C131.209 89.0215 131.15 89.8809 131.043 90.7109H132.811V86.4141H135.174V103.016H132.811V97.1562H130.291V95.1445H132.811V92.7227H130.633C129.803 95.6621 127.986 98.1328 124.666 100.105L123.201 98.3477ZM157.029 99.7734V101.824H140.76V99.7734H147.615V97.0977H142.635V91.1211H152.693V89.168H142.615V87.1758H155.154V93.0742H145.135V95.0664H155.564V97.0977H150.096V99.7734H157.029Z" fill="#282828" fill-opacity="0.6"/>
<path d="M112.267 28.863L105.212 21.9408C104.095 20.841 102.561 20.1941 100.962 20.1941L80.3676 20H78.6807C76.6432 20 75 21.6173 75 23.6228V70.0943C75 70.5903 75.4163 71 75.9202 71H147.08C147.584 71 148 70.5903 148 70.0943V34.4051C148 31.4939 145.59 29.1218 142.632 29.1218H112.902C112.661 29.1218 112.42 29.0355 112.245 28.863H112.267Z" fill="#282828" fill-opacity="0.4"/>
<path d="M104 47C108 47 108 41 104 41C100 41 100 47 104 47Z" fill="white"/>
<path d="M118 47C122 47 122 41 118 41C114 41 114 47 118 47Z" fill="white"/>
<path d="M97.5995 53.5423C104.127 60.836 116.961 60.836 123.378 53.4413C124.128 52.5927 124.283 51.4209 123.378 50.5925C122.607 49.8854 120.997 49.7237 120.269 50.5925C117.865 53.3605 114.558 55.0172 110.632 55.0374C106.707 55.0576 103.201 53.4413 100.731 50.6935C99.9811 49.845 98.3934 49.9662 97.6216 50.6935C96.7174 51.5219 96.8718 52.7139 97.6216 53.5423H97.5995Z" fill="white"/>
<path d="M22.9393 62.9393C22.3536 63.5251 22.3536 64.4749 22.9393 65.0607L32.4853 74.6066C33.0711 75.1924 34.0208 75.1924 34.6066 74.6066C35.1924 74.0208 35.1924 73.0711 34.6066 72.4853L26.1213 64L34.6066 55.5147C35.1924 54.9289 35.1924 53.9792 34.6066 53.3934C34.0208 52.8076 33.0711 52.8076 32.4853 53.3934L22.9393 62.9393ZM26 62.5L24 62.5L24 65.5L26 65.5L26 62.5Z" fill="#282828" fill-opacity="0.6"/>
</svg>
