<svg width="194" height="249" viewBox="0 0 194 249" fill="none" xmlns="http://www.w3.org/2000/svg">
<g clip-path="url(#clip0_136_308)">
<path d="M94.457 19.8467L82.762 11.1103C80.909 9.7216 78.5314 9.07426 76.1816 9.38367L45.8864 13.0846L43.4078 13.411C40.4142 13.8052 38.3108 16.4831 38.6961 19.4097L47.6253 87.2231C47.7206 87.9468 48.4109 88.4642 49.1513 88.3667L153.702 74.6001C154.443 74.5027 154.975 73.8242 154.88 73.1005L148.023 21.021C147.463 16.7729 143.467 13.7776 139.121 14.3498L95.4402 20.1014C95.0861 20.148 94.7155 20.0688 94.4248 19.851L94.457 19.8467Z" fill="#FF5D47"/>
<path d="M80.7706 49.2712C86.9831 48.4532 85.7401 39.0128 79.5276 39.8308C73.315 40.6488 74.5581 50.0892 80.7706 49.2712Z" fill="white"/>
<path d="M106.021 45.946C112.233 45.128 110.99 35.6876 104.778 36.5056C98.565 37.3236 99.8081 46.764 106.021 45.946Z" fill="white"/>
<path d="M78.1426 58.5474C89.1664 68.6528 107.901 66.186 115.751 53.4353C116.672 51.9696 116.657 50.1148 115.167 48.9983C113.895 48.0453 111.512 48.103 110.628 49.596C107.687 54.3691 103.199 57.5852 97.4731 58.3711C91.7475 59.157 86.2979 57.3135 82.1292 53.5086C80.8608 52.3311 78.568 52.825 77.5905 54.1062C76.4407 55.5702 76.9104 57.3971 78.1748 58.5432L78.1426 58.5474Z" fill="white"/>
</g>
<g clip-path="url(#clip1_136_308)">
<path d="M121.546 48.8942L112.921 37.1166C111.556 35.2463 109.472 33.9313 107.134 33.5392L77.0831 28.2085L74.6176 27.7949C71.6398 27.2954 68.8445 29.2402 68.3561 32.1513L57.0406 99.6076C56.9199 100.328 57.4285 101.024 58.1649 101.148L162.165 118.594C162.902 118.717 163.61 118.224 163.731 117.504L172.421 65.6993C173.13 61.4735 170.185 57.4394 165.862 56.7143L122.411 49.4256C122.059 49.3665 121.728 49.1822 121.514 48.8888L121.546 48.8942Z" fill="#7230FF"/>
<path d="M104.45 73.0236C110.63 74.0603 112.205 64.6696 106.025 63.6329C99.8457 62.5963 98.2704 71.987 104.45 73.0236Z" fill="white"/>
<path d="M94.9351 83.9245C106.605 72.4468 125.24 75.5728 132.336 90.3844C133.17 92.0874 133.041 94.2245 131.48 95.4884C130.146 96.5673 127.76 96.4648 126.965 94.731C124.307 89.1864 120.002 85.4125 114.308 84.4202C108.615 83.4279 103.038 85.4698 98.6257 89.7912C97.282 91.1289 95.013 90.525 94.1109 89.0338C93.0471 87.3295 93.6295 85.2314 94.9671 83.9299L94.9351 83.9245Z" fill="white"/>
<path d="M121.967 72.7462C124.927 71.2267 128.662 71.725 132.425 74.5815" stroke="white" stroke-width="4" stroke-linecap="round"/>
</g>
<path d="M18.6094 165.828V176.562H15.6328V174.922H10.7578V172.648H15.6328V170.773H10.9922C9.66797 173.973 6.62109 176.023 1.89844 177.055L0.890625 174.617C5.77734 173.656 8.02734 171.629 8.42578 169.062H2.08594V166.648H11.7422C11.7422 167.293 11.6953 167.914 11.6016 168.5H15.6328V165.828H18.6094ZM4.42969 179.68V177.336H18.6094V183.172H7.45312V184.578H19.0781V186.945H4.45312V180.969H15.6094V179.68H4.42969ZM39.8203 165.828V187.156H36.9844V165.828H39.8203ZM20.9297 180.922C24.0703 178.988 25.2422 175.168 25.2422 171.547V170.398H21.75V168.008H31.3594V170.398H28.125V171.547C28.1133 175.086 29.2266 178.672 32.3438 180.453L30.5859 182.656C28.6758 181.531 27.4336 179.633 26.707 177.336C25.9805 179.82 24.6914 181.93 22.7344 183.125L20.9297 180.922ZM29.8359 175.555V173.141H32.6484V166.18H35.4609V186.172H32.6484V175.555H29.8359ZM60.6094 165.828V187.156H57.75V165.828H60.6094ZM42.3047 175.062C42.3047 170.293 44.1211 167.34 46.9453 167.352C49.5117 167.34 51.2695 169.742 51.5977 173.727H53.3438V166.133H56.1562V186.172H53.3438V176.094H51.6211C51.3633 180.277 49.5703 182.82 46.9453 182.82C44.1211 182.82 42.3047 179.855 42.3047 175.062ZM45.0703 175.062C45.0469 178.344 45.75 179.961 46.9453 179.938C48.1758 179.961 48.9023 178.344 48.8906 175.062C48.9023 171.793 48.1758 170.164 46.9453 170.164C45.75 170.164 45.0469 171.793 45.0703 175.062ZM86.2266 165.828V176.633H83.25V165.828H86.2266ZM68.2969 174.336C71.8594 173.27 73.4531 170.586 73.4531 167.938V166.297H76.5703V167.938C76.5469 170.527 78.0938 173 81.5859 174.008L80.1328 176.305C77.6836 175.602 75.9961 174.113 75.0234 172.215C74.0625 174.289 72.3164 175.918 69.7734 176.68L68.2969 174.336ZM71.9297 179.867V177.547H86.25V183.336H74.9062V184.648H86.8359V187.016H71.9766V181.109H83.2734V179.867H71.9297ZM107.625 165.828V187.156H104.766V176.469H103.008V186.125H100.195V166.18H103.008V174.055H104.766V165.828H107.625ZM88.8984 179.82H90.7031V170.656H89.2969V168.242H99.1406V170.656H97.7578V179.516C98.3086 179.457 98.8359 179.398 99.3281 179.328L99.4922 181.508C96.2227 182.199 91.8633 182.281 89.2266 182.281L88.8984 179.82ZM93.3984 179.773C93.9492 179.75 94.5234 179.738 95.0859 179.703V170.656H93.3984V179.773ZM128.203 165.852V178.977H125.367V173.727H123.703V178.742H120.914V166.133H123.703V171.312H125.367V165.852H128.203ZM109.758 170.234V167.867H113.531V165.945H116.508V167.867H120.234V170.234H109.758ZM110.414 174.641C110.402 172.402 112.359 170.914 115.031 170.914C117.738 170.914 119.684 172.402 119.695 174.641C119.684 176.832 117.738 178.355 115.031 178.367C112.359 178.355 110.402 176.832 110.414 174.641ZM111.07 184.672C113.836 183.875 115.078 181.953 115.078 180.078V179.633H118.055V180.078C118.031 181.637 118.734 183.242 120.41 184.309C122.109 183.184 122.859 181.508 122.883 180.078V179.633H125.859V180.078C125.836 182.059 127.031 183.957 129.867 184.672L128.484 186.898C126.422 186.266 125.062 185.023 124.312 183.453C123.633 185.023 122.402 186.406 120.469 187.109C118.488 186.418 117.234 185.117 116.543 183.559C115.781 185.059 114.434 186.266 112.477 186.898L111.07 184.672ZM113.086 174.641C113.074 175.637 113.859 176.211 115.031 176.211C116.191 176.211 116.988 175.637 117 174.641C116.988 173.598 116.191 173.047 115.031 173.047C113.871 173.047 113.074 173.598 113.086 174.641ZM136.5 167.328C139.383 167.328 141.539 169.695 141.961 173.539H145.664V165.828H148.617V187.203H145.664V175.93H141.996C141.68 180.031 139.477 182.539 136.5 182.539C133.266 182.539 130.945 179.609 130.969 174.922C130.945 170.27 133.266 167.328 136.5 167.328ZM133.828 174.922C133.816 178.098 134.906 179.832 136.5 179.82C138.105 179.832 139.172 178.098 139.172 174.922C139.172 171.758 138.105 170.023 136.5 170.023C134.906 170.023 133.816 171.758 133.828 174.922ZM170.883 182.211V184.672H151.359V182.211H155.719V176.984C154.066 175.988 153.07 174.477 153.07 172.602C153.07 169.145 156.445 166.871 161.086 166.859C165.703 166.871 169.113 169.145 169.125 172.602C169.113 174.441 168.152 175.93 166.547 176.926V182.211H170.883ZM156.023 172.602C156.023 174.688 158.027 175.977 161.086 175.977C164.098 175.977 166.16 174.688 166.172 172.602C166.16 170.457 164.098 169.215 161.086 169.227C158.027 169.215 156.023 170.457 156.023 172.602ZM158.672 182.211H163.523V178.062C162.762 178.215 161.941 178.297 161.086 178.297C160.23 178.297 159.422 178.215 158.672 178.074V182.211ZM180.398 185.211C179.297 185.211 178.406 184.332 178.43 183.242C178.406 182.164 179.297 181.285 180.398 181.297C181.441 181.285 182.344 182.164 182.344 183.242C182.344 184.332 181.441 185.211 180.398 185.211ZM178.43 174.312C178.406 173.234 179.297 172.355 180.398 172.367C181.441 172.355 182.344 173.234 182.344 174.312C182.344 175.402 181.441 176.281 180.398 176.281C179.297 176.281 178.406 175.402 178.43 174.312ZM185.648 178.531C185.66 174.125 187.02 170.457 189.258 167.305H192.562C190.945 169.637 189.258 174.336 189.258 178.531C189.258 182.738 190.945 187.426 192.562 189.781H189.258C187.02 186.617 185.66 182.949 185.648 178.531Z" fill="#282828"/>
<path d="M53.0527 226.744V232.844H55.584V234.215H53.0527V242.529H51.3828V226.744H53.0527ZM41.4512 238.609V228.256H48.8164V229.609H43.1211V237.221C45.7666 237.212 47.7441 237.098 49.9941 236.693L50.2051 238.1C47.7354 238.539 45.6436 238.618 42.7168 238.609H41.4512ZM62.123 230.752C62.1055 233.626 63.8457 236.526 66.2891 237.607L65.2871 238.926C63.4766 238.064 62.0439 236.298 61.3057 234.145C60.5762 236.456 59.126 238.354 57.2363 239.277L56.2168 237.871C58.6953 236.772 60.4355 233.758 60.4355 230.752V228.062H62.123V230.752ZM67.7129 242.529V226.744H69.3828V242.529H67.7129ZM82.0742 230.752C82.0566 233.626 83.7969 236.526 86.2402 237.607L85.2383 238.926C83.4277 238.064 81.9951 236.298 81.2568 234.145C80.5273 236.456 79.0771 238.354 77.1875 239.277L76.168 237.871C78.6465 236.772 80.3867 233.758 80.3867 230.752V228.062H82.0742V230.752ZM87.6641 242.529V226.744H89.334V242.529H87.6641ZM104.609 234.004V235.34H99.8457V239.189H106.262V240.561H91.8477V239.189H98.1934V235.34H93.6406V227.957H104.469V229.311H95.3105V234.004H104.609ZM115.191 229.346V230.699H107.369V229.346H110.463V227.201H112.115V229.346H115.191ZM107.879 235.27C107.87 233.151 109.312 231.648 111.289 231.648C113.284 231.648 114.708 233.151 114.717 235.27C114.708 237.423 113.284 238.935 111.289 238.926C109.312 238.935 107.87 237.423 107.879 235.27ZM109.355 235.27C109.347 236.605 110.155 237.502 111.289 237.502C112.423 237.502 113.24 236.605 113.24 235.27C113.24 233.96 112.423 233.046 111.289 233.037C110.155 233.046 109.347 233.96 109.355 235.27ZM115.912 241.756V227.096H117.494V233.301H119.305V226.744H120.887V242.494H119.305V234.672H117.494V241.756H115.912ZM137.322 235.621V236.975H130.924V242.477H129.289V236.975H122.961V235.621H137.322ZM123.77 233.107C126.705 232.703 129.148 230.954 129.201 229.012H124.297V227.676H135.969V229.012H131.1C131.126 230.954 133.552 232.703 136.531 233.107L135.916 234.426C133.332 234.021 131.1 232.747 130.142 230.954C129.175 232.747 126.951 234.021 124.402 234.426L123.77 233.107ZM143.316 231.051C143.316 233.564 144.371 236.245 146.48 237.537L145.549 238.82C144.072 237.933 143.079 236.359 142.534 234.54C141.963 236.535 140.873 238.24 139.344 239.172L138.307 237.924C140.53 236.588 141.708 233.802 141.699 231.121V228.186H143.316V231.051ZM144.775 233.67V232.281H147.219V227.043H148.801V241.721H147.219V233.67H144.775ZM150.471 242.494V226.744H152.07V242.494H150.471ZM168.488 239.137V240.525H154.074V239.137H157.52V235.023C156.228 234.312 155.437 233.187 155.445 231.771C155.437 229.293 157.871 227.667 161.246 227.658C164.63 227.667 167.064 229.293 167.064 231.771C167.064 233.16 166.309 234.276 165.043 234.988V239.137H168.488ZM157.062 231.771C157.062 233.459 158.776 234.558 161.246 234.566C163.698 234.558 165.438 233.459 165.447 231.771C165.438 230.075 163.698 228.994 161.246 228.994C158.776 228.994 157.062 230.075 157.062 231.771ZM159.172 239.137H163.355V235.639C162.714 235.788 162.002 235.867 161.246 235.867C160.508 235.867 159.805 235.788 159.172 235.639V239.137ZM171.424 241.123C170.738 241.114 170.167 240.561 170.176 239.875C170.167 239.189 170.738 238.627 171.424 238.627C172.101 238.627 172.663 239.189 172.672 239.875C172.663 240.561 172.101 241.114 171.424 241.123Z" fill="#282828"/>
<defs>
<clipPath id="clip0_136_308">
<rect width="108.181" height="75.0641" fill="white" transform="translate(38 14.123) rotate(-7.50118)"/>
</clipPath>
<clipPath id="clip1_136_308">
<rect width="108.181" height="75.0641" fill="white" transform="translate(69.2383 26.8926) rotate(9.52248)"/>
</clipPath>
</defs>
</svg>
