<svg width="734" height="670" viewBox="0 0 734 670" fill="none" xmlns="http://www.w3.org/2000/svg">
<mask id="path-1-inside-1_119_204" fill="white">
<path fill-rule="evenodd" clip-rule="evenodd" d="M14.0132 0C6.28125 0 0 6.26803 0 14V45.5588V58.8368V654C0 662.837 7.16345 670 16 670H718C726.837 670 734 662.837 734 654V45.5589C734 36.7223 726.751 29.5589 717.915 29.5589H178.943L168.49 9.02165C166.62 6.27593 164.619 4.67148 161.175 2.74572C156.976 0.39803 152.087 0 147.018 0H14.0132Z"/>
</mask>
<path fill-rule="evenodd" clip-rule="evenodd" d="M14.0132 0C6.28125 0 0 6.26803 0 14V45.5588V58.8368V654C0 662.837 7.16345 670 16 670H718C726.837 670 734 662.837 734 654V45.5589C734 36.7223 726.751 29.5589 717.915 29.5589H178.943L168.49 9.02165C166.62 6.27593 164.619 4.67148 161.175 2.74572C156.976 0.39803 152.087 0 147.018 0H14.0132Z" fill="#F8F8FA"/>
<path d="M178.943 29.5589L177.161 30.4661L177.717 31.5589H178.943V29.5589ZM168.49 9.02165L170.272 8.11441L170.214 8.00112L170.143 7.89605L168.49 9.02165ZM161.175 2.74572L160.199 4.49139L160.199 4.49139L161.175 2.74572ZM2 14C2 7.37505 7.38336 2 14.0132 2V-2C5.17914 -2 -2 5.161 -2 14H2ZM2 45.5588V14H-2V45.5588H2ZM2 58.8368V45.5588H-2V58.8368H2ZM2 654V58.8368H-2V654H2ZM16 668C8.26802 668 2 661.732 2 654H-2C-2 663.941 6.05888 672 16 672V668ZM718 668H16V672H718V668ZM732 654C732 661.732 725.732 668 718 668V672C727.941 672 736 663.941 736 654H732ZM732 45.5589V654H736V45.5589H732ZM717.915 31.5589C725.661 31.5589 732 37.8407 732 45.5589H736C736 35.6039 727.842 27.5589 717.915 27.5589V31.5589ZM178.943 31.5589H717.915V27.5589H178.943V31.5589ZM166.707 9.92889L177.161 30.4661L180.726 28.6516L170.272 8.11441L166.707 9.92889ZM160.199 4.49139C163.474 6.32265 165.197 7.73946 166.836 10.1473L170.143 7.89605C168.043 4.8124 165.764 3.02031 162.151 1.00005L160.199 4.49139ZM147.018 2C152.041 2 156.479 2.41161 160.199 4.49139L162.151 1.00005C157.473 -1.61555 152.133 -2 147.018 -2V2ZM14.0132 2H147.018V-2H14.0132V2Z" fill="#DEDFE6" mask="url(#path-1-inside-1_119_204)"/>
</svg>
