<svg width="24" height="24" viewBox="0 0 24 24" fill="none" xmlns="http://www.w3.org/2000/svg">
<path fill-rule="evenodd" clip-rule="evenodd" d="M2.1407 0.367126C1.65099 -0.122375 0.857001 -0.122375 0.367286 0.367126C-0.122428 0.856627 -0.122429 1.65026 0.367286 2.13977L10.1268 11.895L0.367737 21.6499C-0.121978 22.1394 -0.121978 22.933 0.367737 23.4225C0.857452 23.912 1.65144 23.912 2.14115 23.4225L11.9002 13.6677L21.6483 23.4115C22.138 23.901 22.932 23.901 23.4217 23.4115C23.9114 22.922 23.9114 22.1283 23.4217 21.6388L13.6736 11.895L23.4221 2.15081C23.9118 1.66131 23.9118 0.867667 23.4221 0.378166C22.9324 -0.111334 22.1384 -0.111335 21.6487 0.378166L11.9002 10.1224L2.1407 0.367126Z" fill="#AEAFB9"/>
</svg>
