<svg width="31" height="32" viewBox="0 0 31 32" fill="none" xmlns="http://www.w3.org/2000/svg">
<circle cx="15.5" cy="16.5" r="15.5" fill="#606067"/>
<path d="M15.4453 23.1953C18.873 23.1953 21.2949 21.4375 21.2852 18.957C21.2949 17.2188 20.1328 15.9883 17.8867 15.7344V15.6172C19.5566 15.4316 20.7676 14.3477 20.7578 12.7656C20.7676 10.4023 18.5898 8.66406 15.4844 8.66406C12.3105 8.66406 10.0449 10.4707 10.0352 13.0391H13.5898C13.6094 12.1602 14.4004 11.5352 15.4844 11.5352C16.4805 11.5352 17.1738 12.1406 17.1641 13C17.1738 13.8887 16.3535 14.5234 15.1719 14.5234H13.7461V17.1016H15.1719C16.4707 17.1113 17.3594 17.7461 17.3594 18.6445C17.3594 19.5527 16.5879 20.1875 15.4648 20.1875C14.332 20.1875 13.5215 19.582 13.4922 18.7422H9.74219C9.77148 21.3496 12.1348 23.1953 15.4453 23.1953Z" fill="white"/>
</svg>
