<svg width="234" height="68" viewBox="0 0 234 68" fill="none" xmlns="http://www.w3.org/2000/svg">
<rect x="1.5" y="1.5" width="231" height="65" rx="14.5" fill="#FFF3F1" stroke="#FF5D47" stroke-width="3"/>
<path d="M34 49.75C42.6985 49.75 49.75 42.6985 49.75 34C49.75 25.3015 42.6985 18.25 34 18.25C25.3015 18.25 18.25 25.3015 18.25 34C18.25 42.6985 25.3015 49.75 34 49.75Z" fill="#FF5D47" stroke="#FF5D47" stroke-width="1.91" stroke-miterlimit="10"/>
<path d="M26 34.5L31.3333 40L42 29" stroke="#F8F8FA" stroke-width="3" stroke-miterlimit="10" stroke-linecap="round" stroke-linejoin="round"/>
<path d="M88.1875 28.3281V35.4531H86.7031V34.1094H83.1562V32.9531H86.7031V31.4375H83.3281C82.4609 33.6094 80.3438 35.0469 77.25 35.7656L76.7344 34.5469C80.0938 33.8047 81.9062 32.2422 82.1484 30.1875H77.4688V28.9688H83.7812C83.7812 29.4219 83.7422 29.8516 83.6641 30.2656H86.7031V28.3281H88.1875ZM79.0312 37.2188V36.0469H88.1875V39.5938H80.5312V41H88.6094V42.1875H79.0625V38.4688H86.7031V37.2188H79.0312ZM102.359 28.3281V42.3281H100.938V28.3281H102.359ZM90.1406 38.4688C92.125 37.2734 93.1328 34.7266 93.1406 32.2344V31.1094H90.5625V29.9062H96.9688V31.1094H94.5625V32.2344C94.5625 34.625 95.5312 37.0234 97.5 38.1562L96.6094 39.25C95.2734 38.4531 94.3594 37.0234 93.8672 35.3359C93.3672 37.1641 92.4141 38.7266 91.0469 39.5781L90.1406 38.4688ZM95.9375 34.5V33.2812H98.1094V28.625H99.5156V41.625H98.1094V34.5H95.9375ZM115.078 28.3281V34H117.328V35.2344H115.078V42.3281H113.609V28.3281H115.078ZM104.094 31.7344V30.5156H107.547V28.5156H109.031V30.5156H112.391V31.7344H104.094ZM104.812 36.0156C104.812 34.1094 106.281 32.7656 108.297 32.7656C110.305 32.7656 111.773 34.1094 111.781 36.0156C111.773 37.9375 110.305 39.2734 108.297 39.2812C106.281 39.2734 104.812 37.9375 104.812 36.0156ZM106.234 36.0156C106.227 37.2344 107.102 38.0469 108.297 38.0312C109.484 38.0469 110.352 37.2344 110.359 36.0156C110.352 34.8203 109.484 33.9922 108.297 33.9844C107.102 33.9922 106.227 34.8203 106.234 36.0156ZM129.641 28.3281V42.3281H128.141V28.3281H129.641ZM118.141 38.5781C121.859 36.8047 123.68 34.2812 123.969 31.0156H118.812V29.8281H125.469C125.469 33.9297 123.727 37.4766 118.922 39.7812L118.141 38.5781Z" fill="#606067"/>
</svg>
