<svg width="538" height="48" viewBox="0 0 538 48" fill="none" xmlns="http://www.w3.org/2000/svg">
<rect x="449" y="7" width="18" height="17" fill="#606067"/>
<rect x="1" y="1" width="195" height="46" rx="7" fill="white" stroke="#EEEFF3" stroke-width="2"/>
<rect x="206" y="1" width="112" height="46" rx="7" fill="white" stroke="#EEEFF3" stroke-width="2"/>
<rect x="328" y="1" width="44" height="46" rx="7" fill="white" stroke="#EEEFF3" stroke-width="2"/>
<rect x="382" y="1" width="44" height="46" rx="7" fill="white" stroke="#EEEFF3" stroke-width="2"/>
<rect x="436" y="1" width="44" height="46" rx="7" fill="white" stroke="#EEEFF3" stroke-width="2"/>
<rect x="490" y="1" width="47" height="46" rx="7" fill="white" stroke="#EEEFF3" stroke-width="2"/>
<path d="M17.1562 30V18.6875H21.1875C23.8203 18.6875 25.1094 20.2656 25.1094 22.3594C25.1094 24.4453 23.8125 26.0312 21.1875 26.0312H18.875V30H17.1562ZM18.875 24.5625H21.0156C22.6797 24.5703 23.375 23.6328 23.375 22.3594C23.375 21.0781 22.6797 20.1641 21.0156 20.1562H18.875V24.5625ZM26.7812 30V21.5156H28.3906V22.8594H28.4844C28.7969 21.9531 29.6484 21.3828 30.6406 21.3906C30.8438 21.3828 31.1719 21.4062 31.3438 21.4219V23.0156C31.2031 22.9844 30.8125 22.9141 30.4688 22.9219C29.3125 22.9141 28.4531 23.7188 28.4531 24.8281V30H26.7812ZM35.9688 30.1719C33.4688 30.1719 31.9297 28.4453 31.9375 25.8125C31.9297 23.2031 33.4922 21.4062 35.8594 21.4062C37.7891 21.4062 39.625 22.6016 39.625 25.6719V26.2656H33.5938C33.6406 27.8828 34.5938 28.7969 35.9844 28.7969C36.9297 28.7969 37.5469 28.3906 37.8281 27.875H39.5156C39.1406 29.25 37.8359 30.1719 35.9688 30.1719ZM33.6016 25.0156H37.9844C37.9844 23.7266 37.1484 22.7734 35.875 22.7812C34.5391 22.7734 33.6719 23.8203 33.6016 25.0156ZM45.25 21.5156V22.8438H43.5156V27.5C43.5234 28.4609 43.9922 28.6328 44.5312 28.6406C44.7734 28.6406 45.1406 28.6172 45.375 28.5938V30.0469C45.1484 30.0781 44.7891 30.1094 44.3281 30.1094C43.0234 30.1094 41.8438 29.3906 41.8594 27.8438V22.8438H40.6094V21.5156H41.8594V19.4844H43.5156V21.5156H45.25ZM50.4375 30.1719C47.9375 30.1719 46.3984 28.4453 46.4062 25.8125C46.3984 23.2031 47.9609 21.4062 50.3281 21.4062C52.2578 21.4062 54.0938 22.6016 54.0938 25.6719V26.2656H48.0625C48.1094 27.8828 49.0625 28.7969 50.4531 28.7969C51.3984 28.7969 52.0156 28.3906 52.2969 27.875H53.9844C53.6094 29.25 52.3047 30.1719 50.4375 30.1719ZM48.0703 25.0156H52.4531C52.4531 23.7266 51.6172 22.7734 50.3438 22.7812C49.0078 22.7734 48.1406 23.8203 48.0703 25.0156ZM57.4219 24.9688V30H55.75V21.5156H57.3594V22.9062H57.4531C57.8516 21.9922 58.6875 21.4062 59.9531 21.4062C61.6953 21.4062 62.8516 22.5078 62.8438 24.6094V30H61.1875V24.8125C61.1797 23.5781 60.5156 22.8438 59.3906 22.8438C58.2422 22.8438 57.4219 23.6172 57.4219 24.9688ZM68.0469 30.1719C66 30.1641 64.5 28.5156 64.5 25.7812C64.5 23.0156 66.0234 21.4062 68.0625 21.4062C69.6406 21.4062 70.2109 22.3594 70.5156 22.8906H70.5938V18.6875H72.2656V30H70.6406V28.6719H70.5156C70.2031 29.2266 69.5938 30.1641 68.0469 30.1719ZM66.2031 25.75C66.1953 27.4531 66.9609 28.7422 68.4219 28.75C69.8438 28.7422 70.6406 27.5312 70.6406 25.75C70.6406 23.9844 69.8594 22.8203 68.4219 22.8281C66.9453 22.8203 66.1953 24.0781 66.2031 25.75ZM74.0469 27.6094C74.0391 25.6719 75.6875 25.1719 77.2188 25.0625C77.7812 25.0312 79.0547 24.9609 79.4453 24.9453L79.4375 24.2656C79.4453 23.3047 78.8516 22.75 77.7188 22.75C76.7344 22.75 76.1406 23.2031 75.9688 23.8281H74.3125C74.4609 22.4219 75.7734 21.4062 77.7812 21.4062C79.1328 21.4062 81.1016 21.8984 81.1094 24.3594V30H79.4844V28.8438H79.4219C79.0938 29.4766 78.3125 30.1875 76.9062 30.1875C75.2969 30.1875 74.0391 29.2656 74.0469 27.6094ZM75.6719 27.625C75.6719 28.4375 76.3438 28.8516 77.2812 28.8594C78.6406 28.8516 79.4531 27.9453 79.4531 26.9375L79.4453 26.1641C79.0625 26.1875 77.8516 26.2734 77.4531 26.2969C76.3594 26.375 75.6719 26.7891 75.6719 27.625ZM83.125 30V21.5156H84.7344V22.8594H84.8281C85.1406 21.9531 85.9922 21.3828 86.9844 21.3906C87.1875 21.3828 87.5156 21.4062 87.6875 21.4219V23.0156C87.5469 22.9844 87.1562 22.9141 86.8125 22.9219C85.6562 22.9141 84.7969 23.7188 84.7969 24.8281V30H83.125ZM91.8281 30.1719C89.7812 30.1641 88.2812 28.5156 88.2812 25.7812C88.2812 23.0156 89.8047 21.4062 91.8438 21.4062C93.4219 21.4062 93.9922 22.3594 94.2969 22.8906H94.375V18.6875H96.0469V30H94.4219V28.6719H94.2969C93.9844 29.2266 93.375 30.1641 91.8281 30.1719ZM89.9844 25.75C89.9766 27.4531 90.7422 28.7422 92.2031 28.75C93.625 28.7422 94.4219 27.5312 94.4219 25.75C94.4219 23.9844 93.6406 22.8203 92.2031 22.8281C90.7266 22.8203 89.9766 24.0781 89.9844 25.75ZM102.266 30V18.6875H106.406C108.82 18.6875 109.984 19.9766 109.984 21.6562C109.984 23.0703 109.117 23.7812 108.078 24.0469V24.1562C109.203 24.2188 110.422 25.2031 110.422 26.9531C110.422 28.6875 109.234 30 106.594 30H102.266ZM103.984 28.5312H106.438C108.062 28.5234 108.719 27.8125 108.719 26.875C108.719 25.7891 107.859 24.9219 106.5 24.9219H103.984V28.5312ZM103.984 23.5781H106.266C107.406 23.5703 108.297 22.8828 108.297 21.7969C108.297 20.8594 107.648 20.1562 106.297 20.1562H103.984V23.5781ZM115.719 30.1719C113.312 30.1719 111.742 28.4219 111.75 25.7969C111.742 23.1562 113.312 21.4062 115.719 21.4062C118.109 21.4062 119.672 23.1562 119.672 25.7969C119.672 28.4219 118.109 30.1719 115.719 30.1719ZM113.422 25.7969C113.422 27.4141 114.164 28.7812 115.719 28.7812C117.25 28.7812 117.984 27.4141 117.984 25.7969C117.984 24.1719 117.25 22.7891 115.719 22.7812C114.164 22.7891 113.422 24.1719 113.422 25.7969ZM122.984 18.6875V30H121.312V18.6875H122.984ZM128.188 30.1719C126.141 30.1641 124.641 28.5156 124.641 25.7812C124.641 23.0156 126.164 21.4062 128.203 21.4062C129.781 21.4062 130.352 22.3594 130.656 22.8906H130.734V18.6875H132.406V30H130.781V28.6719H130.656C130.344 29.2266 129.734 30.1641 128.188 30.1719ZM126.344 25.75C126.336 27.4531 127.102 28.7422 128.562 28.75C129.984 28.7422 130.781 27.5312 130.781 25.75C130.781 23.9844 130 22.8203 128.562 22.8281C127.086 22.8203 126.336 24.0781 126.344 25.75Z" fill="#282828"/>
<path d="M230.391 30L235.438 20.25V20.1562H229.609V18.6875H237.219V20.2188L232.188 30H230.391ZM242.641 30.1562C240.5 30.1562 238.891 28.8516 238.812 27.0469H240.484C240.578 28.0078 241.5 28.7109 242.641 28.7188C244.016 28.7109 245 27.7188 245 26.375C245 25 243.984 24 242.562 23.9844C241.656 23.9844 240.961 24.2891 240.578 24.9844H238.953L239.688 18.6875H246.094V20.1562H241.109L240.734 23.3281H240.844C241.312 22.875 242.109 22.5703 242.969 22.5625C245.102 22.5703 246.672 24.1484 246.672 26.3281C246.672 28.5547 245 30.1562 242.641 30.1562Z" fill="#282828"/>
<path d="M346.844 22L347.695 19.3906H351.789L352.641 22H355.156L351.25 10.6875H348.234L344.312 22H346.844ZM348.289 17.5625L349.703 13.2344H349.781L351.195 17.5625H348.289Z" fill="#606067"/>
<path d="M506.981 13.2656H500.3V14.1035H505.972V14.2969C505.972 15.5107 505.972 16.9233 505.585 18.8516L506.627 18.9482C506.981 16.8911 506.981 15.543 506.981 14.2969V13.2656ZM499.354 20.5488H508.131V19.7002H499.354V20.5488ZM516.843 12.2988H515.822V18.0029H516.843V12.2988ZM509.345 13.6846H512.761V14.7803H509.366V17.5732H510.172C511.993 17.5786 513.303 17.5249 514.877 17.2832L514.748 16.4453C513.282 16.687 512.052 16.7354 510.365 16.7354V15.5752H513.771V12.8682H509.345V13.6846ZM510.516 21.7949H516.843V18.4863H510.516V21.7949ZM511.525 20.9678V19.3027H515.844V20.9678H511.525ZM521.72 15.124V14.1035H523.814V13.2549H518.54V14.1035H520.71V15.124C520.705 16.7515 519.646 18.5669 518.186 19.2705L518.787 20.0762C519.883 19.5283 520.785 18.3413 521.226 16.9717C521.661 18.2285 522.52 19.3135 523.6 19.8291L524.18 19.0342C522.719 18.3413 521.714 16.644 521.72 15.124ZM524.846 21.9131H525.866V16.9609H527.413V16.1016H525.866V12.2881H524.846V21.9131Z" fill="black"/>
<path d="M400.975 21H399.261L403.07 10.3945H404.93L408.753 21H407.04L406.073 18.2021H401.942L400.975 21ZM402.403 16.8545H405.604L404.037 12.3281H403.963L402.403 16.8545Z" fill="white"/>
<path d="M400.975 21V23C401.828 23 402.587 22.4592 402.865 21.6532L400.975 21ZM399.261 21L397.379 20.324C397.159 20.9367 397.251 21.6182 397.625 22.1507C398 22.6831 398.61 23 399.261 23V21ZM403.07 10.3945V8.39453C402.226 8.39453 401.473 8.92429 401.188 9.71857L403.07 10.3945ZM404.93 10.3945L406.812 9.71626C406.526 8.92318 405.773 8.39453 404.93 8.39453V10.3945ZM408.753 21V23C409.405 23 410.015 22.6827 410.39 22.1497C410.764 21.6166 410.856 20.9346 410.635 20.3217L408.753 21ZM407.04 21L405.149 21.6532C405.428 22.4592 406.187 23 407.04 23V21ZM406.073 18.2021L407.963 17.5489C407.685 16.7429 406.926 16.2021 406.073 16.2021V18.2021ZM401.942 18.2021V16.2021C401.089 16.2021 400.33 16.7429 400.052 17.5489L401.942 18.2021ZM402.403 16.8545L400.512 16.2028C400.302 16.814 400.4 17.4893 400.775 18.0157C401.15 18.542 401.757 18.8545 402.403 18.8545V16.8545ZM405.604 16.8545V18.8545C406.251 18.8545 406.858 18.5415 407.233 18.0145C407.608 17.4874 407.706 16.8114 407.494 16.2001L405.604 16.8545ZM404.037 12.3281L405.927 11.6737C405.648 10.8683 404.889 10.3281 404.037 10.3281V12.3281ZM403.963 12.3281V10.3281C403.11 10.3281 402.351 10.8696 402.073 11.6764L403.963 12.3281ZM400.975 19H399.261V23H400.975V19ZM401.144 21.676L404.952 11.0705L401.188 9.71857L397.379 20.324L401.144 21.676ZM403.07 12.3945H404.93V8.39453H403.07V12.3945ZM403.049 11.0728L406.872 21.6783L410.635 20.3217L406.812 9.71626L403.049 11.0728ZM408.753 19H407.04V23H408.753V19ZM408.93 20.3468L407.963 17.5489L404.182 18.8553L405.149 21.6532L408.93 20.3468ZM406.073 16.2021H401.942V20.2021H406.073V16.2021ZM400.052 17.5489L399.085 20.3468L402.865 21.6532L403.832 18.8553L400.052 17.5489ZM402.403 18.8545H405.604V14.8545H402.403V18.8545ZM407.494 16.2001L405.927 11.6737L402.147 12.9826L403.714 17.5089L407.494 16.2001ZM404.037 10.3281H403.963V14.3281H404.037V10.3281ZM402.073 11.6764L400.512 16.2028L404.294 17.5062L405.854 12.9798L402.073 11.6764Z" fill="#606067"/>
<path d="M400.975 21H399.261L403.07 10.3945H404.93L408.753 21H407.04L406.073 18.2021H401.942L400.975 21ZM402.403 16.8545H405.604L404.037 12.3281H403.963L402.403 16.8545Z" fill="white"/>
<rect x="337.5" y="28.5" width="25" height="11" rx="3.5" fill="white" stroke="#AEAFB9"/>
<rect x="445" y="28" width="26" height="12" rx="4" fill="#282828"/>
<rect x="449" y="7" width="18" height="17" fill="#606067"/>
<path d="M454.844 21L455.695 18.3906H459.789L460.641 21H463.156L459.25 9.6875H456.234L452.312 21H454.844ZM456.289 16.5625L457.703 12.2344H457.781L459.195 16.5625H456.289Z" fill="white"/>
<line x1="392.818" y1="38.5344" x2="415.818" y2="29.5344" stroke="#FF5D47"/>
<rect x="391.5" y="28.5" width="25" height="11" rx="3.5" stroke="#AEAFB9"/>
<line y1="-0.5" x2="26.3536" y2="-0.5" transform="matrix(0.939879 -0.341509 0.388333 0.921519 502.154 39)" stroke="#FF5D47"/>
<rect x="500.5" y="28.5" width="27" height="11" rx="3.5" stroke="#AEAFB9"/>
</svg>
