<svg width="538" height="48" viewBox="0 0 538 48" fill="none" xmlns="http://www.w3.org/2000/svg">
<rect x="449" y="7" width="18" height="17" fill="#606067"/>
<rect x="1" y="1" width="195" height="46" rx="7" fill="white" stroke="#EEEFF3" stroke-width="2"/>
<rect x="206" y="1" width="112" height="46" rx="7" fill="white" stroke="#EEEFF3" stroke-width="2"/>
<rect x="328" y="1" width="44" height="46" rx="7" fill="white" stroke="#EEEFF3" stroke-width="2"/>
<rect x="382" y="1" width="44" height="46" rx="7" fill="white" stroke="#EEEFF3" stroke-width="2"/>
<rect x="436" y="1" width="44" height="46" rx="7" fill="white" stroke="#EEEFF3" stroke-width="2"/>
<rect x="490" y="1" width="47" height="46" rx="7" fill="white" stroke="#EEEFF3" stroke-width="2"/>
<path d="M25.1562 30H26.875V26.0312H29.1875C31.8125 26.0312 33.1094 24.4453 33.1094 22.3594C33.1094 20.2656 31.8203 18.6875 29.1875 18.6875H25.1562V30ZM26.875 24.5625V20.1562H29.0156C30.6797 20.1641 31.375 21.0781 31.375 22.3594C31.375 23.6328 30.6797 24.5703 29.0156 24.5625H26.875ZM34.7812 30H36.4531V24.8281C36.4531 23.7188 37.3125 22.9141 38.4688 22.9219C38.8125 22.9141 39.2031 22.9844 39.3438 23.0156V21.4219C39.1719 21.4062 38.8438 21.3828 38.6406 21.3906C37.6484 21.3828 36.7969 21.9531 36.4844 22.8594H36.3906V21.5156H34.7812V30ZM43.9688 30.1719C45.8359 30.1719 47.1406 29.25 47.5156 27.875H45.8281C45.5469 28.3906 44.9297 28.7969 43.9844 28.7969C42.5938 28.7969 41.6406 27.8828 41.5938 26.2656H47.625V25.6719C47.625 22.6016 45.7891 21.4062 43.8594 21.4062C41.4922 21.4062 39.9297 23.2031 39.9375 25.8125C39.9297 28.4453 41.4688 30.1719 43.9688 30.1719ZM41.6016 25.0156C41.6719 23.8203 42.5391 22.7734 43.875 22.7812C45.1484 22.7734 45.9844 23.7266 45.9844 25.0156H41.6016ZM53.25 21.5156H51.5156V19.4844H49.8594V21.5156H48.6094V22.8438H49.8594V27.8438C49.8438 29.3906 51.0234 30.1094 52.3281 30.1094C52.7891 30.1094 53.1484 30.0781 53.375 30.0469V28.5938C53.1406 28.6172 52.7734 28.6406 52.5312 28.6406C51.9922 28.6328 51.5234 28.4609 51.5156 27.5V22.8438H53.25V21.5156ZM58.4375 30.1719C60.3047 30.1719 61.6094 29.25 61.9844 27.875H60.2969C60.0156 28.3906 59.3984 28.7969 58.4531 28.7969C57.0625 28.7969 56.1094 27.8828 56.0625 26.2656H62.0938V25.6719C62.0938 22.6016 60.2578 21.4062 58.3281 21.4062C55.9609 21.4062 54.3984 23.2031 54.4062 25.8125C54.3984 28.4453 55.9375 30.1719 58.4375 30.1719ZM56.0703 25.0156C56.1406 23.8203 57.0078 22.7734 58.3438 22.7812C59.6172 22.7734 60.4531 23.7266 60.4531 25.0156H56.0703ZM65.4219 24.9688C65.4219 23.6172 66.2422 22.8438 67.3906 22.8438C68.5156 22.8438 69.1797 23.5781 69.1875 24.8125V30H70.8438V24.6094C70.8516 22.5078 69.6953 21.4062 67.9531 21.4062C66.6875 21.4062 65.8516 21.9922 65.4531 22.9062H65.3594V21.5156H63.75V30H65.4219V24.9688ZM76.0469 30.1719C77.5938 30.1641 78.2031 29.2266 78.5156 28.6719H78.6406V30H80.2656V18.6875H78.5938V22.8906H78.5156C78.2109 22.3594 77.6406 21.4062 76.0625 21.4062C74.0234 21.4062 72.5 23.0156 72.5 25.7812C72.5 28.5156 74 30.1641 76.0469 30.1719ZM74.2031 25.75C74.1953 24.0781 74.9453 22.8203 76.4219 22.8281C77.8594 22.8203 78.6406 23.9844 78.6406 25.75C78.6406 27.5312 77.8438 28.7422 76.4219 28.75C74.9609 28.7422 74.1953 27.4531 74.2031 25.75ZM82.0469 27.6094C82.0391 29.2656 83.2969 30.1875 84.9062 30.1875C86.3125 30.1875 87.0938 29.4766 87.4219 28.8438H87.4844V30H89.1094V24.3594C89.1016 21.8984 87.1328 21.4062 85.7812 21.4062C83.7734 21.4062 82.4609 22.4219 82.3125 23.8281H83.9688C84.1406 23.2031 84.7344 22.75 85.7188 22.75C86.8516 22.75 87.4453 23.3047 87.4375 24.2656L87.4453 24.9453C87.0547 24.9609 85.7812 25.0312 85.2188 25.0625C83.6875 25.1719 82.0391 25.6719 82.0469 27.6094ZM83.6719 27.625C83.6719 26.7891 84.3594 26.375 85.4531 26.2969C85.8516 26.2734 87.0625 26.1875 87.4453 26.1641L87.4531 26.9375C87.4531 27.9453 86.6406 28.8516 85.2812 28.8594C84.3438 28.8516 83.6719 28.4375 83.6719 27.625ZM91.125 30H92.7969V24.8281C92.7969 23.7188 93.6562 22.9141 94.8125 22.9219C95.1562 22.9141 95.5469 22.9844 95.6875 23.0156V21.4219C95.5156 21.4062 95.1875 21.3828 94.9844 21.3906C93.9922 21.3828 93.1406 21.9531 92.8281 22.8594H92.7344V21.5156H91.125V30ZM99.8281 30.1719C101.375 30.1641 101.984 29.2266 102.297 28.6719H102.422V30H104.047V18.6875H102.375V22.8906H102.297C101.992 22.3594 101.422 21.4062 99.8438 21.4062C97.8047 21.4062 96.2812 23.0156 96.2812 25.7812C96.2812 28.5156 97.7812 30.1641 99.8281 30.1719ZM97.9844 25.75C97.9766 24.0781 98.7266 22.8203 100.203 22.8281C101.641 22.8203 102.422 23.9844 102.422 25.75C102.422 27.5312 101.625 28.7422 100.203 28.75C98.7422 28.7422 97.9766 27.4531 97.9844 25.75Z" fill="#282828"/>
<path d="M233.844 30.1562C236.203 30.1562 237.875 28.5547 237.875 26.3281C237.875 24.1484 236.305 22.5703 234.172 22.5625C233.312 22.5703 232.516 22.875 232.047 23.3281H231.938L232.312 20.1562H237.297V18.6875H230.891L230.156 24.9844H231.781C232.164 24.2891 232.859 23.9844 233.766 23.9844C235.188 24 236.203 25 236.203 26.375C236.203 27.7188 235.219 28.7109 233.844 28.7188C232.703 28.7109 231.781 28.0078 231.688 27.0469H230.016C230.094 28.8516 231.703 30.1562 233.844 30.1562ZM243.641 30.1562C246.258 30.1562 247.789 28.0469 247.797 24.3438C247.789 20.6641 246.234 18.5312 243.641 18.5312C241.039 18.5312 239.484 20.6641 239.484 24.3438C239.484 28.0469 241.023 30.1562 243.641 30.1562ZM241.203 24.3438C241.203 21.5312 242.117 19.9922 243.641 19.9844C245.156 19.9922 246.078 21.5312 246.078 24.3438C246.078 27.1641 245.164 28.6719 243.641 28.6719C242.109 28.6719 241.195 27.1641 241.203 24.3438Z" fill="#282828"/>
<path d="M346.844 22H344.312L348.234 10.6875H351.25L355.156 22H352.641L351.789 19.3906H347.695L346.844 22ZM348.289 17.5625H351.195L349.781 13.2344H349.703L348.289 17.5625Z" fill="#606067"/>
<path d="M506.981 13.2656V14.2969C506.981 15.543 506.981 16.8911 506.627 18.9482L505.585 18.8516C505.972 16.9233 505.972 15.5107 505.972 14.2969V14.1035H500.3V13.2656H506.981ZM499.354 20.5488V19.7002H508.131V20.5488H499.354ZM516.843 12.2988V18.0029H515.822V12.2988H516.843ZM509.345 13.6846V12.8682H513.771V15.5752H510.365V16.7354C512.052 16.7354 513.282 16.687 514.748 16.4453L514.877 17.2832C513.303 17.5249 511.993 17.5786 510.172 17.5732H509.366V14.7803H512.761V13.6846H509.345ZM510.516 21.7949V18.4863H516.843V21.7949H510.516ZM511.525 20.9678H515.844V19.3027H511.525V20.9678ZM521.72 15.124C521.714 16.644 522.719 18.3413 524.18 19.0342L523.6 19.8291C522.52 19.3135 521.661 18.2285 521.226 16.9717C520.785 18.3413 519.883 19.5283 518.787 20.0762L518.186 19.2705C519.646 18.5669 520.705 16.7515 520.71 15.124V14.1035H518.54V13.2549H523.814V14.1035H521.72V15.124ZM524.846 21.9131V12.2881H525.866V16.1016H527.413V16.9609H525.866V21.9131H524.846Z" fill="black"/>
<path d="M400.992 21V23C401.845 23 402.604 22.4592 402.883 21.6532L400.992 21ZM399.278 21L397.396 20.324C397.176 20.9367 397.268 21.6182 397.642 22.1507C398.017 22.6831 398.627 23 399.278 23V21ZM403.087 10.3945V8.39453C402.243 8.39453 401.49 8.92429 401.205 9.71857L403.087 10.3945ZM404.947 10.3945L406.829 9.71626C406.543 8.92318 405.79 8.39453 404.947 8.39453V10.3945ZM408.771 21V23C409.422 23 410.033 22.6827 410.407 22.1497C410.782 21.6166 410.873 20.9346 410.652 20.3217L408.771 21ZM407.057 21L405.166 21.6532C405.445 22.4592 406.204 23 407.057 23V21ZM406.09 18.2021L407.98 17.5489C407.702 16.7429 406.943 16.2021 406.09 16.2021V18.2021ZM401.959 18.2021V16.2021C401.106 16.2021 400.347 16.7429 400.069 17.5489L401.959 18.2021ZM402.42 16.8545L400.53 16.2028C400.319 16.814 400.417 17.4893 400.792 18.0157C401.167 18.542 401.774 18.8545 402.42 18.8545V16.8545ZM405.621 16.8545V18.8545C406.268 18.8545 406.875 18.5415 407.25 18.0145C407.626 17.4874 407.723 16.8114 407.511 16.2001L405.621 16.8545ZM404.054 12.3281L405.944 11.6737C405.665 10.8683 404.906 10.3281 404.054 10.3281V12.3281ZM403.98 12.3281V10.3281C403.127 10.3281 402.368 10.8696 402.09 11.6764L403.98 12.3281ZM400.992 19H399.278V23H400.992V19ZM401.161 21.676L404.969 11.0705L401.205 9.71857L397.396 20.324L401.161 21.676ZM403.087 12.3945H404.947V8.39453H403.087V12.3945ZM403.066 11.0728L406.889 21.6783L410.652 20.3217L406.829 9.71626L403.066 11.0728ZM408.771 19H407.057V23H408.771V19ZM408.947 20.3468L407.98 17.5489L404.2 18.8553L405.166 21.6532L408.947 20.3468ZM406.09 16.2021H401.959V20.2021H406.09V16.2021ZM400.069 17.5489L399.102 20.3468L402.883 21.6532L403.849 18.8553L400.069 17.5489ZM402.42 18.8545H405.621V14.8545H402.42V18.8545ZM407.511 16.2001L405.944 11.6737L402.164 12.9826L403.731 17.5089L407.511 16.2001ZM404.054 10.3281H403.98V14.3281H404.054V10.3281ZM402.09 11.6764L400.53 16.2028L404.311 17.5062L405.871 12.9798L402.09 11.6764Z" fill="#606067"/>
<rect x="391" y="28" width="26" height="12" rx="4" fill="#282828"/>
<rect x="337.5" y="28.5" width="25" height="11" rx="3.5" fill="white" stroke="#AEAFB9"/>
<rect x="449" y="7" width="18" height="17" fill="#606067"/>
<path d="M454.844 21H452.312L456.234 9.6875H459.25L463.156 21H460.641L459.789 18.3906H455.695L454.844 21ZM456.289 16.5625H459.195L457.781 12.2344H457.703L456.289 16.5625Z" fill="white"/>
<line x1="446.818" y1="38.5344" x2="469.818" y2="29.5344" stroke="#FF5D47"/>
<rect x="445.5" y="28.5" width="25" height="11" rx="3.5" stroke="#AEAFB9"/>
<line y1="-0.5" x2="26.3536" y2="-0.5" transform="matrix(0.939879 -0.341509 0.388333 0.921519 502.154 39)" stroke="#FF5D47"/>
<rect x="500.5" y="28.5" width="27" height="11" rx="3.5" stroke="#AEAFB9"/>
</svg>
