<svg width="538" height="48" viewBox="0 0 538 48" fill="none" xmlns="http://www.w3.org/2000/svg">
<rect x="449" y="7" width="18" height="17" fill="#606067"/>
<rect x="1" y="1" width="195" height="46" rx="7" fill="white" stroke="#EEEFF3" stroke-width="2"/>
<rect x="206" y="1" width="112" height="46" rx="7" fill="white" stroke="#EEEFF3" stroke-width="2"/>
<rect x="328" y="1" width="44" height="46" rx="7" fill="white" stroke="#EEEFF3" stroke-width="2"/>
<rect x="382" y="1" width="44" height="46" rx="7" fill="white" stroke="#EEEFF3" stroke-width="2"/>
<rect x="436" y="1" width="44" height="46" rx="7" fill="white" stroke="#EEEFF3" stroke-width="2"/>
<rect x="490" y="1" width="47" height="46" rx="7" fill="white" stroke="#EEEFF3" stroke-width="2"/>
<path d="M17.536 22.296C17.536 18.936 17.856 17.064 18.736 16.152C19.136 15.752 19.68 15.528 20.368 15.528C21.072 15.528 21.632 15.752 22.016 16.152C22.832 16.984 23.152 18.6 23.2 21.4H25.136V15.608H26.384V29.688H25.136V22.52H23.216C23.2 25.736 22.896 27.544 22.016 28.424C21.632 28.84 21.072 29.032 20.368 29.032C19.68 29.032 19.136 28.84 18.736 28.424C17.856 27.528 17.536 25.656 17.536 22.296ZM18.784 22.296C18.784 25.288 18.96 26.888 19.536 27.576C19.76 27.816 20.032 27.944 20.368 27.944C20.72 27.944 21.008 27.816 21.216 27.576C21.792 26.888 21.984 25.288 21.984 22.296C21.984 19.32 21.792 17.704 21.216 17.032C21.008 16.776 20.72 16.648 20.368 16.648C20.032 16.648 19.76 16.776 19.536 17.032C18.96 17.704 18.784 19.32 18.784 22.296ZM29.408 29.832H28.16V15.528H29.408V29.832ZM39.0234 19.976C38.1274 21.864 36.1434 23.576 32.9114 24.2V23.048C36.2074 22.312 38.3674 20.168 38.3674 17.032V15.688H39.6634V17.032C39.6634 20.168 41.9034 22.312 45.1354 23.048V24.2C41.9354 23.544 39.9194 21.864 39.0234 19.976ZM32.6714 29.208V28.088H45.4074V29.208H32.6714ZM58.7028 21.24C57.4708 21.56 55.6628 21.672 53.9348 21.672H48.7988V20.552H53.9508C55.5988 20.552 57.4708 20.472 58.7028 20.168V16.904H48.7988V15.784H59.9828V21C59.9828 22.728 59.8388 24.472 59.5988 25.688H58.3348C58.5588 24.472 58.7028 22.728 58.7028 21.24ZM48.0308 29.208V28.088H52.5108V23.512H53.8068V28.088H60.7668V29.208H48.0308ZM69.7901 22.296C69.7901 19.864 69.5661 18.12 68.8461 17.288C68.5101 16.872 68.0141 16.648 67.4061 16.648C66.8141 16.648 66.3181 16.872 65.9501 17.288C65.2621 18.12 65.0221 19.864 65.0221 22.296C65.0221 24.712 65.2621 26.472 65.9501 27.32C66.3181 27.736 66.8141 27.944 67.4061 27.944C68.0141 27.944 68.5101 27.736 68.8461 27.32C69.5661 26.472 69.7901 24.712 69.7901 22.296ZM63.7421 22.296C63.7421 19.608 64.0621 17.624 65.0221 16.536C65.5821 15.88 66.3981 15.528 67.4061 15.528C68.3981 15.528 69.2301 15.88 69.7901 16.536C70.6541 17.496 70.9901 19.176 71.0541 21.416H73.9821V15.528H75.2781V29.848H73.9821V22.52H71.0701C71.0541 25.08 70.7341 26.984 69.7901 28.056C69.2301 28.728 68.3981 29.032 67.4061 29.032C66.3981 29.032 65.5821 28.728 65.0221 28.056C64.0621 26.952 63.7421 24.968 63.7421 22.296ZM95.3578 16.904H85.4538V22.696H95.5338V23.832H84.1738V15.784H95.3578V16.904ZM83.4058 29.208V28.088H96.1418V29.208H83.4058ZM105.853 23.384H99.1651V18.968H104.685V16.776H99.1651V15.688H105.965V20.04H100.445V22.296H106.141C107.581 22.296 108.685 22.072 109.421 21.496V15.528H110.701V24.024H109.421V22.536C108.701 23.144 107.517 23.384 105.853 23.384ZM100.061 30.008V25.16H110.701V30.008H100.061ZM109.421 26.28H101.357V28.904H109.421V26.28ZM119.805 25.016H123.645V18.664L119.805 25.016ZM126.557 25.016V26.184H125.005V28.984H123.645V26.184H118.317V25.016L123.517 16.44H125.005V25.016H126.557Z" fill="#282828"/>
<path d="M230.391 30L235.438 20.25V20.1562H229.609V18.6875H237.219V20.2188L232.188 30H230.391ZM242.641 30.1562C240.5 30.1562 238.891 28.8516 238.812 27.0469H240.484C240.578 28.0078 241.5 28.7109 242.641 28.7188C244.016 28.7109 245 27.7188 245 26.375C245 25 243.984 24 242.562 23.9844C241.656 23.9844 240.961 24.2891 240.578 24.9844H238.953L239.688 18.6875H246.094V20.1562H241.109L240.734 23.3281H240.844C241.312 22.875 242.109 22.5703 242.969 22.5625C245.102 22.5703 246.672 24.1484 246.672 26.3281C246.672 28.5547 245 30.1562 242.641 30.1562Z" fill="#282828"/>
<path d="M346.844 22L347.695 19.3906H351.789L352.641 22H355.156L351.25 10.6875H348.234L344.312 22H346.844ZM348.289 17.5625L349.703 13.2344H349.781L351.195 17.5625H348.289Z" fill="#606067"/>
<path d="M506.981 13.2656H500.3V14.1035H505.972V14.2969C505.972 15.5107 505.972 16.9233 505.585 18.8516L506.627 18.9482C506.981 16.8911 506.981 15.543 506.981 14.2969V13.2656ZM499.354 20.5488H508.131V19.7002H499.354V20.5488ZM516.843 12.2988H515.822V18.0029H516.843V12.2988ZM509.345 13.6846H512.761V14.7803H509.366V17.5732H510.172C511.993 17.5786 513.303 17.5249 514.877 17.2832L514.748 16.4453C513.282 16.687 512.052 16.7354 510.365 16.7354V15.5752H513.771V12.8682H509.345V13.6846ZM510.516 21.7949H516.843V18.4863H510.516V21.7949ZM511.525 20.9678V19.3027H515.844V20.9678H511.525ZM521.72 15.124V14.1035H523.814V13.2549H518.54V14.1035H520.71V15.124C520.705 16.7515 519.646 18.5669 518.186 19.2705L518.787 20.0762C519.883 19.5283 520.785 18.3413 521.226 16.9717C521.661 18.2285 522.52 19.3135 523.6 19.8291L524.18 19.0342C522.719 18.3413 521.714 16.644 521.72 15.124ZM524.846 21.9131H525.866V16.9609H527.413V16.1016H525.866V12.2881H524.846V21.9131Z" fill="black"/>
<path d="M400.975 21V23C401.828 23 402.587 22.4592 402.865 21.6532L400.975 21ZM399.261 21L397.379 20.324C397.159 20.9367 397.251 21.6182 397.625 22.1507C398 22.6831 398.61 23 399.261 23V21ZM403.07 10.3945V8.39453C402.226 8.39453 401.473 8.92429 401.188 9.71857L403.07 10.3945ZM404.93 10.3945L406.812 9.71626C406.526 8.92318 405.773 8.39453 404.93 8.39453V10.3945ZM408.753 21V23C409.405 23 410.015 22.6827 410.39 22.1497C410.764 21.6166 410.856 20.9346 410.635 20.3217L408.753 21ZM407.04 21L405.149 21.6532C405.428 22.4592 406.187 23 407.04 23V21ZM406.073 18.2021L407.963 17.5489C407.685 16.7429 406.926 16.2021 406.073 16.2021V18.2021ZM401.942 18.2021V16.2021C401.089 16.2021 400.33 16.7429 400.052 17.5489L401.942 18.2021ZM402.403 16.8545L400.512 16.2028C400.302 16.814 400.4 17.4893 400.775 18.0157C401.15 18.542 401.757 18.8545 402.403 18.8545V16.8545ZM405.604 16.8545V18.8545C406.251 18.8545 406.858 18.5415 407.233 18.0145C407.608 17.4874 407.706 16.8114 407.494 16.2001L405.604 16.8545ZM404.037 12.3281L405.927 11.6737C405.648 10.8683 404.889 10.3281 404.037 10.3281V12.3281ZM403.963 12.3281V10.3281C403.11 10.3281 402.351 10.8696 402.073 11.6764L403.963 12.3281ZM400.975 19H399.261V23H400.975V19ZM401.144 21.676L404.952 11.0705L401.188 9.71857L397.379 20.324L401.144 21.676ZM403.07 12.3945H404.93V8.39453H403.07V12.3945ZM403.049 11.0728L406.872 21.6783L410.635 20.3217L406.812 9.71626L403.049 11.0728ZM408.753 19H407.04V23H408.753V19ZM408.93 20.3468L407.963 17.5489L404.182 18.8553L405.149 21.6532L408.93 20.3468ZM406.073 16.2021H401.942V20.2021H406.073V16.2021ZM400.052 17.5489L399.085 20.3468L402.865 21.6532L403.832 18.8553L400.052 17.5489ZM402.403 18.8545H405.604V14.8545H402.403V18.8545ZM407.494 16.2001L405.927 11.6737L402.147 12.9826L403.714 17.5089L407.494 16.2001ZM404.037 10.3281H403.963V14.3281H404.037V10.3281ZM402.073 11.6764L400.512 16.2028L404.294 17.5062L405.854 12.9798L402.073 11.6764Z" fill="#606067"/>
<path d="M400.975 21H399.261L403.07 10.3945H404.93L408.753 21H407.04L406.073 18.2021H401.942L400.975 21ZM402.403 16.8545H405.604L404.037 12.3281H403.963L402.403 16.8545Z" fill="white"/>
<rect x="337.5" y="28.5" width="25" height="11" rx="3.5" fill="white" stroke="#AEAFB9"/>
<rect x="445" y="28" width="26" height="12" rx="4" fill="#282828"/>
<rect x="449" y="7" width="18" height="17" fill="#606067"/>
<path d="M454.844 21L455.695 18.3906H459.789L460.641 21H463.156L459.25 9.6875H456.234L452.312 21H454.844ZM456.289 16.5625L457.703 12.2344H457.781L459.195 16.5625H456.289Z" fill="white"/>
<line x1="392.818" y1="38.5344" x2="415.818" y2="29.5344" stroke="#FF5D47"/>
<rect x="391.5" y="28.5" width="25" height="11" rx="3.5" stroke="#AEAFB9"/>
<line y1="-0.5" x2="26.3536" y2="-0.5" transform="matrix(0.939879 -0.341509 0.388333 0.921519 502.154 39)" stroke="#FF5D47"/>
<rect x="500.5" y="28.5" width="27" height="11" rx="3.5" stroke="#AEAFB9"/>
</svg>
