<svg width="538" height="48" viewBox="0 0 538 48" fill="none" xmlns="http://www.w3.org/2000/svg">
<rect x="449" y="7" width="18" height="17" fill="#606067"/>
<rect x="1" y="1" width="195" height="46" rx="7" fill="white" stroke="#EEEFF3" stroke-width="2"/>
<rect x="206" y="1" width="112" height="46" rx="7" fill="white" stroke="#EEEFF3" stroke-width="2"/>
<rect x="328" y="1" width="44" height="46" rx="7" fill="white" stroke="#EEEFF3" stroke-width="2"/>
<rect x="382" y="1" width="44" height="46" rx="7" fill="white" stroke="#EEEFF3" stroke-width="2"/>
<rect x="436" y="1" width="44" height="46" rx="7" fill="white" stroke="#EEEFF3" stroke-width="2"/>
<rect x="490" y="1" width="47" height="46" rx="7" fill="white" stroke="#EEEFF3" stroke-width="2"/>
<path d="M23.504 30.616C19.584 30.616 16.784 27.784 16.784 23.912C16.784 20.04 19.584 17.208 23.504 17.208C26.768 17.208 29.216 19.112 29.888 21.56H28.064C27.536 19.944 25.728 18.744 23.536 18.744C20.576 18.744 18.464 20.904 18.464 23.912C18.464 26.936 20.576 29.112 23.568 29.112C26.192 29.112 28.144 27.384 28.336 25.064H23.232V23.608H30.128V24.184C30.128 27.96 27.248 30.616 23.504 30.616ZM46.0586 22.536V24.056H44.1386V30.664H42.5546V17H44.1386V22.536H46.0586ZM32.4106 29.848V17.496H40.0106V29.848H32.4106ZM33.9946 18.968V28.376H38.4266V18.968H33.9946ZM60.2973 17V26.728H58.7933V17H60.2973ZM52.9853 21.976C52.2333 24.456 50.0413 25.688 47.4333 25.688V24.312C49.4173 24.296 50.8573 23.592 51.4493 21.96H47.4333V20.632H51.7373C51.7533 20.424 51.7693 20.2 51.7693 19.976V18.68H47.4333V17.336H53.2733V19.96C53.2733 20.152 53.2733 20.344 53.2573 20.52H55.3373V17.08H56.8253V24.632H55.3373V21.976H52.9853ZM60.7293 29.272L60.1693 30.648L54.1373 27.976C52.6173 29.608 50.2812 30.488 47.8973 30.488V29C50.8093 29 53.3853 27.448 54.0573 24.888L55.6733 25.24C55.5133 25.832 55.2893 26.376 54.9853 26.856L60.7293 29.272ZM74.9199 20.104H76.8399V21.624H74.9199V27.144H73.3359V17H74.9199V20.104ZM67.1279 21.864C66.1359 23.592 64.5679 24.824 62.5839 25.08V23.592C65.1759 23.128 66.6959 20.312 66.7279 17.128L68.3119 17.224C68.3119 18.392 68.1199 19.512 67.7519 20.536L72.0719 23.8L71.1119 24.936L67.1279 21.864ZM65.0959 26.136V29.048H75.2879V30.488H63.4959V26.136H65.0959ZM84.5825 21.592C83.0465 24.008 80.7265 25.592 78.2145 25.592V24.088C81.1745 24.088 83.8945 20.888 84.5985 17.064L86.2305 17.352C86.0385 18.408 85.7185 19.416 85.2705 20.328L91.2865 24.376L90.4225 25.64L84.5825 21.592ZM77.9425 28.52H91.5905V30.008H77.9425V28.52ZM98.3135 17.512H99.7855L104.73 26.216L109.674 17.512H111.146V30.328H109.466V20.872L105.338 28.168H104.122L99.9935 20.872V30.328H98.3135V17.512ZM117.908 30.552C115.236 30.552 113.316 28.504 113.316 25.752C113.316 23 115.236 20.952 117.908 20.952C120.58 20.952 122.484 23 122.484 25.752C122.484 25.96 122.484 26.2 122.452 26.424H114.964C115.14 27.992 116.276 29.16 117.908 29.16C119.156 29.16 120.132 28.584 120.468 27.832H122.148C121.652 29.416 120.004 30.552 117.908 30.552ZM120.868 25.08C120.676 23.48 119.556 22.344 117.908 22.344C116.26 22.344 115.14 23.496 114.964 25.08H120.868ZM128.625 30.552C126.033 30.552 124.097 28.488 124.097 25.752C124.097 23.016 126.033 20.952 128.625 20.952C130.289 20.952 131.409 21.752 131.873 22.536V17.112H133.521V30.328H131.873V28.968C131.409 29.752 130.289 30.552 128.625 30.552ZM128.769 29.096C130.625 29.096 131.905 27.656 131.905 25.752C131.905 23.848 130.625 22.408 128.769 22.408C126.929 22.408 125.713 23.848 125.713 25.752C125.713 27.656 126.929 29.096 128.769 29.096ZM136.924 16.952C137.565 16.952 138.029 17.416 138.029 18.04C138.029 18.664 137.565 19.128 136.924 19.128C136.301 19.128 135.837 18.664 135.837 18.04C135.837 17.416 136.301 16.952 136.924 16.952ZM137.757 30.344H136.109V21.176H137.757V30.344ZM148.567 30.328H146.919V28.936C146.535 29.608 145.495 30.552 143.815 30.552C141.655 30.552 140.135 29 140.135 26.536V21.176H141.783V26.248C141.783 28.104 142.679 29.112 144.167 29.112C145.767 29.112 146.919 27.608 146.919 25.912V21.176H148.567V30.328ZM151.155 21.176H152.803V22.472C153.219 21.8 154.035 20.952 155.571 20.952C156.931 20.952 157.971 21.704 158.419 22.872C158.963 21.72 160.115 20.952 161.667 20.952C163.619 20.952 165.027 22.44 165.027 24.76V30.328H163.379V25.032C163.379 23.384 162.579 22.392 161.283 22.392C159.907 22.392 158.915 23.736 158.915 25.4V30.328H157.267V25.096C157.267 23.384 156.451 22.392 155.171 22.392C153.811 22.392 152.803 23.736 152.803 25.384V30.328H151.155V21.176Z" fill="#282828"/>
<path d="M230.391 30L235.438 20.25V20.1562H229.609V18.6875H237.219V20.2188L232.188 30H230.391ZM242.641 30.1562C240.5 30.1562 238.891 28.8516 238.812 27.0469H240.484C240.578 28.0078 241.5 28.7109 242.641 28.7188C244.016 28.7109 245 27.7188 245 26.375C245 25 243.984 24 242.562 23.9844C241.656 23.9844 240.961 24.2891 240.578 24.9844H238.953L239.688 18.6875H246.094V20.1562H241.109L240.734 23.3281H240.844C241.312 22.875 242.109 22.5703 242.969 22.5625C245.102 22.5703 246.672 24.1484 246.672 26.3281C246.672 28.5547 245 30.1562 242.641 30.1562Z" fill="#282828"/>
<path d="M346.844 22L347.695 19.3906H351.789L352.641 22H355.156L351.25 10.6875H348.234L344.312 22H346.844ZM348.289 17.5625L349.703 13.2344H349.781L351.195 17.5625H348.289Z" fill="#606067"/>
<path d="M506.981 13.2656H500.3V14.1035H505.972V14.2969C505.972 15.5107 505.972 16.9233 505.585 18.8516L506.627 18.9482C506.981 16.8911 506.981 15.543 506.981 14.2969V13.2656ZM499.354 20.5488H508.131V19.7002H499.354V20.5488ZM516.843 12.2988H515.822V18.0029H516.843V12.2988ZM509.345 13.6846H512.761V14.7803H509.366V17.5732H510.172C511.993 17.5786 513.303 17.5249 514.877 17.2832L514.748 16.4453C513.282 16.687 512.052 16.7354 510.365 16.7354V15.5752H513.771V12.8682H509.345V13.6846ZM510.516 21.7949H516.843V18.4863H510.516V21.7949ZM511.525 20.9678V19.3027H515.844V20.9678H511.525ZM521.72 15.124V14.1035H523.814V13.2549H518.54V14.1035H520.71V15.124C520.705 16.7515 519.646 18.5669 518.186 19.2705L518.787 20.0762C519.883 19.5283 520.785 18.3413 521.226 16.9717C521.661 18.2285 522.52 19.3135 523.6 19.8291L524.18 19.0342C522.719 18.3413 521.714 16.644 521.72 15.124ZM524.846 21.9131H525.866V16.9609H527.413V16.1016H525.866V12.2881H524.846V21.9131Z" fill="black"/>
<path d="M400.975 21H399.261L403.07 10.3945H404.93L408.753 21H407.04L406.073 18.2021H401.942L400.975 21ZM402.403 16.8545H405.604L404.037 12.3281H403.963L402.403 16.8545Z" fill="white"/>
<path d="M400.975 21V23C401.828 23 402.587 22.4592 402.865 21.6532L400.975 21ZM399.261 21L397.379 20.324C397.159 20.9367 397.251 21.6182 397.625 22.1507C398 22.6831 398.61 23 399.261 23V21ZM403.07 10.3945V8.39453C402.226 8.39453 401.473 8.92429 401.188 9.71857L403.07 10.3945ZM404.93 10.3945L406.812 9.71626C406.526 8.92318 405.773 8.39453 404.93 8.39453V10.3945ZM408.753 21V23C409.405 23 410.015 22.6827 410.39 22.1497C410.764 21.6166 410.856 20.9346 410.635 20.3217L408.753 21ZM407.04 21L405.149 21.6532C405.428 22.4592 406.187 23 407.04 23V21ZM406.073 18.2021L407.963 17.5489C407.685 16.7429 406.926 16.2021 406.073 16.2021V18.2021ZM401.942 18.2021V16.2021C401.089 16.2021 400.33 16.7429 400.052 17.5489L401.942 18.2021ZM402.403 16.8545L400.512 16.2028C400.302 16.814 400.4 17.4893 400.775 18.0157C401.15 18.542 401.757 18.8545 402.403 18.8545V16.8545ZM405.604 16.8545V18.8545C406.251 18.8545 406.858 18.5415 407.233 18.0145C407.608 17.4874 407.706 16.8114 407.494 16.2001L405.604 16.8545ZM404.037 12.3281L405.927 11.6737C405.648 10.8683 404.889 10.3281 404.037 10.3281V12.3281ZM403.963 12.3281V10.3281C403.11 10.3281 402.351 10.8696 402.073 11.6764L403.963 12.3281ZM400.975 19H399.261V23H400.975V19ZM401.144 21.676L404.952 11.0705L401.188 9.71857L397.379 20.324L401.144 21.676ZM403.07 12.3945H404.93V8.39453H403.07V12.3945ZM403.049 11.0728L406.872 21.6783L410.635 20.3217L406.812 9.71626L403.049 11.0728ZM408.753 19H407.04V23H408.753V19ZM408.93 20.3468L407.963 17.5489L404.182 18.8553L405.149 21.6532L408.93 20.3468ZM406.073 16.2021H401.942V20.2021H406.073V16.2021ZM400.052 17.5489L399.085 20.3468L402.865 21.6532L403.832 18.8553L400.052 17.5489ZM402.403 18.8545H405.604V14.8545H402.403V18.8545ZM407.494 16.2001L405.927 11.6737L402.147 12.9826L403.714 17.5089L407.494 16.2001ZM404.037 10.3281H403.963V14.3281H404.037V10.3281ZM402.073 11.6764L400.512 16.2028L404.294 17.5062L405.854 12.9798L402.073 11.6764Z" fill="#606067"/>
<path d="M400.975 21H399.261L403.07 10.3945H404.93L408.753 21H407.04L406.073 18.2021H401.942L400.975 21ZM402.403 16.8545H405.604L404.037 12.3281H403.963L402.403 16.8545Z" fill="white"/>
<rect x="337" y="28" width="26" height="12" rx="4" fill="#282828"/>
<rect x="445.5" y="28.5" width="25" height="11" rx="3.5" fill="white" stroke="#AEAFB9"/>
<rect x="449" y="7" width="18" height="17" fill="#606067"/>
<path d="M454.844 21L455.695 18.3906H459.789L460.641 21H463.156L459.25 9.6875H456.234L452.312 21H454.844ZM456.289 16.5625L457.703 12.2344H457.781L459.195 16.5625H456.289Z" fill="white"/>
<line x1="392.818" y1="38.5344" x2="415.818" y2="29.5344" stroke="#FF5D47"/>
<rect x="391.5" y="28.5" width="25" height="11" rx="3.5" stroke="#AEAFB9"/>
<line y1="-0.5" x2="26.3536" y2="-0.5" transform="matrix(0.939879 -0.341509 0.388333 0.921519 502.154 39)" stroke="#FF5D47"/>
<rect x="500.5" y="28.5" width="27" height="11" rx="3.5" stroke="#AEAFB9"/>
</svg>
