<svg width="538" height="48" viewBox="0 0 538 48" fill="none" xmlns="http://www.w3.org/2000/svg">
<rect x="449" y="7" width="18" height="17" fill="#606067"/>
<rect x="1" y="1" width="195" height="46" rx="7" fill="white" stroke="#EEEFF3" stroke-width="2"/>
<rect x="206" y="1" width="112" height="46" rx="7" fill="white" stroke="#EEEFF3" stroke-width="2"/>
<rect x="328" y="1" width="44" height="46" rx="7" fill="white" stroke="#EEEFF3" stroke-width="2"/>
<rect x="382" y="1" width="44" height="46" rx="7" fill="white" stroke="#EEEFF3" stroke-width="2"/>
<rect x="436" y="1" width="44" height="46" rx="7" fill="white" stroke="#EEEFF3" stroke-width="2"/>
<rect x="490" y="1" width="47" height="46" rx="7" fill="white" stroke="#EEEFF3" stroke-width="2"/>
<path d="M23 31.12C21.98 29.86 20.78 27.76 19.32 24.8C18.86 25.28 18.38 25.82 17.86 26.42C17.66 28.02 17.5 29.62 17.36 31.24C17.32 31.76 16.76 31.7 16.76 31.22C16.78 27.62 17.9 20.4 18.26 19.4C18.44 18.9 19.2 18.82 19.06 19.42C18.64 21.3 18.3 23.2 18.04 25.12C19.5 23.32 22.22 20.92 23.32 20.06C23.78 19.7 24.14 20.22 23.76 20.6C22.76 21.56 21.52 22.54 19.96 24.12C20.96 26.48 22.52 29.32 23.42 30.66C23.68 31.06 23.22 31.4 23 31.12ZM26.3645 31.54C24.9645 31.14 24.6845 29.06 25.2845 25.16C25.6845 22.54 26.3245 19.18 28.8645 19.18C30.5445 19.18 30.6845 20.88 30.3645 21.94C30.2645 22.3 29.8045 22.22 29.8445 21.86C29.9245 21.06 29.9645 19.76 28.7845 19.86C27.0045 20 26.4445 22.8 26.0245 25.32C25.5245 28.28 25.6645 30.64 26.5045 30.9C27.5245 31.22 28.5245 30.04 28.9045 28.68C29.0645 28.08 29.6045 28.34 29.5245 28.82C29.2245 30.54 27.8245 31.96 26.3645 31.54ZM33.3567 31.54C31.9567 31.14 31.6767 29.06 32.2767 25.16C32.6767 22.54 33.3167 19.18 35.8567 19.18C37.5367 19.18 37.6767 20.88 37.3567 21.94C37.2567 22.3 36.7967 22.22 36.8367 21.86C36.9167 21.06 36.9567 19.76 35.7767 19.86C33.9967 20 33.4367 22.8 33.0167 25.32C32.5167 28.28 32.6567 30.64 33.4967 30.9C34.5167 31.22 35.5167 30.04 35.8967 28.68C36.0567 28.08 36.5967 28.34 36.5167 28.82C36.2167 30.54 34.8167 31.96 33.3567 31.54ZM46.465 31.18C46.465 30.8 46.845 30.08 47.125 29.58C47.365 29.22 47.965 28.52 48.285 28.32C48.585 28.14 48.925 28.3 48.645 28.72C48.225 29.26 47.585 30.16 47.365 30.8C47.185 31.3 47.305 31.54 47.765 31.58C48.305 31.62 49.125 31.52 49.785 31.44C50.245 31.38 50.725 31.32 51.185 31.24C51.645 31.16 51.645 31.58 51.405 31.68C50.425 32.08 48.625 32.36 47.965 32.36C46.505 32.36 46.465 31.78 46.465 31.18ZM52.225 24.94C52.505 24.86 52.505 25.26 52.365 25.4C50.465 26.24 47.185 26.76 44.805 26.68C44.405 26.66 44.525 26.1 44.865 26.08C46.985 25.98 49.765 25.6 52.225 24.94ZM46.705 23.06C46.705 21.36 48.085 19.02 49.265 18.82C49.505 18.76 49.565 18.82 49.625 18.92L49.665 19.04C50.165 19.16 50.605 19.64 50.645 20.16C50.725 21.04 50.345 21.66 49.985 22.24C49.325 23.26 48.505 23.84 47.865 23.9C47.125 23.96 46.705 23.64 46.705 23.06ZM49.405 21.9C49.745 21.4 49.985 20.88 49.985 20.36C49.985 19.86 49.845 19.54 49.345 19.54C48.485 19.82 47.565 21.8 47.565 22.84C47.565 23.18 47.745 23.28 48.205 23.08C48.665 22.86 49.025 22.5 49.405 21.9ZM54.1522 27.02C53.2322 26.8 53.5122 25.38 53.7522 24.58C54.0122 23.7 54.2522 22.98 54.8322 22.22C54.7322 21.94 55.3122 21.9 55.3122 21.9C55.7722 21.84 56.5122 21.98 56.6722 22.54C56.9922 23.48 56.6722 24.76 56.2122 25.58C55.7522 26.42 55.2122 27.28 54.1522 27.02ZM62.9122 18.78C62.9122 18.58 63.0122 18.44 63.2722 18.44C63.5522 18.44 63.6922 18.58 63.6922 18.74C63.6722 20.2 63.4722 21.68 63.2522 23.18C63.0522 24.54 62.8122 26.4 62.6922 28.32C62.6722 28.6 62.2322 28.66 62.2122 28.36C62.1522 27.36 62.1922 26.28 62.2722 25.26C60.7922 25.28 58.9522 25.92 57.7922 26.4C57.5922 26.48 57.3122 26.48 57.2522 26.26C57.1922 26.1 57.1722 25.94 57.3522 25.84C58.2522 25.34 60.7722 24.7 62.3322 24.74C62.3722 24.2 62.4522 23.68 62.5122 23.2C62.6922 21.74 62.9122 20.42 62.9122 18.78ZM60.7922 32.66C60.4722 32.98 60.0722 33.08 59.7722 33.08C59.3122 33.08 59.0122 32.64 58.9722 32.18C58.8722 30.92 59.2322 29.68 59.6522 28.84C59.7922 28.58 59.9722 28.46 60.1322 28.44C60.2722 28.44 60.4722 28.46 60.4522 28.6L60.4322 28.74C61.3922 28.72 61.7922 29.42 61.7722 30.02C61.7322 30.94 61.5322 31.94 60.7922 32.66ZM55.3522 22.5C54.9722 23.02 54.7122 23.78 54.4722 24.68C54.2122 25.64 54.1522 26.08 54.5122 26.22C55.0122 26.42 55.4722 25.66 55.7122 25.16C56.0122 24.52 56.2722 23.68 56.1122 22.88C56.0322 22.5 55.7322 22.42 55.3522 22.5ZM60.2522 29.2C59.9322 29.92 59.6522 30.96 59.6922 31.94C59.7122 32.5 60.1122 32.4 60.3722 32.14C60.8122 31.7 61.0722 31.02 61.1322 30.1C61.1722 29.48 60.7722 29.18 60.2522 29.2ZM61.7322 22.56C60.3522 22.64 59.1922 23.1 58.0722 23.8H58.0922C57.9322 23.88 57.6722 23.82 57.7122 23.5C57.7322 23.28 57.8122 23.16 58.0122 23.02C59.2322 22.32 60.7122 22.02 61.6522 22.06C62.0522 22.08 62.0122 22.54 61.7322 22.56ZM73.8203 32.22C73.8203 32.48 73.3203 32.62 73.3003 32.22C73.1403 27.98 73.9603 23.8 74.2803 18.6C74.3003 18.3 74.6403 18.3 74.8603 18.36C75.0403 18.42 75.0803 18.6 75.0603 18.94C74.7403 23.38 73.9403 27.34 73.8203 32.22ZM64.8203 28.02C65.4003 26.48 67.0603 25.12 67.8803 23.64C68.0803 23.26 67.9603 23.06 67.4803 23.18C66.8203 23.34 66.3803 23.72 65.9803 24C65.7203 24.18 65.3603 23.8 65.6003 23.54C66.0603 23.04 66.8003 22.74 67.4003 22.62C68.2003 22.46 69.1203 22.68 68.5203 23.84C68.3403 24.18 68.1003 24.52 67.8003 24.88C67.8603 25.46 68.1203 26.98 68.5803 28.66C68.6603 28.92 68.2803 29.1 68.1403 28.84C67.8803 28.38 67.4003 26.56 67.2003 25.6C66.5603 26.34 65.8403 27.2 65.2203 28.24C65.0403 28.56 64.6803 28.38 64.8203 28.02ZM71.7003 28.82C71.7003 29.08 71.2203 29.18 71.2003 28.78C71.1003 27.54 71.2603 26.06 71.4203 24.54C70.6403 24.62 69.8403 24.86 69.0403 25.36C68.8003 25.48 68.5403 25.14 68.8403 24.84C69.3603 24.38 70.3603 24.02 71.5003 23.92C71.6203 22.84 71.7203 21.72 71.7403 20.68C71.7403 20.38 72.1003 20.34 72.3203 20.42C72.5003 20.48 72.5403 20.66 72.5203 21C72.4003 23.42 71.8003 26.02 71.7003 28.82ZM68.5803 20.62C68.9003 20.58 68.9803 20.68 69.0003 20.86C69.0203 21.14 68.9403 21.16 68.6403 21.22C67.7203 21.4 66.6803 21.76 66.0403 22.26C65.9003 22.36 65.6803 22.42 65.6003 22.3C65.5203 22.2 65.5003 22.1 65.6603 21.9C66.1003 21.4 67.5203 20.74 68.5803 20.62Z" fill="#282828"/>
<path d="M234.297 18.6875V30H232.562V20.4062H232.5L229.797 22.1719V20.5312L232.609 18.6875H234.297ZM241.109 30.1562C238.492 30.1562 236.953 28.0469 236.953 24.3438C236.953 20.6641 238.508 18.5312 241.109 18.5312C243.703 18.5312 245.258 20.6641 245.266 24.3438C245.258 28.0469 243.727 30.1562 241.109 30.1562ZM238.672 24.3438C238.664 27.1641 239.578 28.6719 241.109 28.6719C242.633 28.6719 243.547 27.1641 243.547 24.3438C243.547 21.5312 242.625 19.9922 241.109 19.9844C239.586 19.9922 238.672 21.5312 238.672 24.3438Z" fill="#282828"/>
<path d="M346.844 22L347.695 19.3906H351.789L352.641 22H355.156L351.25 10.6875H348.234L344.312 22H346.844ZM348.289 17.5625L349.703 13.2344H349.781L351.195 17.5625H348.289Z" fill="#606067"/>
<path d="M506.981 13.2656H500.3V14.1035H505.972V14.2969C505.972 15.5107 505.972 16.9233 505.585 18.8516L506.627 18.9482C506.981 16.8911 506.981 15.543 506.981 14.2969V13.2656ZM499.354 20.5488H508.131V19.7002H499.354V20.5488ZM516.843 12.2988H515.822V18.0029H516.843V12.2988ZM509.345 13.6846H512.761V14.7803H509.366V17.5732H510.172C511.993 17.5786 513.303 17.5249 514.877 17.2832L514.748 16.4453C513.282 16.687 512.052 16.7354 510.365 16.7354V15.5752H513.771V12.8682H509.345V13.6846ZM510.516 21.7949H516.843V18.4863H510.516V21.7949ZM511.525 20.9678V19.3027H515.844V20.9678H511.525ZM521.72 15.124V14.1035H523.814V13.2549H518.54V14.1035H520.71V15.124C520.705 16.7515 519.646 18.5669 518.186 19.2705L518.787 20.0762C519.883 19.5283 520.785 18.3413 521.226 16.9717C521.661 18.2285 522.52 19.3135 523.6 19.8291L524.18 19.0342C522.719 18.3413 521.714 16.644 521.72 15.124ZM524.846 21.9131H525.866V16.9609H527.413V16.1016H525.866V12.2881H524.846V21.9131Z" fill="black"/>
<path d="M400.975 21V23C401.828 23 402.587 22.4592 402.865 21.6532L400.975 21ZM399.261 21L397.379 20.324C397.159 20.9367 397.251 21.6182 397.625 22.1507C398 22.6831 398.61 23 399.261 23V21ZM403.07 10.3945V8.39453C402.226 8.39453 401.473 8.92429 401.188 9.71857L403.07 10.3945ZM404.93 10.3945L406.812 9.71626C406.526 8.92318 405.773 8.39453 404.93 8.39453V10.3945ZM408.753 21V23C409.405 23 410.015 22.6827 410.39 22.1497C410.764 21.6166 410.856 20.9346 410.635 20.3217L408.753 21ZM407.04 21L405.149 21.6532C405.428 22.4592 406.187 23 407.04 23V21ZM406.073 18.2021L407.963 17.5489C407.685 16.7429 406.926 16.2021 406.073 16.2021V18.2021ZM401.942 18.2021V16.2021C401.089 16.2021 400.33 16.7429 400.052 17.5489L401.942 18.2021ZM402.403 16.8545L400.512 16.2028C400.302 16.814 400.4 17.4893 400.775 18.0157C401.15 18.542 401.757 18.8545 402.403 18.8545V16.8545ZM405.604 16.8545V18.8545C406.251 18.8545 406.858 18.5415 407.233 18.0145C407.608 17.4874 407.706 16.8114 407.494 16.2001L405.604 16.8545ZM404.037 12.3281L405.927 11.6737C405.648 10.8683 404.889 10.3281 404.037 10.3281V12.3281ZM403.963 12.3281V10.3281C403.11 10.3281 402.351 10.8696 402.073 11.6764L403.963 12.3281ZM400.975 19H399.261V23H400.975V19ZM401.144 21.676L404.952 11.0705L401.188 9.71857L397.379 20.324L401.144 21.676ZM403.07 12.3945H404.93V8.39453H403.07V12.3945ZM403.049 11.0728L406.872 21.6783L410.635 20.3217L406.812 9.71626L403.049 11.0728ZM408.753 19H407.04V23H408.753V19ZM408.93 20.3468L407.963 17.5489L404.182 18.8553L405.149 21.6532L408.93 20.3468ZM406.073 16.2021H401.942V20.2021H406.073V16.2021ZM400.052 17.5489L399.085 20.3468L402.865 21.6532L403.832 18.8553L400.052 17.5489ZM402.403 18.8545H405.604V14.8545H402.403V18.8545ZM407.494 16.2001L405.927 11.6737L402.147 12.9826L403.714 17.5089L407.494 16.2001ZM404.037 10.3281H403.963V14.3281H404.037V10.3281ZM402.073 11.6764L400.512 16.2028L404.294 17.5062L405.854 12.9798L402.073 11.6764Z" fill="#606067"/>
<path d="M400.975 21H399.261L403.07 10.3945H404.93L408.753 21H407.04L406.073 18.2021H401.942L400.975 21ZM402.403 16.8545H405.604L404.037 12.3281H403.963L402.403 16.8545Z" fill="white"/>
<rect x="337" y="28" width="26" height="12" rx="4" fill="#282828"/>
<rect x="337.5" y="28.5" width="25" height="11" rx="3.5" fill="white" stroke="#AEAFB9"/>
<rect x="502" y="28" width="26" height="12" rx="4" fill="#282828"/>
<rect x="449" y="7" width="18" height="17" fill="#606067"/>
<path d="M454.844 21L455.695 18.3906H459.789L460.641 21H463.156L459.25 9.6875H456.234L452.312 21H454.844ZM456.289 16.5625L457.703 12.2344H457.781L459.195 16.5625H456.289Z" fill="white"/>
<line x1="446.818" y1="38.5344" x2="469.818" y2="29.5344" stroke="#FF5D47"/>
<rect x="445.5" y="28.5" width="25" height="11" rx="3.5" stroke="#AEAFB9"/>
<line y1="-0.5" x2="26.3536" y2="-0.5" transform="matrix(0.939879 -0.341509 0.388333 0.921519 393.154 39)" stroke="#FF5D47"/>
<rect x="391.5" y="28.5" width="27" height="11" rx="3.5" stroke="#AEAFB9"/>
</svg>
