<svg width="50" height="50" viewBox="0 0 50 50" fill="none" xmlns="http://www.w3.org/2000/svg">
    <path
        d="M42.8958 25C42.8981 23.9022 42.7934 22.8067 42.5833 21.7292L46.9375 19.2292L40.9583 8.8125L36.625 11.3125C34.9499 9.89299 33.0294 8.79157 30.9583 8.0625V3.125H19.0417V8.14583C16.9706 8.8749 15.0501 9.97633 13.375 11.3958L9.04167 8.89583L3.0625 19.3125L7.41667 21.8125C6.99993 23.9731 6.99993 26.1935 7.41667 28.3542L3.0625 30.8542L9.04167 41.2708L13.375 38.7708C15.0501 40.1903 16.9706 41.2918 19.0417 42.0208V46.875H30.9583V41.8542C33.0294 41.1251 34.9499 40.0237 36.625 38.6042L40.9583 41.1042L46.9375 30.6875L42.5833 28.1875C42.7881 27.1373 42.8927 26.07 42.8958 25Z"
        stroke="#282828" stroke-width="3" stroke-miterlimit="10" stroke-linejoin="round" />
    <path
        d="M24.9993 32.9577C29.3946 32.9577 32.9577 29.3946 32.9577 24.9993C32.9577 20.6041 29.3946 17.041 24.9993 17.041C20.6041 17.041 17.041 20.6041 17.041 24.9993C17.041 29.3946 20.6041 32.9577 24.9993 32.9577Z"
        stroke="#282828" stroke-width="3" stroke-miterlimit="10" stroke-linejoin="round" />
</svg>