<svg width="29" height="26" viewBox="0 0 29 26" fill="none" xmlns="http://www.w3.org/2000/svg">
<rect width="29" height="26" fill="white"/>
<path d="M7.98145 9.26562V10.2969C7.98145 11.543 7.98145 12.8911 7.62695 14.9482L6.58496 14.8516C6.97168 12.9233 6.97168 11.5107 6.97168 10.2969V10.1035H1.2998V9.26562H7.98145ZM0.354492 16.5488V15.7002H9.13086V16.5488H0.354492ZM17.8428 8.29883V14.0029H16.8223V8.29883H17.8428ZM10.3447 9.68457V8.86816H14.7705V11.5752H11.3652V12.7354C13.0518 12.7354 14.2817 12.687 15.748 12.4453L15.877 13.2832C14.3032 13.5249 12.9927 13.5786 11.1719 13.5732H10.3662V10.7803H13.7607V9.68457H10.3447ZM11.5156 17.7949V14.4863H17.8428V17.7949H11.5156ZM12.5254 16.9678H16.8438V15.3027H12.5254V16.9678ZM22.7197 11.124C22.7144 12.644 23.7188 14.3413 25.1797 15.0342L24.5996 15.8291C23.52 15.3135 22.6606 14.2285 22.2256 12.9717C21.7852 14.3413 20.8828 15.5283 19.7871 16.0762L19.1855 15.2705C20.6465 14.5669 21.7046 12.7515 21.71 11.124V10.1035H19.54V9.25488H24.8145V10.1035H22.7197V11.124ZM25.8457 17.9131V8.28809H26.8662V12.1016H28.4131V12.9609H26.8662V17.9131H25.8457Z" fill="black"/>
</svg>
