<svg width="29" height="10" viewBox="0 0 29 10" fill="none" xmlns="http://www.w3.org/2000/svg">
<path d="M7.98145 1.26562V2.29688C7.98145 3.54297 7.98145 4.89111 7.62695 6.94824L6.58496 6.85156C6.97168 4.92334 6.97168 3.51074 6.97168 2.29688V2.10352H1.2998V1.26562H7.98145ZM0.354492 8.54883V7.7002H9.13086V8.54883H0.354492ZM17.8428 0.298828V6.00293H16.8223V0.298828H17.8428ZM10.3447 1.68457V0.868164H14.7705V3.5752H11.3652V4.73535C13.0518 4.73535 14.2817 4.68701 15.748 4.44531L15.877 5.2832C14.3032 5.5249 12.9927 5.57861 11.1719 5.57324H10.3662V2.78027H13.7607V1.68457H10.3447ZM11.5156 9.79492V6.48633H17.8428V9.79492H11.5156ZM12.5254 8.96777H16.8438V7.30273H12.5254V8.96777ZM22.7197 3.12402C22.7144 4.64404 23.7188 6.34131 25.1797 7.03418L24.5996 7.8291C23.52 7.31348 22.6606 6.22852 22.2256 4.97168C21.7852 6.34131 20.8828 7.52832 19.7871 8.07617L19.1855 7.27051C20.6465 6.56689 21.7046 4.75146 21.71 3.12402V2.10352H19.54V1.25488H24.8145V2.10352H22.7197V3.12402ZM25.8457 9.91309V0.288086H26.8662V4.10156H28.4131V4.96094H26.8662V9.91309H25.8457Z" fill="black"/>
</svg>
