<svg width="196" height="51" viewBox="0 0 196 51" fill="none" xmlns="http://www.w3.org/2000/svg">
<g clip-path="url(#clip0_1164_1172)">
<path d="M25.0147 10.9087L20.2794 6.29387C19.5294 5.56068 18.5 5.12939 17.4265 5.12939L3.60294 5H2.47059C1.10294 5 0 6.07822 0 7.41522V38.3962C0 38.7269 0.279412 39 0.617647 39H48.3824C48.7206 39 49 38.7269 49 38.3962V14.6034C49 12.6626 47.3824 11.0812 45.3971 11.0812H25.4412C25.2794 11.0812 25.1176 11.0237 25 10.9087H25.0147Z" fill="#7230FF"/>
<path d="M19.3123 23.3129C22.1505 23.3129 22.1505 19 19.3123 19C16.474 19 16.474 23.3129 19.3123 23.3129Z" fill="white"/>
<path d="M28.6638 23.3129C31.5021 23.3129 31.5021 19 28.6638 19C25.8256 19 25.8256 23.3129 28.6638 23.3129Z" fill="white"/>
<path d="M15.3998 27.3233C19.7527 32.5131 28.3116 32.5131 32.591 27.2514C33.091 26.6476 33.1939 25.8138 32.591 25.2243C32.0763 24.7212 31.0027 24.6062 30.5174 25.2243C28.9145 27.1939 26.7086 28.3728 24.091 28.3871C21.4733 28.4015 19.1351 27.2514 17.488 25.2962C16.988 24.6924 15.9292 24.7787 15.4145 25.2962C14.8116 25.8857 14.9145 26.7339 15.4145 27.3233H15.3998Z" fill="white"/>
</g>
<path d="M71.32 38.192V28.592H79.544C81.432 28.592 82.136 27.152 82.136 25.84C82.136 24.528 81.4 22.992 79.544 22.992H71.32V18.96C71.32 18.192 71.512 18.032 72.248 18.032H80.376C82.264 18.032 82.968 16.592 82.968 15.28C82.968 13.968 82.232 12.432 80.376 12.432H69.72C65.88 12.432 64.728 13.808 64.728 17.488V38.192H71.32ZM99.2098 29.584C99.2098 31.984 97.1938 33.168 95.4978 33.168C93.8018 33.168 91.7858 31.984 91.7858 29.584V15.472C91.7858 13.296 90.2818 12.304 88.4898 12.304C86.7298 12.304 85.1938 13.296 85.1938 15.472V29.328C85.1938 36.464 90.8898 38.736 95.4978 38.736C100.106 38.736 105.802 36.464 105.802 29.328V15.472C105.802 13.296 104.298 12.304 102.506 12.304C100.746 12.304 99.2098 13.296 99.2098 15.472V29.584ZM116.462 14.224C115.662 12.848 113.87 12.208 112.334 12.368C110.862 12.528 109.134 13.584 109.134 15.568V38.192H114.958V22.896L122.766 36.72C123.566 38.096 125.422 38.704 126.958 38.576C128.398 38.448 130.094 37.456 130.094 35.504V15.344C130.094 13.392 128.718 12.304 127.182 12.304C125.646 12.304 124.27 13.392 124.27 15.344V28.112L116.462 14.224ZM133.061 35.44C133.061 37.424 134.341 38.672 136.485 38.672C138.629 38.672 139.909 37.392 139.909 35.44C139.909 33.488 138.629 32.208 136.485 32.208C134.341 32.208 133.061 33.456 133.061 35.44ZM153.156 18.064L143.332 31.536C141.572 33.968 141.924 35.632 142.468 36.56C143.14 37.712 144.452 38.192 146.244 38.192H159.044C160.9 38.192 161.668 36.656 161.668 35.376C161.668 34.128 160.932 32.656 159.044 32.656H150.212L160.004 19.184C161.668 16.912 161.476 15.248 160.868 14.16C160.228 13.04 158.884 12.528 157.092 12.528H145.092C143.236 12.528 142.5 14.064 142.5 15.312C142.5 16.592 143.204 18.064 145.092 18.064H153.156ZM164.007 38.192H170.663V15.504C170.663 13.296 169.127 12.304 167.335 12.304C165.543 12.304 164.007 13.296 164.007 15.504V38.192ZM184.569 30.576C190.105 30.576 194.169 27.824 194.169 21.776V21.232C194.169 15.184 190.105 12.432 184.569 12.432H179.001C175.161 12.432 174.009 13.808 174.009 17.488V38.192H180.601V30.576H184.569ZM180.601 18.928C180.601 18.16 180.793 18 181.529 18H184.249C186.393 18 187.609 19.6 187.609 21.392V21.616C187.609 23.408 186.393 25.008 184.249 25.008H180.601V18.928Z" fill="white"/>
<defs>
<clipPath id="clip0_1164_1172">
<rect width="49" height="34" fill="white" transform="translate(0 5)"/>
</clipPath>
</defs>
</svg>
