<svg width="162" height="118" viewBox="0 0 162 118" fill="none" xmlns="http://www.w3.org/2000/svg">
<g clip-path="url(#clip0_269_1419)">
<path d="M56.4755 19.7096L44.8331 11.0334C42.9884 9.65427 40.6216 9.01139 38.2823 9.31867L8.12336 12.9941L5.65594 13.3182C2.6758 13.7097 0.581825 16.3692 0.965436 19.2756L9.85449 86.6217C9.94936 87.3405 10.6366 87.8543 11.3736 87.7575L115.454 74.0858C116.191 73.989 116.722 73.3152 116.627 72.5965L109.8 20.8759C109.243 16.6569 105.265 13.6823 100.939 14.2506L57.4542 19.9626C57.1018 20.0089 56.7328 19.9302 56.4434 19.7138L56.4755 19.7096Z" fill="#FF5D47"/>
<path d="M42.8506 48.9311C49.0352 48.1187 47.7978 38.7434 41.6132 39.5557C35.4286 40.3681 36.666 49.7435 42.8506 48.9311Z" fill="white"/>
<path d="M67.9875 45.6293C74.1721 44.8169 72.9346 35.4416 66.75 36.254C60.5654 37.0664 61.8029 46.4417 67.9875 45.6293Z" fill="white"/>
<path d="M40.234 58.144C51.2082 68.1797 69.8581 65.7299 77.6734 53.0671C78.5897 51.6115 78.5747 49.7694 77.0918 48.6607C75.8259 47.7142 73.4536 47.7715 72.5735 49.2542C69.6458 53.9944 65.1773 57.1884 59.4775 57.9689C53.7777 58.7494 48.3527 56.9186 44.2027 53.1399C42.94 51.9705 40.6575 52.461 39.6844 53.7334C38.5397 55.1873 39.0074 57.0016 40.266 58.1398L40.234 58.144Z" fill="white"/>
</g>
<g clip-path="url(#clip1_269_1419)">
<path d="M83.4444 48.557L74.8583 36.8607C73.4992 35.0032 71.4248 33.6972 69.0978 33.3078L39.1817 28.0139L36.7273 27.6032C33.7628 27.1071 30.9801 29.0385 30.494 31.9296L19.2294 98.9211C19.1091 99.6361 19.6154 100.328 20.3486 100.451L123.881 117.776C124.614 117.899 125.319 117.41 125.439 116.695L134.09 65.2463C134.796 61.0496 131.865 57.0434 127.561 56.3233L84.306 49.0848C83.9554 49.0261 83.6257 48.8431 83.4125 48.5517L83.4444 48.557Z" fill="#7230FF"/>
<path d="M87.2418 76.6362C93.3938 77.6657 94.962 68.3397 88.8099 67.3102C82.6579 66.2807 81.0898 75.6067 87.2418 76.6362Z" fill="white"/>
<path d="M88.7381 89.873C87.9113 94.1826 81.2705 90.9258 73.1706 89.3792C65.0706 87.8325 58.5787 88.5816 59.4056 84.272C60.2325 79.9624 67.4691 77.7226 75.569 79.2692C83.669 80.8159 89.565 85.5634 88.7381 89.873Z" fill="white"/>
<path d="M64.3991 70.7242L71.6637 65.6509M65.2756 64.3987L70.7246 71.6007" stroke="white" stroke-width="3" stroke-linecap="round"/>
</g>
<path d="M137.791 44.4519C136.058 41.4573 131.735 41.4574 130.001 44.4519L111.495 76.4285C109.759 79.4285 111.924 83.1826 115.39 83.1826H152.402C155.869 83.1826 158.033 79.4285 156.297 76.4285L137.791 44.4519Z" fill="#FFBB56" stroke="#F8F8FA" stroke-width="3"/>
<path d="M136.318 57.707H132.263L132.615 69.4961H135.967L136.318 57.707ZM132.17 72.7773C132.146 73.9609 133.119 74.9102 134.279 74.9102C135.404 74.9102 136.4 73.9609 136.412 72.7773C136.4 71.6289 135.404 70.6914 134.279 70.6914C133.119 70.6914 132.146 71.6289 132.17 72.7773Z" fill="white"/>
<defs>
<clipPath id="clip0_269_1419">
<rect width="107.689" height="74.5499" fill="white" transform="matrix(0.991483 -0.130238 0.130856 0.991401 0.272461 14.0254)"/>
</clipPath>
<clipPath id="clip1_269_1419">
<rect width="107.687" height="74.5518" fill="white" transform="matrix(0.986286 0.165048 -0.165822 0.986156 31.3721 26.707)"/>
</clipPath>
</defs>
</svg>
