<svg width="445" height="278" viewBox="0 0 445 278" fill="none" xmlns="http://www.w3.org/2000/svg">
<g clip-path="url(#clip0_101_334)">
<path d="M213.73 19.8467L202.035 11.1103C200.182 9.7216 197.805 9.07426 195.455 9.38367L165.16 13.0846L162.681 13.411C159.688 13.8052 157.584 16.4831 157.97 19.4097L166.899 87.2231C166.994 87.9468 167.684 88.4642 168.425 88.3667L272.976 74.6001C273.716 74.5027 274.249 73.8242 274.154 73.1005L267.296 21.021C266.737 16.7729 262.74 13.7776 258.395 14.3498L214.714 20.1014C214.36 20.148 213.989 20.0688 213.698 19.851L213.73 19.8467Z" fill="#FF5D47"/>
<path d="M200.044 49.2712C206.257 48.4532 205.014 39.0128 198.801 39.8308C192.588 40.6488 193.832 50.0892 200.044 49.2712Z" fill="white"/>
<path d="M225.295 45.946C231.507 45.128 230.264 35.6876 224.051 36.5056C217.839 37.3236 219.082 46.764 225.295 45.946Z" fill="white"/>
<path d="M197.416 58.5474C208.439 68.6528 227.174 66.186 235.024 53.4353C235.945 51.9696 235.93 50.1148 234.44 48.9983C233.168 48.0453 230.785 48.103 229.901 49.596C226.96 54.3691 222.472 57.5852 216.746 58.3711C211.02 59.157 205.571 57.3135 201.402 53.5086C200.134 52.3311 197.841 52.825 196.863 54.1062C195.714 55.5702 196.183 57.3971 197.448 58.5432L197.416 58.5474Z" fill="white"/>
</g>
<g clip-path="url(#clip1_101_334)">
<path d="M240.819 48.8942L232.194 37.1166C230.829 35.2463 228.745 33.9313 226.408 33.5392L196.357 28.2085L193.891 27.7949C190.913 27.2954 188.118 29.2402 187.63 32.1513L176.314 99.6076C176.193 100.328 176.702 101.024 177.438 101.148L281.439 118.594C282.175 118.717 282.883 118.224 283.004 117.504L291.694 65.6993C292.403 61.4735 289.458 57.4394 285.136 56.7143L241.685 49.4256C241.333 49.3665 241.001 49.1822 240.787 48.8888L240.819 48.8942Z" fill="#7230FF"/>
<path d="M223.724 73.0236C229.904 74.0603 231.479 64.6696 225.299 63.6329C219.12 62.5963 217.544 71.987 223.724 73.0236Z" fill="white"/>
<path d="M213.889 81.1224C221.471 94.0124 240.107 97.1384 251.346 87.2448C252.655 86.1127 253.184 84.3348 252.087 82.8312C251.15 81.5476 248.854 80.9051 247.572 82.0739C243.362 85.7768 238.129 87.5379 232.424 86.6131C226.719 85.6884 222.048 82.3302 219.176 77.4715C218.308 75.9742 215.971 75.7753 214.661 76.7142C213.133 77.7773 213.047 79.6618 213.921 81.1278L213.889 81.1224Z" fill="white"/>
<path d="M241.241 72.7462C244.201 71.2267 247.936 71.725 251.699 74.5815" stroke="white" stroke-width="4" stroke-linecap="round"/>
</g>
<path d="M77.918 165.828V181.414H74.9414V174.008H71.8477V171.617H74.9414V165.828H77.918ZM59.9414 176.164C60.6562 176.164 61.418 176.164 62.2148 176.152V169.906H60.4805V167.516H71.9414V169.906H70.1836V175.883C71.0391 175.812 71.8828 175.742 72.6914 175.648L72.8789 177.805C68.6836 178.543 63.8906 178.637 60.2461 178.625L59.9414 176.164ZM63.7383 186.781V180.078H66.7383V184.391H78.4336V186.781H63.7383ZM65.0977 176.117L67.2773 176.047V169.906H65.0977V176.117ZM93.293 167V169.391H89.0156C89.1562 171.652 90.7852 173.891 94.1133 174.805L92.6133 177.125C90.1758 176.422 88.4766 174.957 87.5039 173.105C86.543 175.121 84.7852 176.727 82.2539 177.5L80.7539 175.156C84.1523 174.184 85.8047 171.805 85.9453 169.391H81.5742V167H93.293ZM84.2695 186.922V178.297H87.2227V180.289H95.5664V178.297H98.543V186.922H84.2695ZM87.2227 184.531H95.5664V182.609H87.2227V184.531ZM95.543 177.406V165.828H98.543V177.406H95.543ZM119.285 165.828V187.203H116.262V165.828H119.285ZM102.059 174.922C102.047 170.27 104.426 167.328 107.707 167.328C110.918 167.328 113.309 170.27 113.309 174.922C113.309 179.609 110.918 182.539 107.707 182.539C104.426 182.539 102.047 179.609 102.059 174.922ZM104.941 174.922C104.93 178.098 106.043 179.832 107.707 179.82C109.324 179.832 110.414 178.098 110.426 174.922C110.414 171.758 109.324 170.023 107.707 170.023C106.043 170.023 104.93 171.758 104.941 174.922ZM133.582 167.328C135.504 167.328 137.098 168.371 138.07 170.211H142.746V165.828H145.699V187.203H142.746V179.211H138.293C137.344 181.32 135.645 182.539 133.582 182.539C130.348 182.539 128.027 179.609 128.051 174.922C128.027 170.27 130.348 167.328 133.582 167.328ZM130.91 174.922C130.898 178.098 131.988 179.832 133.582 179.82C135.188 179.832 136.254 178.098 136.254 174.922C136.254 171.758 135.188 170.023 133.582 170.023C131.988 170.023 130.898 171.758 130.91 174.922ZM138.902 172.625C139.043 173.328 139.113 174.102 139.113 174.922C139.113 175.59 139.066 176.223 138.973 176.82H142.746V172.625H138.902ZM166.418 165.828V187.203H163.441V175.953H159.996V173.516H163.441V165.828H166.418ZM149.145 170.023V167.609H158.801V175.602H152.168V179.773C155.109 179.75 157.594 179.645 160.348 179.164L160.582 181.602C157.418 182.129 154.523 182.246 150.949 182.234H149.191V173.234H155.895V170.023H149.145ZM188.684 176.773V179.117H180.645V182.562H177.691V179.117H169.16V176.773H188.684ZM171.457 186.781V180.875H174.41V184.391H186.527V186.781H171.457ZM171.668 175.273V166.508H174.621V168.734H183.176V166.508H186.152V175.273H171.668ZM174.621 172.906H183.176V170.961H174.621V172.906ZM209.426 174.148V176.492H189.926V174.148H209.426ZM192.176 180.008V177.758H207.012V183.336H195.129V184.648H207.574V186.969H192.199V181.203H204.059V180.008H192.176ZM192.363 172.977V166.25H206.941V168.641H195.34V170.633H207.105V172.977H192.363ZM220.395 166.133C225.305 166.133 228.141 167.422 228.152 169.766C228.141 172.145 225.305 173.422 220.395 173.422C215.473 173.422 212.613 172.145 212.613 169.766C212.613 167.422 215.473 166.133 220.395 166.133ZM210.668 176.797V174.43H230.121V176.797H210.668ZM212.918 180.219V178.039H227.754V183.477H215.871V184.766H228.316V187.016H212.941V181.391H224.801V180.219H212.918ZM215.754 169.766C215.742 170.809 217.266 171.219 220.395 171.219C223.547 171.219 225.059 170.809 225.059 169.766C225.059 168.816 223.547 168.312 220.395 168.312C217.266 168.312 215.742 168.816 215.754 169.766ZM243.902 166.719C247.16 166.695 249.527 168.559 249.527 171.242C249.527 173.902 247.16 175.789 243.902 175.766C240.656 175.789 238.289 173.902 238.301 171.242C238.289 168.559 240.656 166.695 243.902 166.719ZM236.988 177.078C240.773 177.066 246.129 176.996 250.676 176.305L250.863 178.508C249.105 178.859 247.301 179.082 245.52 179.223V186.523H242.543V179.398C240.668 179.48 238.898 179.492 237.363 179.516L236.988 177.078ZM241.184 171.242C241.172 172.578 242.309 173.352 243.902 173.328C245.543 173.352 246.691 172.578 246.691 171.242C246.691 169.883 245.543 169.098 243.902 169.109C242.309 169.098 241.172 169.883 241.184 171.242ZM251.965 187.156V165.852H254.918V187.156H251.965ZM267.973 169.086V171.453H257.66V169.086H261.363V166.414H264.316V169.086H267.973ZM258.152 177.477C258.152 174.512 260.145 172.426 262.863 172.414C265.594 172.426 267.539 174.512 267.551 177.477C267.539 180.453 265.594 182.562 262.863 182.562C260.145 182.562 258.152 180.453 258.152 177.477ZM260.777 177.477C260.777 179.105 261.621 180.031 262.863 180.031C264.059 180.031 264.914 179.105 264.926 177.477C264.914 175.871 264.059 174.898 262.863 174.898C261.621 174.898 260.777 175.871 260.777 177.477ZM268.77 186.242V166.25H271.559V174.5H273.293V165.828H276.129V187.156H273.293V176.891H271.559V186.242H268.77ZM301.652 166.742V169.086H295.77C296.109 170.844 298.324 172.625 302.543 173.094L301.441 175.438C297.445 174.992 294.785 173.34 293.66 171.125C292.535 173.328 289.887 174.992 285.902 175.438L284.824 173.094C289.043 172.625 291.223 170.832 291.574 169.086H285.738V166.742H301.652ZM283.934 178.836V176.445H303.457V178.836H295.418V182.516H292.465V178.836H283.934ZM286.23 186.781V180.617H289.207V184.391H301.301V186.781H286.23ZM322.559 165.828V187.203H319.535V165.828H322.559ZM305.754 182.211V167.516H308.754V172.719H313.348V167.516H316.301V182.211H305.754ZM308.754 179.797H313.348V175.039H308.754V179.797ZM343.77 165.852V178.977H340.934V173.727H339.27V178.742H336.48V166.133H339.27V171.312H340.934V165.852H343.77ZM325.324 170.234V167.867H329.098V165.945H332.074V167.867H335.801V170.234H325.324ZM325.98 174.641C325.969 172.402 327.926 170.914 330.598 170.914C333.305 170.914 335.25 172.402 335.262 174.641C335.25 176.832 333.305 178.355 330.598 178.367C327.926 178.355 325.969 176.832 325.98 174.641ZM326.637 184.672C329.402 183.875 330.645 181.953 330.645 180.078V179.633H333.621V180.078C333.598 181.637 334.301 183.242 335.977 184.309C337.676 183.184 338.426 181.508 338.449 180.078V179.633H341.426V180.078C341.402 182.059 342.598 183.957 345.434 184.672L344.051 186.898C341.988 186.266 340.629 185.023 339.879 183.453C339.199 185.023 337.969 186.406 336.035 187.109C334.055 186.418 332.801 185.117 332.109 183.559C331.348 185.059 330 186.266 328.043 186.898L326.637 184.672ZM328.652 174.641C328.641 175.637 329.426 176.211 330.598 176.211C331.758 176.211 332.555 175.637 332.566 174.641C332.555 173.598 331.758 173.047 330.598 173.047C329.438 173.047 328.641 173.598 328.652 174.641ZM352.066 167.328C354.949 167.328 357.105 169.695 357.527 173.539H361.23V165.828H364.184V187.203H361.23V175.93H357.562C357.246 180.031 355.043 182.539 352.066 182.539C348.832 182.539 346.512 179.609 346.535 174.922C346.512 170.27 348.832 167.328 352.066 167.328ZM349.395 174.922C349.383 178.098 350.473 179.832 352.066 179.82C353.672 179.832 354.738 178.098 354.738 174.922C354.738 171.758 353.672 170.023 352.066 170.023C350.473 170.023 349.383 171.758 349.395 174.922ZM386.449 182.211V184.672H366.926V182.211H371.285V176.984C369.633 175.988 368.637 174.477 368.637 172.602C368.637 169.145 372.012 166.871 376.652 166.859C381.27 166.871 384.68 169.145 384.691 172.602C384.68 174.441 383.719 175.93 382.113 176.926V182.211H386.449ZM371.59 172.602C371.59 174.688 373.594 175.977 376.652 175.977C379.664 175.977 381.727 174.688 381.738 172.602C381.727 170.457 379.664 169.215 376.652 169.227C373.594 169.215 371.59 170.457 371.59 172.602ZM374.238 182.211H379.09V178.062C378.328 178.215 377.508 178.297 376.652 178.297C375.797 178.297 374.988 178.215 374.238 178.074V182.211ZM395.965 185.211C394.863 185.211 393.973 184.332 393.996 183.242C393.973 182.164 394.863 181.285 395.965 181.297C397.008 181.285 397.91 182.164 397.91 183.242C397.91 184.332 397.008 185.211 395.965 185.211ZM393.996 174.312C393.973 173.234 394.863 172.355 395.965 172.367C397.008 172.355 397.91 173.234 397.91 174.312C397.91 175.402 397.008 176.281 395.965 176.281C394.863 176.281 393.973 175.402 393.996 174.312ZM406.816 178.531C406.805 182.949 405.445 186.617 403.207 189.781H399.902C401.52 187.426 403.207 182.738 403.207 178.531C403.207 174.336 401.52 169.637 399.902 167.305H403.207C405.445 170.457 406.805 174.125 406.816 178.531Z" fill="#282828"/>
<path d="M15.2539 235.973V237.291H0.892578V235.973H7.23828V234.83C4.46094 234.707 2.8877 233.872 2.89648 232.439C2.8877 230.875 4.77734 230.049 8.06445 230.049C11.3428 230.049 13.2412 230.875 13.2324 232.439C13.2412 233.863 11.668 234.698 8.9082 234.83V235.973H15.2539ZM1.63086 229.434V228.15H7.23828V226.586H8.9082V228.15H14.4453V229.434H1.63086ZM2.70312 242.16V238.223H4.39062V240.824H13.6367V242.16H2.70312ZM4.58398 232.439C4.5752 233.23 5.77051 233.635 8.06445 233.635C10.3408 233.635 11.5449 233.23 11.5449 232.439C11.5449 231.648 10.3408 231.244 8.06445 231.244C5.77051 231.244 4.5752 231.648 4.58398 232.439ZM21.9336 231.385C21.9248 233.872 23.5684 236.649 25.959 237.783L25.0098 239.084C23.2432 238.24 21.8369 236.465 21.125 234.408C20.4043 236.649 18.9277 238.592 17.1348 239.488L16.1504 238.17C18.541 237.019 20.2725 234.048 20.2812 231.385V229.715H16.7305V228.326H25.3613V229.715H21.9336V231.385ZM27.0488 242.494V226.744H28.7188V232.984H31.25V234.391H28.7188V242.494H27.0488ZM37.6836 230.752C37.6836 233.635 39.3008 236.509 41.709 237.59L40.6895 238.926C38.9053 238.029 37.5518 236.254 36.8574 234.101C36.1631 236.368 34.792 238.284 32.9727 239.225L31.918 237.871C34.3613 236.702 35.9873 233.67 35.9961 230.752V228.062H37.6836V230.752ZM39.9688 233.336V231.982H43.4844V226.744H45.1367V242.529H43.4844V233.336H39.9688ZM60.3242 234.004V235.34H55.5605V239.189H61.9766V240.561H47.5625V239.189H53.9082V235.34H49.3555V227.957H60.1836V229.311H51.0254V234.004H60.3242ZM71.873 227.658C73.1826 227.649 74.2988 228.142 75.0371 228.959H78.9746V226.744H80.6445V236.043H78.9746V233.916H75.0283C74.29 234.725 73.1738 235.208 71.873 235.199C69.5 235.208 67.7334 233.635 67.7422 231.438C67.7334 229.214 69.5 227.649 71.873 227.658ZM69.3418 231.438C69.333 232.817 70.3965 233.793 71.873 233.775C73.3057 233.793 74.3691 232.817 74.3691 231.438C74.3691 230.022 73.3057 229.082 71.873 229.1C70.3965 229.082 69.333 230.022 69.3418 231.438ZM70.0449 239.436C70.0361 237.511 72.0752 236.386 75.3711 236.395C78.6494 236.386 80.6885 237.511 80.6973 239.436C80.6885 241.352 78.6494 242.468 75.3711 242.459C72.0752 242.468 70.0361 241.352 70.0449 239.436ZM71.6797 239.436C71.6709 240.517 73.0596 241.149 75.3711 241.141C77.6826 241.149 79.0625 240.517 79.0625 239.436C79.0625 238.311 77.6826 237.687 75.3711 237.678C73.0596 237.687 71.6709 238.311 71.6797 239.436ZM75.8018 230.295C75.9072 230.646 75.9688 231.033 75.9688 231.438C75.9688 231.824 75.9072 232.202 75.8018 232.545H78.9746V230.295H75.8018ZM88.502 229.258C88.4932 231.323 89.9521 233.248 92.2988 234.021L91.4023 235.34C89.6797 234.733 88.3877 233.503 87.7021 231.947C87.0166 233.714 85.6807 235.103 83.8438 235.779L82.9473 234.443C85.4082 233.573 86.832 231.473 86.8496 229.117V227.57H88.502V229.258ZM85.0742 239.541C85.0742 237.695 87.0869 236.614 90.3652 236.623C93.5996 236.614 95.5859 237.695 95.5859 239.541C95.5859 241.404 93.5996 242.468 90.3652 242.459C87.0869 242.468 85.0742 241.404 85.0742 239.541ZM86.7441 239.541C86.7354 240.578 88.0889 241.141 90.3652 241.158C92.624 241.141 93.96 240.578 93.9512 239.541C93.96 238.539 92.624 237.941 90.3652 237.941C88.0889 237.941 86.7354 238.539 86.7441 239.541ZM93.7754 236.254V226.744H95.4453V230.699H97.7305V232.105H95.4453V236.254H93.7754ZM111.758 226.744V238.434H110.088V234.092H107.627V232.686H110.088V231.033H107.627V229.662H110.088V226.744H111.758ZM98.6445 234.795C99.2334 234.795 99.8838 234.786 100.561 234.786V229.328H99.084V227.975H107.451V229.328H105.939V234.602C106.607 234.549 107.249 234.496 107.873 234.426L107.943 235.656C104.929 236.131 101.378 236.192 98.8555 236.201L98.6445 234.795ZM101.492 242.16V237.484H103.18V240.807H112.162V242.16H101.492ZM102.178 234.76C102.89 234.742 103.61 234.716 104.34 234.689V229.328H102.178V234.76ZM120.02 229.258C120.02 231.218 121.549 233.028 123.975 233.74L123.131 235.041C121.294 234.479 119.905 233.283 119.185 231.736C118.481 233.397 117.075 234.698 115.186 235.322L114.342 234.004C116.794 233.257 118.323 231.323 118.332 229.258V229.082H114.799V227.729H123.482V229.082H120.02V229.258ZM116.943 242.301V236.008H118.578V237.766H125.592V236.008H127.244V242.301H116.943ZM118.578 240.947H125.592V239.084H118.578V240.947ZM125.574 235.27V226.744H127.244V235.27H125.574ZM136.912 227.008C140.463 226.999 142.528 227.957 142.537 229.715C142.528 231.481 140.463 232.439 136.912 232.439C133.361 232.439 131.278 231.481 131.287 229.715C131.278 227.957 133.361 226.999 136.912 227.008ZM129.74 234.742V233.406H144.102V234.742H129.74ZM131.463 237.203V235.955H142.291V239.646H133.115V241.053H142.73V242.336H131.48V238.434H140.639V237.203H131.463ZM133.027 229.715C133.019 230.69 134.407 231.191 136.912 231.191C139.435 231.191 140.823 230.69 140.814 229.715C140.823 228.783 139.435 228.238 136.912 228.238C134.407 228.238 133.019 228.783 133.027 229.715ZM162.066 226.691V230.383H164.369V231.754H162.066V235.357H160.396V226.691H162.066ZM149.709 229.398V228.08H153.576V226.604H155.246V228.08H159.096V229.398H149.709ZM150.57 232.58C150.562 230.989 152.091 229.996 154.402 229.996C156.714 229.996 158.217 230.989 158.217 232.58C158.217 234.18 156.714 235.155 154.402 235.146C152.091 235.155 150.562 234.18 150.57 232.58ZM151.889 237.344V236.096H162.066V239.752H153.559V241.07H162.611V242.336H151.924V238.574H160.414V237.344H151.889ZM152.188 232.58C152.17 233.433 153.04 233.934 154.402 233.934C155.756 233.934 156.635 233.433 156.652 232.58C156.635 231.728 155.756 231.2 154.402 231.191C153.04 231.2 152.17 231.728 152.188 232.58ZM177.711 228.133C177.702 230.225 180.26 232.185 183.354 232.598L182.703 233.969C180.128 233.556 177.869 232.22 176.841 230.365C175.812 232.22 173.554 233.556 170.996 233.969L170.328 232.598C173.413 232.185 175.962 230.251 175.971 228.133V227.271H177.711V228.133ZM169.643 236.887V235.516H184.004V236.887H177.605V242.494H175.971V236.887H169.643ZM195.061 237.15C195.061 238.504 195.729 239.937 197.161 240.789C198.603 239.866 199.314 238.363 199.314 237.15V236.395H200.949V237.15C200.94 238.785 202.021 240.367 204.078 241.035L203.252 242.266C201.696 241.729 200.633 240.675 200.088 239.392C199.587 240.657 198.646 241.809 197.205 242.406C195.693 241.835 194.735 240.719 194.252 239.436C193.681 240.675 192.644 241.721 191.158 242.266L190.314 241.035C192.336 240.314 193.435 238.671 193.443 237.15V236.395H195.061V237.15ZM189.91 231.35C189.919 229.144 191.694 227.632 194.111 227.623C196.52 227.632 198.295 229.144 198.295 231.35C198.295 233.529 196.52 235.041 194.111 235.041C191.694 235.041 189.919 233.529 189.91 231.35ZM191.545 231.35C191.536 232.721 192.617 233.652 194.111 233.652C195.588 233.652 196.66 232.721 196.66 231.35C196.66 229.97 195.588 229.038 194.111 229.047C192.617 229.038 191.536 229.97 191.545 231.35ZM200.984 235.727V226.762H202.654V235.727H200.984ZM217.895 231.35V232.686H207.049V227.307H208.701V231.35H217.895ZM205.133 236.008V234.672H219.547V236.008H205.133ZM206.926 242.125V237.502H208.596V240.754H218V242.125H206.926ZM237.371 226.744V233.02H239.814V234.408H237.371V242.477H235.701V226.744H237.371ZM225.119 238.275C229.065 236.307 231.21 233.459 231.553 229.785H225.91V228.396H233.258C233.24 232.949 231.236 237.019 226.051 239.576L225.119 238.275ZM246.16 229.645C246.151 231.648 247.549 233.477 249.939 234.232L249.148 235.533C247.355 234.962 246.046 233.775 245.352 232.281C244.666 234.004 243.286 235.366 241.396 236.025L240.535 234.689C242.996 233.881 244.481 231.851 244.49 229.662V229.223H241.027V227.869H249.553V229.223H246.16V229.645ZM242.662 239.506C242.662 237.66 244.675 236.579 247.953 236.588C251.196 236.579 253.174 237.66 253.174 239.506C253.174 241.378 251.196 242.468 247.953 242.459C244.675 242.468 242.662 241.378 242.662 239.506ZM244.332 239.506C244.323 240.561 245.677 241.149 247.953 241.141C250.212 241.149 251.548 240.561 251.539 239.506C251.548 238.478 250.212 237.897 247.953 237.906C245.677 237.897 244.323 238.478 244.332 239.506ZM251.363 236.201V226.744H253.033V230.646H255.318V232.018H253.033V236.201H251.363ZM266.656 228.326C266.639 230.102 268.089 231.604 270.541 232.176L269.768 233.494C267.887 233.011 266.516 232.009 265.804 230.638C265.101 232.158 263.677 233.318 261.77 233.846L260.943 232.545C263.431 231.903 264.925 230.225 264.934 228.326V227.412H266.656V228.326ZM260.592 235.111C263.527 235.12 267.518 235.085 270.963 234.602L271.086 235.797C269.653 236.061 268.159 236.228 266.709 236.333V242.002H265.039V236.43C263.519 236.5 262.077 236.5 260.82 236.5L260.592 235.111ZM272.053 242.494V226.762H273.705V242.494H272.053ZM290.562 234.637V235.99H284.322V239.049H282.635V235.99H276.148V234.637H290.562ZM277.73 230.312C277.722 228.344 279.954 227.122 283.338 227.113C286.722 227.122 288.937 228.344 288.928 230.312C288.937 232.272 286.722 233.494 283.338 233.494C279.954 233.494 277.722 232.272 277.73 230.312ZM277.959 242.16V237.537H279.629V240.789H288.963V242.16H277.959ZM279.523 230.312C279.506 231.446 281.035 232.141 283.338 232.141C285.649 232.141 287.161 231.446 287.17 230.312C287.161 229.144 285.649 228.458 283.338 228.449C281.035 228.458 279.506 229.144 279.523 230.312ZM303.412 236.553C306.655 236.553 308.633 237.643 308.633 239.506C308.633 241.396 306.655 242.485 303.412 242.494C300.134 242.485 298.121 241.396 298.121 239.506C298.121 237.643 300.134 236.553 303.412 236.553ZM296.732 235.041V227.729H298.367V229.996H302.498V227.729H304.15V235.041H296.732ZM298.367 233.705H302.498V231.314H298.367V233.705ZM299.791 239.506C299.782 240.561 301.136 241.158 303.412 241.158C305.671 241.158 307.007 240.561 306.998 239.506C307.007 238.46 305.671 237.871 303.412 237.871C301.136 237.871 299.782 238.46 299.791 239.506ZM306.822 236.148V226.744H308.492V230.594H310.777V232.018H308.492V236.148H306.822ZM314.1 227.553V229.855H318.037V227.553H319.689V230.523H323.135V226.744H324.805V235.34H323.135V231.912H319.689V234.812H312.43V227.553H314.1ZM314.1 233.459H318.037V231.156H314.1V233.459ZM314.539 242.266V236.078H316.191V237.854H323.135V236.078H324.787V242.266H314.539ZM316.191 240.912H323.135V239.154H316.191V240.912ZM341.609 233.195V234.531H327.23V233.195H341.609ZM328.953 237.062V235.779H339.781V239.594H330.605V241H340.221V242.318H328.971V238.363H338.129V237.062H328.953ZM329.111 232.053V227.201H339.746V228.555H330.781V230.717H339.904V232.053H329.111ZM349.959 227.008C353.51 226.999 355.575 227.957 355.584 229.715C355.575 231.481 353.51 232.439 349.959 232.439C346.408 232.439 344.325 231.481 344.334 229.715C344.325 227.957 346.408 226.999 349.959 227.008ZM342.787 234.742V233.406H357.148V234.742H342.787ZM344.51 237.203V235.955H355.338V239.646H346.162V241.053H355.777V242.336H344.527V238.434H353.686V237.203H344.51ZM346.074 229.715C346.065 230.69 347.454 231.191 349.959 231.191C352.481 231.191 353.87 230.69 353.861 229.715C353.87 228.783 352.481 228.238 349.959 228.238C347.454 228.238 346.065 228.783 346.074 229.715ZM377.152 239.119V240.49H362.738V239.119H369.049V235.375H370.701V239.119H377.152ZM363.23 234.285C366.263 233.775 368.97 231.438 368.979 228.941V227.746H370.736V228.941C370.736 231.438 373.479 233.775 376.52 234.285L375.799 235.656C373.241 235.155 370.903 233.573 369.866 231.42C368.829 233.564 366.509 235.155 363.969 235.656L363.23 234.285ZM391.777 226.744V242.494H390.178V234.32H388.227V241.738H386.662V227.166H388.227V232.967H390.178V226.744H391.777ZM378.242 237.994C381.74 236.008 383.208 233.327 383.472 230.119H378.91V228.748H385.098C385.089 232.888 383.718 236.614 379.209 239.154L378.242 237.994ZM406.227 226.691V230.383H408.529V231.754H406.227V235.357H404.557V226.691H406.227ZM393.869 229.398V228.08H397.736V226.604H399.406V228.08H403.256V229.398H393.869ZM394.73 232.58C394.722 230.989 396.251 229.996 398.562 229.996C400.874 229.996 402.377 230.989 402.377 232.58C402.377 234.18 400.874 235.155 398.562 235.146C396.251 235.155 394.722 234.18 394.73 232.58ZM396.049 237.344V236.096H406.227V239.752H397.719V241.07H406.771V242.336H396.084V238.574H404.574V237.344H396.049ZM396.348 232.58C396.33 233.433 397.2 233.934 398.562 233.934C399.916 233.934 400.795 233.433 400.812 232.58C400.795 231.728 399.916 231.2 398.562 231.191C397.2 231.2 396.33 231.728 396.348 232.58ZM422.943 226.744V242.494H421.361V226.744H422.943ZM409.355 237.941C412.695 235.955 414.295 233.31 414.585 230.066H410.094V228.695H416.246C416.237 230.233 416.026 231.701 415.543 233.072H418.039V227.148H419.621V241.721H418.039V234.408H414.963C414.031 236.236 412.528 237.836 410.305 239.137L409.355 237.941ZM439.379 239.137V240.525H424.965V239.137H428.41V235.023C427.118 234.312 426.327 233.187 426.336 231.771C426.327 229.293 428.762 227.667 432.137 227.658C435.521 227.667 437.955 229.293 437.955 231.771C437.955 233.16 437.199 234.276 435.934 234.988V239.137H439.379ZM427.953 231.771C427.953 233.459 429.667 234.558 432.137 234.566C434.589 234.558 436.329 233.459 436.338 231.771C436.329 230.075 434.589 228.994 432.137 228.994C429.667 228.994 427.953 230.075 427.953 231.771ZM430.062 239.137H434.246V235.639C433.604 235.788 432.893 235.867 432.137 235.867C431.398 235.867 430.695 235.788 430.062 235.639V239.137ZM442.314 241.123C441.629 241.114 441.058 240.561 441.066 239.875C441.058 239.189 441.629 238.627 442.314 238.627C442.991 238.627 443.554 239.189 443.562 239.875C443.554 240.561 442.991 241.114 442.314 241.123ZM47.1406 255.762V266.52H45.4707V261.686H42.2539V260.332H45.4707V255.762H47.1406ZM34.3262 260.104L40.1006 259.857C40.3027 259.339 40.4258 258.785 40.4785 258.205H35.1172V256.834H42.2363C42.2275 261.026 40.1094 264.032 35.0469 265.676L34.3789 264.34C36.875 263.549 38.501 262.441 39.4502 261.088L34.5898 261.457L34.3262 260.104ZM35.9082 270.105C38.8701 269.613 41.1201 267.829 41.1289 265.693V265.184H42.7812V265.693C42.7812 267.812 45.0049 269.552 47.9668 270.07L47.2812 271.406C44.8906 270.958 42.8955 269.763 41.9463 268.04C40.9883 269.771 38.9668 270.976 36.5586 271.424L35.9082 270.105ZM62.6973 255.744V267.434H61.0273V263.092H58.5664V261.686H61.0273V260.033H58.5664V258.662H61.0273V255.744H62.6973ZM49.584 263.795C50.1729 263.795 50.8232 263.786 51.5 263.786V258.328H50.0234V256.975H58.3906V258.328H56.8789V263.602C57.5469 263.549 58.1885 263.496 58.8125 263.426L58.8828 264.656C55.8682 265.131 52.3174 265.192 49.7949 265.201L49.584 263.795ZM52.4316 271.16V266.484H54.1191V269.807H63.1016V271.16H52.4316ZM53.1172 263.76C53.8291 263.742 54.5498 263.716 55.2793 263.689V258.328H53.1172V263.76ZM70.959 258.258C70.959 260.218 72.4883 262.028 74.9141 262.74L74.0703 264.041C72.2334 263.479 70.8447 262.283 70.124 260.736C69.4209 262.397 68.0146 263.698 66.125 264.322L65.2812 263.004C67.7334 262.257 69.2627 260.323 69.2715 258.258V258.082H65.7383V256.729H74.4219V258.082H70.959V258.258ZM67.8828 271.301V265.008H69.5176V266.766H76.5312V265.008H78.1836V271.301H67.8828ZM69.5176 269.947H76.5312V268.084H69.5176V269.947ZM76.5137 264.27V255.744H78.1836V264.27H76.5137ZM89.4512 257.432V258.398C89.4424 259.726 89.4424 261.756 88.9941 264.568L87.3418 264.445C87.7461 261.932 87.79 260.095 87.7988 258.785H81.4004V257.432H89.4512ZM80.5215 266.748C81.5059 266.739 82.6045 266.73 83.7559 266.704V261.932H85.4082V266.651C87.0781 266.581 88.792 266.476 90.3652 266.273L90.4531 267.521C87.1748 268.049 83.5098 268.119 80.7148 268.102L80.5215 266.748ZM91.2617 271.494V255.744H92.9492V262.248H95.3574V263.672H92.9492V271.494H91.2617ZM106.115 260.385C106.106 262.872 107.75 265.649 110.141 266.783L109.191 268.084C107.425 267.24 106.019 265.465 105.307 263.408C104.586 265.649 103.109 267.592 101.316 268.488L100.332 267.17C102.723 266.019 104.454 263.048 104.463 260.385V258.715H100.912V257.326H109.543V258.715H106.115V260.385ZM111.23 271.494V255.744H112.9V261.984H115.432V263.391H112.9V271.494H111.23ZM124.168 256.904V263.988H116.803V256.904H124.168ZM118.156 267.205V265.869H128.562V271.512H126.893V267.205H118.156ZM118.438 262.652H122.533V258.223H118.438V262.652ZM126.893 265.078V255.744H128.562V259.734H130.848V261.123H128.562V265.078H126.893ZM139.725 257.133V264.48H132.359V257.133H139.725ZM133.994 263.162H138.09V258.486H133.994V263.162ZM134.135 271.16V266.168H135.805V269.807H144.787V271.16H134.135ZM142.449 267.275V255.727H144.119V260.438H146.404V261.844H144.119V267.275H142.449ZM164.826 255.744V267.363H163.156V261.492H160.467V260.139H163.156V255.744H164.826ZM151.713 263.531H153.629V258.451H152.152V257.098H160.555V258.451H159.061V263.329C159.799 263.276 160.52 263.215 161.205 263.127L161.311 264.34C158.182 264.876 154.569 264.938 151.924 264.938L151.713 263.531ZM154.561 271.16V266.344H156.248V269.807H165.23V271.16H154.561ZM155.246 263.505C155.958 263.487 156.696 263.461 157.426 263.435V258.451H155.246V263.505ZM173.088 258.258C173.088 260.218 174.617 262.028 177.043 262.74L176.199 264.041C174.362 263.479 172.974 262.283 172.253 260.736C171.55 262.397 170.144 263.698 168.254 264.322L167.41 263.004C169.862 262.257 171.392 260.323 171.4 258.258V258.082H167.867V256.729H176.551V258.082H173.088V258.258ZM170.012 271.301V265.008H171.646V266.766H178.66V265.008H180.312V271.301H170.012ZM171.646 269.947H178.66V268.084H171.646V269.947ZM178.643 264.27V255.744H180.312V264.27H178.643ZM196.361 255.744V271.494H194.762V255.744H196.361ZM182.984 262.547C182.984 259.137 184.32 257.001 186.377 257.01C188.293 257.001 189.585 258.82 189.778 261.773H191.562V256.043H193.162V270.721H191.562V263.127H189.787C189.638 266.203 188.328 268.11 186.377 268.102C184.32 268.11 182.984 265.966 182.984 262.547ZM184.531 262.547C184.531 265.052 185.243 266.528 186.377 266.52C187.537 266.528 188.258 265.052 188.258 262.547C188.258 260.033 187.537 258.565 186.377 258.574C185.243 258.565 184.531 260.033 184.531 262.547ZM210.74 256.816V263.391H203.375V256.816H210.74ZM205.01 262.072H209.105V258.188H205.01V262.072ZM205.098 271.301V264.99H215.223V266.221H206.732V267.504H215.064V268.699H206.732V270.07H215.557V271.301H205.098ZM213.465 264.199V255.744H215.135V259.277H217.42V260.648H215.135V264.199H213.465ZM231.412 255.744V271.494H229.725V255.744H231.412ZM218.475 267.275C222.658 265.28 224.706 262.441 225.031 258.768H219.23V257.432H226.719C226.719 262.046 224.759 266.036 219.354 268.629L218.475 267.275ZM246.617 257.256V258.803C246.608 260.745 246.608 262.925 246.02 266.15L244.332 265.975C244.938 262.925 244.938 260.692 244.947 258.803V258.609H235.385V257.256H246.617ZM233.873 269.367V267.979H239.34V262.424H240.992V267.979H248.234V269.367H233.873ZM252.26 268.787L250.854 273.639H249.359L250.291 268.787H252.26ZM264.213 259.752C264.195 262.626 265.936 265.526 268.379 266.607L267.377 267.926C265.566 267.064 264.134 265.298 263.396 263.145C262.666 265.456 261.216 267.354 259.326 268.277L258.307 266.871C260.785 265.772 262.525 262.758 262.525 259.752V257.062H264.213V259.752ZM269.803 271.529V255.744H271.473V271.529H269.803ZM286.361 255.744V260.402H288.646V261.791H286.361V267.188H284.674V255.744H286.361ZM273.969 264.129C277.66 263.021 279.945 260.921 280.271 258.328H274.637V256.939H282.09C282.09 261.07 279.277 264.067 274.672 265.465L273.969 264.129ZM276.359 271.16V266.01H278.047V269.807H287.012V271.16H276.359ZM302.305 263.004V264.34H297.541V268.189H303.957V269.561H289.543V268.189H295.889V264.34H291.336V256.957H302.164V258.311H293.006V263.004H302.305ZM323.873 263.953V265.289H309.494V263.953H315.84V262.055H311.287V256.535H322.098V257.889H312.957V260.701H322.256V262.055H317.51V263.953H323.873ZM311.305 271.16V266.607H312.957V269.807H322.361V271.16H311.305ZM337.812 263.004V264.34H333.049V268.189H339.465V269.561H325.051V268.189H331.396V264.34H326.844V256.957H337.672V258.311H328.514V263.004H337.812ZM349.221 256.922C351.576 256.931 353.255 259.075 353.264 262.441C353.255 265.843 351.576 267.987 349.221 267.979C346.865 267.987 345.187 265.843 345.195 262.441C345.187 259.075 346.865 256.931 349.221 256.922ZM346.795 262.441C346.786 264.946 347.788 266.484 349.221 266.484C350.68 266.484 351.664 264.946 351.664 262.441C351.664 259.972 350.68 258.425 349.221 258.416C347.788 258.425 346.786 259.972 346.795 262.441ZM355.602 271.494V255.744H357.271V261.914H359.803V263.32H357.271V271.494H355.602ZM373.637 255.744V271.494H371.949V255.744H373.637ZM360.523 266.977C362.773 264.63 363.714 261.949 363.89 258.803H361.156V257.432H365.48C365.472 261.316 364.646 264.946 361.824 267.943L360.523 266.977ZM365.129 268.084C367.423 265.359 368.161 262.16 368.302 258.803H366.025V257.432H369.893C369.893 261.369 369.33 265.597 366.535 268.98L365.129 268.084ZM380.914 260.051C380.914 262.564 381.969 265.245 384.078 266.537L383.146 267.82C381.67 266.933 380.677 265.359 380.132 263.54C379.561 265.535 378.471 267.24 376.941 268.172L375.904 266.924C378.128 265.588 379.306 262.802 379.297 260.121V257.186H380.914V260.051ZM382.373 262.67V261.281H384.816V256.043H386.398V270.721H384.816V262.67H382.373ZM388.068 271.494V255.744H389.668V271.494H388.068ZM406.086 268.137V269.525H391.672V268.137H395.117V264.023C393.825 263.312 393.034 262.187 393.043 260.771C393.034 258.293 395.469 256.667 398.844 256.658C402.228 256.667 404.662 258.293 404.662 260.771C404.662 262.16 403.906 263.276 402.641 263.988V268.137H406.086ZM394.66 260.771C394.66 262.459 396.374 263.558 398.844 263.566C401.296 263.558 403.036 262.459 403.045 260.771C403.036 259.075 401.296 257.994 398.844 257.994C396.374 257.994 394.66 259.075 394.66 260.771ZM396.77 268.137H400.953V264.639C400.312 264.788 399.6 264.867 398.844 264.867C398.105 264.867 397.402 264.788 396.77 264.639V268.137ZM410.129 257.273L409.971 266.326H408.23L408.072 257.273H410.129ZM407.861 268.875C407.853 268.189 408.424 267.627 409.109 267.627C409.786 267.627 410.349 268.189 410.357 268.875C410.349 269.561 409.786 270.114 409.109 270.123C408.424 270.114 407.853 269.561 407.861 268.875Z" fill="#282828"/>
<defs>
<clipPath id="clip0_101_334">
<rect width="108.181" height="75.0641" fill="white" transform="translate(157.273 14.123) rotate(-7.50118)"/>
</clipPath>
<clipPath id="clip1_101_334">
<rect width="108.181" height="75.0641" fill="white" transform="translate(188.512 26.8926) rotate(9.52248)"/>
</clipPath>
</defs>
</svg>
