<svg width="61" height="49" viewBox="0 0 61 49" fill="none" xmlns="http://www.w3.org/2000/svg">
<path d="M25.3815 7.65635L20.3196 3.40233C19.5178 2.72628 18.4594 2.37188 17.3888 2.45083L3.59318 3.33852L2.4639 3.4218C1.09995 3.52239 0.0793035 4.67882 0.17764 6.0122L2.45629 36.9093C2.48061 37.239 2.77936 37.4909 3.11668 37.466L50.752 33.9529C51.0893 33.928 51.3479 33.6351 51.3236 33.3053L49.5736 9.57693C49.4309 7.64139 47.7013 6.18325 45.7214 6.32927L25.8195 7.79703C25.6582 7.80893 25.4927 7.76347 25.3669 7.65743L25.3815 7.65635Z" fill="#7230FF"/>
<path d="M18.4291 20.6071C21.2597 20.3983 20.9425 16.0971 18.1119 16.3058C15.2814 16.5146 15.5986 20.8158 18.4291 20.6071Z" fill="white"/>
<path d="M29.9338 19.7584C32.7643 19.5497 32.4471 15.2485 29.6166 15.4572C26.786 15.666 27.1032 19.9672 29.9338 19.7584Z" fill="white"/>
<path d="M16.9999 24.7338C21.7227 29.5895 30.2584 28.96 34.1392 23.3977C34.5934 22.7588 34.6348 21.9196 33.9901 21.3762C33.4398 20.9122 32.3607 20.8765 31.9222 21.5287C30.4685 23.6108 28.3553 24.9487 25.7458 25.1556C23.1363 25.3624 20.7198 24.3874 18.9334 22.5587C18.3903 21.9933 17.3407 22.1572 16.8654 22.7112C16.3075 23.3434 16.4725 24.1817 17.0145 24.7327L16.9999 24.7338Z" fill="white"/>
<path d="M35.9059 19.173L31.4702 14.2696C30.7678 13.4907 29.7675 12.9955 28.6961 12.928L14.9081 11.9297L13.778 11.8585C12.413 11.7725 11.2445 12.7792 11.1604 14.1136L9.21236 45.0332C9.19157 45.3632 9.45326 45.6534 9.79082 45.6747L57.461 48.678C57.7986 48.6993 58.0946 48.4443 58.1154 48.1143L59.6114 24.3685C59.7335 22.4316 58.2185 20.7516 56.2371 20.6268L36.3207 19.372C36.1593 19.3618 36.0014 19.2942 35.8913 19.1721L35.9059 19.173Z" fill="#FF5D47"/>
<path d="M29.2988 31.1413C32.1315 31.3198 32.4026 27.0154 29.57 26.837C26.7374 26.6585 26.4662 30.9629 29.2988 31.1413Z" fill="white"/>
<path d="M38.7686 31.782C41.6012 31.9604 41.8724 27.6561 39.0397 27.4776C36.2071 27.2991 35.9359 31.6035 38.7686 31.782Z" fill="white"/>
<path d="M25.2779 34.9504C29.2959 40.4037 37.8378 40.9418 42.4395 35.9596C42.9765 35.3884 43.1317 34.5627 42.567 33.9365C42.085 33.402 41.0208 33.2197 40.4976 33.8062C38.774 35.671 36.4983 36.7088 33.885 36.5586C31.2716 36.4084 29.0103 35.1135 27.4894 33.0586C27.0284 32.4246 25.9662 32.4441 25.42 32.9282C24.7812 33.4786 24.8306 34.3316 25.2925 34.9513L25.2779 34.9504Z" fill="white"/>
</svg>
